/* XPM */
static char *result[] = {
/* columns rows colors chars-per-pixel */
"60 60 196 2 ",
"   c #151717",
".  c #181817",
"X  c #141718",
"o  c #171919",
"O  c #1B1C1B",
"+  c #231E1C",
"@  c #1E211F",
"#  c #21211F",
"$  c #29201E",
"%  c #35231F",
"&  c #1B1F20",
"*  c #1D2121",
"=  c #232523",
"-  c #2A2623",
";  c #262926",
":  c #2A2A26",
">  c #242728",
",  c #262929",
"<  c #2C2D29",
"1  c #322422",
"2  c #332B26",
"3  c #3C2824",
"4  c #322E2A",
"5  c #2F302D",
"6  c #33322E",
"7  c #39342E",
"8  c #343532",
"9  c #3A3631",
"0  c #3B3A33",
"q  c #373939",
"w  c #3C3C3B",
"e  c #422A25",
"r  c #472C27",
"t  c #45332D",
"y  c #4C332E",
"u  c #423B35",
"i  c #4E3D36",
"p  c #423E39",
"a  c #63362E",
"s  c #6B3D34",
"d  c #4A4037",
"f  c #45423A",
"g  c #4A453C",
"h  c #4D493F",
"j  c #54433D",
"k  c #5D443C",
"l  c #52493E",
"z  c #734239",
"x  c #3F4140",
"c  c #454543",
"v  c #4B4642",
"b  c #4D4943",
"n  c #4C4D4B",
"m  c #5F4742",
"M  c #534B43",
"N  c #534F4A",
"B  c #5A5146",
"V  c #575149",
"C  c #5C544B",
"Z  c #4F5252",
"A  c #5A5552",
"S  c #5E5953",
"D  c #5E5F5F",
"F  c #7B4A40",
"G  c #61574D",
"H  c #6F544A",
"J  c #63594D",
"K  c #685D4F",
"L  c #605751",
"P  c #645C55",
"I  c #6A5E53",
"U  c #666056",
"Y  c #6D6254",
"T  c #66615A",
"R  c #6B6259",
"E  c #736657",
"W  c #72675C",
"Q  c #776959",
"!  c #7A6C5C",
"~  c #676767",
"^  c #6D6761",
"/  c #6B6C6C",
"(  c #746C64",
")  c #796E64",
"_  c #7A7167",
"`  c #767169",
"'  c #7D746A",
"]  c #7F786D",
"[  c #737474",
"{  c #797572",
"}  c #747778",
"|  c #7A7B7B",
" . c #804E42",
".. c #815E52",
"X. c #876457",
"o. c #90665B",
"O. c #A56A5C",
"+. c #906F63",
"@. c #837363",
"#. c #80776D",
"$. c #847A6F",
"%. c #8E7B6C",
"&. c #9B7A6A",
"*. c #887E75",
"=. c #827E79",
"-. c #A9786B",
";. c #B3796A",
":. c #8A8077",
">. c #8C847A",
",. c #91877B",
"<. c #92897D",
"1. c #A68174",
"2. c #B98779",
"3. c #858686",
"4. c #8B8682",
"5. c #8D8D8D",
"6. c #938C81",
"7. c #9C9387",
"8. c #93908D",
"9. c #9C948A",
"0. c #8F8F90",
"q. c #908F90",
"w. c #949291",
"e. c #999896",
"r. c #9D9997",
"t. c #A2968D",
"y. c #A39B8E",
"u. c #A59D91",
"i. c #B09C91",
"p. c #A7A396",
"a. c #AAA296",
"s. c #AAA49C",
"d. c #B0A89D",
"f. c #A19FA0",
"g. c #A1A1A1",
"h. c #ACA9A6",
"j. c #A5A6A8",
"k. c #ACABAB",
"l. c #B5ADA2",
"z. c #B9AEA2",
"x. c #B3AFAB",
"c. c #BAB2A6",
"v. c #B4B1AE",
"b. c #BDB4A9",
"n. c #BFB8AD",
"m. c #B0AFB0",
"M. c #B5B3B1",
"N. c #BCB7B5",
"B. c #C69B8E",
"V. c #DDA08F",
"C. c #D7A696",
"Z. c #C1B9AC",
"A. c #C4BBB0",
"S. c #C8BDB3",
"D. c #E5B2A1",
"F. c #C9C2B5",
"G. c #CBC5BA",
"H. c #CFC9BE",
"J. c #D1CABE",
"K. c #F7CEBD",
"L. c #C4C4C6",
"P. c #C8C8C8",
"I. c #CBCBCB",
"U. c #D3CDC3",
"Y. c #D0CECD",
"T. c #D7D1C6",
"R. c #D9D4CA",
"E. c #DED9CE",
"W. c #CFCFD0",
"Q. c #CFD0D0",
"!. c #D3D2D1",
"~. c #DEDAD3",
"^. c #DBDBDB",
"/. c #FCD6C6",
"(. c #E2DDD4",
"). c #E5E1D7",
"_. c #E4E1DC",
"`. c #E9E5DD",
"'. c #ECE8DF",
"]. c #FCE5D2",
"[. c #FFEDD9",
"{. c #E3E3E3",
"}. c #EDE9E1",
"|. c #E8E7E8",
" X c #ECECEC",
".X c #F3EBE3",
"XX c #F1EEEB",
"oX c #EFF0EF",
"OX c #F2F0EC",
"+X c #EFEFF0",
"@X c #EFF0F1",
"#X c #F3F3F3",
"$X c #F8F7F5",
"%X c #F9F8F4",
"&X c #F7F8F8",
"*X c #FCFCFC",
/* pixels */
"*X*X*X*X*X*X*X*X*X*X*X*X*X*X*X*X*X*X*X*X*X*X%X*X*X*X*X*X*X*X*X*X*X*X*X*X*X*X*X*X*X*X*X*X*X*X*X*X$X*X*X*X*X*X*X*X*X*X*X*X",
"*X*X*X*X*X*X*X*X*X*X*X*X*X*X*X*X*X*X*X*X*X*X*X*X*X*X*X*X*X*X*X_.M.M.N.x.k.M.(.*X*X*X*X*X*X*X*X*X*X*X*X&X*X*X*X$X*X*X*X*X",
"*X*X*X*X*X*X*X*X*X*X*X*X*X*X*X*X*X*X*X*X*X*X*X*X*X*X*X*X*X*X$Xh.c i M p 7 f x.#X*X*X*X*X*X*X*X*X*X*X*X*X*X*X*X*X*X*X*X*X",
"*X*X*X*X*X*X*X*X*X*X*X*X*X*X*X*X*X*X*X*X*X*X*X*X*X*X*X*X*X|.e.A - : 4 ; $ = A r.|.*X*X*X*X*X*X*X*X*X*X*X*X*X*X*X*X*X&X*X",
"*X*X*X*X*X*X*X*X*X*X*X*X*X*X*X*X*X*X*X*X*X*X*X*X*X*X*X*X|.M.b - , 6 0 0 8 - : M m.|.*X*X*X*X*X*X*X*X*X*X*X%X*X*X&X*X*X*X",
"*X*X*X*X*X*X*X*X*X*X*X*X*X*X*X*X*X*X*X*X*X*X*X*X*X*X*X#Xu.n - 6 C ( ] ] ( C 6 = n u.#X*X*X*X*X*X*X*X*X*X*X*X*X*X*X*X*X*X",
"*X*X*X*X*X*X*X*X*X*X*X*X*X*X*X*X*X*X*X*X*X*X*X*X*X*X{.x.P 4 b ` u.l.b.c.l.9.` v 4 S h.(.*X*X*X*X*X*X*X*X*X*X*X*X*X*X*X*X",
"*X*X*X*X*X*X*X*X*X*X*X*X*X*X*X*X*X*X*X*X*X*X*X*X*X*XN.S 8 c 7.G.(.).).).`.(.G.7.c : v M.*X*X*X*X*X*X%X*X*X*X*X*X*X*X*X*X",
"*X*X*X*X*X*X*X*X*X*X*X*X*X*X*X*X*X*X*X*X*X*X*X*X*X*Xv.B I 6.H.`.'.'.'.'.XX%X'.G.6.P M m.*X*X*X*X*X*X*X*X*X*X*X*X*X*X*X*X",
"*X*X*X*X*X*X*X*X*X*X*X*X*X*X*X*X*X*X&X*X*X*X*X*X$X{.f.W t.G.U.~.}.}.'.}..XOX X`.U.9.I u.{.&X*X*X*X*X*X*X*X*X%X*X*X*X*X*X",
"*X*X*X*X*X*X*X*X*X*X*X*X*X*X*X*X*X*X*X*X*X*X*X*X^.4.#.u.H.U.7.x.OXOX}.%X`.H.}.$X_.n.>.( 4._.*X*X*X*X*X*X*X*X*X*X*X*X*X*X",
"*X*X*X*X*X*X*X*X*X*X*X*X*X*X*X*X*X*X*X*X*X*X*X*X^.^ #.G.E.A.) 9.XX`.E.OX~.b.U.`.}.U.u.I R !.*X*X*X*X*X*X*X*X*X*X*X*X%X*X",
"*X*X*X*X*X*X*X*X*X*X*X*X*X*X*X*X*X*X*X*X*X*X*X*XY.^ >.E.U.y.J *.R.J.F.~.T.Z.Z.F.~.R.z.R S I.*X*X*X*X*X*X*X*X*X$X*X%X%X*X",
"*X*X*X*X*X*X*X*X*X*X*X*X*X*X*X*X*X*X*X*X*X*X$XM.{ T 9.(.F.>.p A y.G.U.c.Z.J.F.c.c.F.U.>.L { M.#X*X*X*X*X*X*X*X*X*X*X*X*X",
"*X*X*X*X*X*X*X*X*X*X*X*X*X*X*X*X*X*X*X*X*X*X#X=.u I u.T.l._ 8 8 P s.H.d.b.T.Z.y.<.l.~.s.I u =. X*X&X*X*X*X*X*X*X*X*X*X*X",
"*X*X*X*X*X*X*X*X*X*X*X*X*X*X*X*X*X*X*X*X*X*X#X{ 9 _ a.Z.7.R w < 9 T 9.G.F.a.,.' _ p.~.c._ 9 { +X*X*X*X*X*X*X*X*X*X*X*X*X",
"*X*X*X*X*X*X*X*X*X*X*X*X*X*X*X*X*X*X*X*X*X*X#X{ 4 ) t.u.$.V 9 ; ; 6 S p.c.u.>._ U 9.~.c.( 7 ` #X*X*X*X*X*X*X*X*X*X*X*X*X",
"*X*X*X*X*X*X*X*X*X*X*X*X*X*X*X*X*X*X*X*X*X*X#X| 9 L $.,.R i 6 8 f 6 q R 7.a.y.#.B >.R.u.L 2 { +X*X*X*X*X*X*X*X&X*X*X*X*X",
"*X*X*X*X*X*X*X*X*X*X*X*X*X*X*X*X*X*X*X*X*X*X&XI.8.V G _ C g ..-.i.p.y.1.+.R C V u _ Z.*.p 1 { #X*X*X*X*X*X*X*X*X*X&X*X&X",
"*X*X*X*X*X*X*X*X*X*X*X*X*X*X*X*X*X*X*X*X*X*X*X*X!.b 9 C p i O.V.K.[.].D.-.k t 3 2 R u.T 4 p q.#X*X*X*X*X*X*X*X*X*X*X*X*X",
"*X*X*X*X*X*X*X*X*X*X*X*X*X*X*X*X*X*X*X*X*X*X*X*XQ.c # 5 ; 2 s O.V.K.]./.D.;. .r + M <.N w k.|.*X*X*X*X*X*X*X*X*X*X*X*X*X",
"*X*X*X*X*X*X*X*X*X*X*X*X*X*X*X*X*X*X*X*X*X*X&XI.3.8 # 7 f d r s O.2.B.B.2.o.s e 2 f C 9 c Y.*X*X*X*X*X&X*X*X*X*X*X*X*X&X",
"*X*X*X*X*X*X*X*X*X*X*X*X*X*X*X*X*X*X*X*X*X*X|.[ * * 7 B Q I < % a s s s y , O = M d = + b !.*X*X*X*X*X&X*X*X*X*X*X*X*X*X",
"*X*X*X*X*X*X*X*X*X*X*X*X*X*X*X*X*X*X*X*X*XP.[ 8 # 0 G Q Y b : + % % % % $ * X : J C : O v !.*X*X*X*X*X*X*X&X*X*X*X*X*X&X",
"*X*X*X*X*X*X*X*X*X*X*X*X*X*X*X*X*X*X*X*X*Xg.= . = d J Y h 5 = * = 5 6 < = @ o < I E v : w k.|.&X*X*X*X*X*X&X*X*X*X*X*X*X",
"*X*X*X*X*X*X*X*X*X*X*X*X*X*X*X*X*X*X*X*X*Xu.> > 5 < : < : = * ; w C Y C 9 @ X ; M E E p > w q.+X*X*X*X*X*X*X&X*X*X&X*X*X",
"*X*X*X*X*X*X*X*X*X*X*X*X*X*X*X*X*X*X*X XM.3.^ ^ S 6 @ o O # ; M %.&.X.j 4 < b T I I P 0 O . [  X*X&X*X*X*X*X*X*X*X*X*X*X",
"*X*X*X*X*X*X*X*X*X*X*X*X*X*X*X*X*X*X*XW.n D b.z.:.v < = ; ; 5 ) C.2.F 1 @ 0 9.Z.6.I p - o # | +X*X&X&X*X*X*X*X*X*X*X*X*X",
"*X*X*X*X*X*X*X*X*X*X*X*X*X*X*X*X*X*X*X!.c Z t.:.S 9 > , | w.w p I m 3 O X 8 h..XS.6.L 4 6 3.I.$X*X*X*X*X*X*X*X*X*X*X*X*X",
"*X*X*X*X*X*X*X*X*X*X*X*X*X*X*X*X*X*X*X^./ n P v < > < Z j.m.w o O = > # X , 5.(.(.S.*.p c W.*X*X*X*X*X*X*X*X*X*X*X*X*X*X",
"*X*X*X*X*X*X*X*X*X*X*X*X*X*X*X*X*X*X*X#X^.0.8 = O O ~ L.3.w O * 6 f g 0 = & w =.(.(.t.v x W.*X*X*X*X*X*X*X*X*X*X*X*X*X&X",
"*X*X*X*X*X*X*X*X*X*X*X*X*X*X*X&X*X*X*X*X*XP.| / [ { 0.f.P e k j 9 f g 8 - o . w 5.r.( 0 c W.*X*X*X*X*X*X*X*X%X*X*X*X&X*X",
"*X*X*X*X*X*X*X*X*X*X*X*X*X*X*X*X*X*X*X*X*X%X#X#X X|.e.8 e z ;.X.: 5 0 < = @ o O ; , = O c Q.*X*X*X*X*X*X*X*X*X*X*X%X*X*X",
"*X*X*X*X*X*X*X*X*X*X*X*X*X*X*X*X*X*X*X*X*X*X*X*X{.5.n = - t H j = 7 h 0 5 < * @ @ o o   c Q.*X*X*X*X*X*X*X*X*X*X*X*X*X*X",
"*X*X*X*X*X*X*X*X*X*X*X*X*X*X*X*X*X*X*X*X*X*X*X*X^.~ < = @ * 8 0 6 f l h h h f 6 < # @ < ~ ^.*X*X*X*X*X*X*X*X*X*X*X*X*X*X",
"*X*X*X*X*X*X*X*X*X*X*X*X*X*X*X*X*X*X*X*X*X*X*X*X#X^.3.> O ; g K Y g 7 h E %.@.Y g < ; 3.^.$X*X*X*X*X*X*X*X*X*X*X*X*X*X*X",
"*X*X*X*X*X*X*X*X*X*X*X*X*X*X*X*X*X*X*X*X*X*X*X*X*X*XI.} q * 7 l C 9 ; 0 J @.! S u c [ P.*X*X*X*X*X*X*X*X*X*X*X*X*X*X*X*X",
"*X*X*X*X*X*X*X*X*X*X*X*X*X*X*X*X*X*X*X*X*X*X*X*X*X*X*X{./ O O = < = @ = 8 f f 7 # / |.*X*X*X*X*X*X*X&X*X*X*X*X*X*X*X*X*X",
"*X*X*X*X*X*X*X*X*X*X*X*X*X*X*X*X*X*X*X*X*X*X*X*X*X*X*X@X[ o O 7 B 8 @ o @ ; # @ o { XX*X*X*X*X*X*X*X*X*X*X*X*X*X*X*X*X*X",
"*X*X*X*X*X*X*X*X*X*X*X*X*X*X*X*X*X*X*X*X*X*X*X*X*X*X*X X[ & ; b Q f @ o . . . O & } #X%X*X*X*X*X*X*X*X*X*X*X*X*X*X*X*X*X",
"*X*X*X*X*X*X*X*X*X*X*X*X*X*X*X*X*X*X*X*X*X*X*X*X*X*X*X@X} = 5 g J g < O O @ * O & } @X*X*X*X*X*X*X*X*X*X*X*X*X*X*X*X*X&X",
"*X*X*X*X*X*X*X*X*X*X*X*X*X*X*X*X*X*X*X*X*X*X*X*X*X*X*XoX} * 6 f h f 6 @ ; 8 5 > & } @X*X*X*X*X*X*X*X*X&X*X*X*X*X*X*X*X*X",
"*X*X*X*X*X*X*X*X*X*X*X*X*X*X*X*X*X*X*X*X*X*X*X*X*X*X*XoX} * 8 w f f 6 @ < l f 5 , | @X*X*X*X*X&X*X*X*X*X*X&X*X*X*X*X*X*X",
"*X*X*X*X*X*X*X*X*X*X*X*X*X*X*X*X*X*X*X*X*X*X*X*X*X*X*XoX} * : 0 h 0 # @ # 9 5 x 5.I.&X*X*X*X*X*X*X*X*X&X*X*X*X&X*X*X*X*X",
"*X*X*X*X*X*X*X*X*X*X*X*X*X*X*X*X*X*X*X*X*X*X*X*X*X*X*XoX[ & < f G d : @ < n c / ^.*X&X*X*X*X*X*X*X*X*X*X*X*X*X*X*X*X*X*X",
"*X*X*X*X*X*X*X*X*X*X*X*X*X*X*X*X*X*X*X*X*X*X*X*X*X*X*XoX[ = f I ! K d @ D P.^.^.#X*X*X*X*X*X*X*X*X&X*X*X*X*X&X*X&X*X*X*X",
"*X*X*X*X*X*X*X*X*X*X*X*X*X*X*X*X*X*X*X*X*X*X*X*X*X*X*XoX[ = 0 M C l 0 # / @X*X*X*X*X*X*X*X*X*X*X*X*X*X*X*X*X*X*X*X*X*X*X",
"*X*X*X*X*X*X*X*X*X*X*X*X*X*X*X*X*X&X*X*X*X*X*X*X*X*X*XoX[ o & = ; # # @ [ @X*X*X*X*X*X*X*X*X*X&X*X*X*X*X*X*X*X*X&X*X*X&X",
"*X*X*X*X*X*X*X*X*X*X*X*X*X*X*X*X*X*X*X*X*X*X*X*X*X*X*X X[ O . o @ @ * o [ oX*X*X*X*X*X*X*X*X*X*X*X*X*X*X*X*X*X*X*X*X&X*X",
"*X*X*X*X*X*X*X*X*X*X*X*X*X*X*X*X*X*X*X*X*X*X*X*X*X*X*XXX5.w & o o @ * q 0.#X*X*X*X*X*X*X*X*X*X*X*X*X*X*X*X*X*X*X*X&X*X*X",
"*X*X*X*X*X*X*X*X*X*X*X*X*X*X*X*X*X*X*X*X*X*X*X*X*X*X*X*X|.j.w . o X w j.|.&X*X*X*X*X*X*X*X*X*X*X*X*X*X*X*X*X*X*X*X*X&X*X",
"*X*X*X*X*X*X*X*X*X*X*X*X*X*X*X*X*X*X*X*X*X*X*X*X*X*X*X*X*X{.5./ [ / 5.{.*X*X*X*X*X*X*X*X*X*X*X*X*X*X*X*X*X*X*X*X*X*X*X*X",
"*X*X*X*X*X*X*X*X*X*X*X*X*X*X*X*X*X*X*X%X*X*X*X*X*X*X*X*X*X&X#XXXoXoX#X*X*X*X*X*X*X*X*X*X*X*X*X*X*X*X*X*X*X*X*X*X*X*X*X*X",
"*X*X*X*X*X*X*X*X*X*X*X*X*X*X*X*X*X*X*X*X*X*X*X*X*X*X*X*X*X*X*X*X*X*X*X*X*X*X*X*X*X*X*X*X*X*X*X*X*X*X*X*X*X*X*X*X*X*X%X*X",
"*X*X*X*X*X*X*X*X*X*X*X*X*X*X*X*X*X*X*X*X*X*X*X*X*X*X*X*X*X*X*X*X*X*X*X*X*X*X*X*X*X*X*X*X*X*X*X*X*X*X*X*X*X*X&X*X*X*X*X*X",
"*X*X*X*X*X*X*X*X*X%X*X*X*X*X*X*X*X*X*X*X*X*X*X*X*X*X*X*X*X*X*X*X*X*X*X*X&X*X*X*X*X*X*X*X*X*X*X*X*X*X*X*X*X*X*X*X*X*X*X*X",
"*X*X*X*X*X*X*X*X*X*X*X*X*X%X*X*X*X*X*X*X%X*X*X*X*X*X*X*X*X*X*X*X*X*X*X*X*X*X*X*X*X*X*X*X*X*X*X*X*X*X*X*X*X*X*X*X*X*X*X*X",
"*X*X*X*X*X*X*X*X*X*X*X*X*X*X*X*X*X*X*X*X*X*X*X*X*X*X*X*X*X*X*X%X*X*X*X*X*X*X*X*X*X*X*X*X*X*X*X*X*X*X*X*X*X*X*X*X*X*X*X*X",
"*X*X*X*X*X*X*X*X*X*X*X*X*X*X*X*X*X*X*X*X*X*X*X*X*X*X*X*X*X*X*X*X*X*X*X*X*X*X*X*X*X*X*X*X*X*X*X*X*X*X*X*X*X*X*X*X*X*X*X*X",
"*X*X*X*X*X*X*X*X*X*X*X*X*X*X*X*X*X*X*X*X*X*X*X*X*X*X*X*X*X*X*X*X*X*X*X*X*X*X*X*X*X*X*X*X*X*X*X*X*X*X*X*X*X*X*X*X*X*X*X*X"
};
