/* XPM */
static char *result[] = {
/* columns rows colors chars-per-pixel */
"60 60 175 2 ",
"   c #171817",
".  c #171919",
"X  c #1B1C1C",
"o  c #221B19",
"O  c #1F201E",
"+  c #21211F",
"@  c #33231F",
"#  c #1B1F20",
"$  c #1E2121",
"%  c #232422",
"&  c #2A2624",
"*  c #262926",
"=  c #2B2A26",
"-  c #272A29",
";  c #2C2D2A",
":  c #362723",
">  c #3E2925",
",  c #322F2B",
"<  c #2F302D",
"1  c #34322D",
"2  c #38342E",
"3  c #2F3131",
"4  c #343532",
"5  c #3B3631",
"6  c #373837",
"7  c #3D3B35",
"8  c #3C3C39",
"9  c #55332C",
"0  c #423C35",
"q  c #413E39",
"w  c #543C36",
"e  c #663B33",
"r  c #3F403F",
"t  c #43413A",
"y  c #4B463E",
"u  c #54433D",
"i  c #58433D",
"p  c #51493F",
"a  c #77443A",
"s  c #76473D",
"d  c #444443",
"f  c #4C4641",
"g  c #4D4844",
"h  c #4B4B4B",
"j  c #534C43",
"k  c #524E4D",
"l  c #5A5246",
"z  c #55514B",
"x  c #5B544B",
"c  c #4E4F50",
"v  c #4F5152",
"b  c #535454",
"n  c #5B5552",
"m  c #575857",
"M  c #5B5955",
"N  c #565A5A",
"B  c #5C5D5C",
"V  c #60574F",
"C  c #63594D",
"Z  c #685C4F",
"A  c #7A544A",
"S  c #615750",
"D  c #645B52",
"F  c #6A5E52",
"G  c #705F58",
"H  c #6E6255",
"J  c #62605E",
"K  c #6C635B",
"L  c #716455",
"P  c #70665C",
"I  c #75695B",
"U  c #636363",
"Y  c #676665",
"T  c #6F6B64",
"R  c #6C6C6C",
"E  c #736C64",
"W  c #7A6E63",
"Q  c #6F716E",
"!  c #7B746C",
"~  c #7A7571",
"^  c #7C7C7C",
"/  c #8D685C",
"(  c #9B6053",
")  c #A26759",
"_  c #877A6D",
"`  c #847C72",
"'  c #817D7A",
"]  c #A57365",
"[  c #B37A6B",
"{  c #8A8176",
"}  c #84807D",
"|  c #8B837A",
" . c #90867A",
".. c #948A7E",
"X. c #A68D7D",
"o. c #7E7F80",
"O. c #8E8D8C",
"+. c #968C81",
"@. c #968E86",
"#. c #9B9286",
"$. c #9D958A",
"%. c #8D8E90",
"&. c #949494",
"*. c #999592",
"=. c #9E9A97",
"-. c #9D9B9B",
";. c #B99686",
":. c #A59E95",
">. c #A7A097",
",. c #ACA295",
"<. c #A5A09C",
"1. c #AAA59D",
"2. c #B0A69D",
"3. c #B1A99E",
"4. c #9FA0A0",
"5. c #A3A2A2",
"6. c #ABA7A4",
"7. c #ACACAD",
"8. c #B3ACA1",
"9. c #BAB2A5",
"0. c #BDB5AA",
"q. c #B9B4AD",
"w. c #AEADB0",
"e. c #B0AFB2",
"r. c #BBB8B7",
"t. c #CF9585",
"y. c #C8A396",
"u. c #D8A293",
"i. c #C2B6AC",
"p. c #C3BBAD",
"a. c #C5BEB2",
"s. c #C2BEBA",
"d. c #E1BAAC",
"f. c #E3BFB1",
"g. c #C7C1B5",
"h. c #CCC2B4",
"j. c #CCC5BA",
"k. c #CFC9BE",
"l. c #D2CBBF",
"z. c #F9CCBA",
"x. c #C1BEC1",
"c. c #C5C5C4",
"v. c #CCCBCB",
"b. c #D4CEC3",
"n. c #D6D0C7",
"m. c #D8D2C7",
"M. c #D4D1CC",
"N. c #DBD5CC",
"B. c #DED8CE",
"V. c #D5D4D4",
"C. c #D9D7D6",
"Z. c #DEDAD3",
"A. c #D7D8D8",
"S. c #DCDCDD",
"D. c #FFD8C5",
"F. c #E0DFDF",
"G. c #DEE0DE",
"H. c #E6E1D9",
"J. c #EAE6DD",
"K. c #ECE8DF",
"L. c #FFF1DC",
"P. c #DEDFE1",
"I. c #E3E2E2",
"U. c #EBE9E2",
"Y. c #E9E7E8",
"T. c #EBEAEB",
"R. c #F1EDE6",
"E. c #F1EFEA",
"W. c #F4F3EF",
"Q. c #F2EFF0",
"!. c #EFF0F0",
"~. c #F4F4F4",
"^. c #F9F7F5",
"/. c #F7F8F7",
"(. c #FCFCFC",
/* pixels */
"(.(.(.(.(.(.(.(.(.(.(.(.(.(.(.(.(.(.(.(.(./.(.(.(.(.(.(.(.(.(.(.(./.(.(.(.(.(.(.(.(.(.(.(.(.(.(.(.(.(.(.(.(.(.(.(.(.(.(.",
"(.(.(.(.(.(.(.(.(.(.(.(.(.(.(.(.(.(.(.(.(.(.(.(.(.(.(.(.(.(.(.(.(.(.(.(.(.(.(.(.(.(.(.(.(.(.(.(.(.(.(./.(.(.(.(.(.(.(.(.",
"(.(.(.(.(.(.(.(.(.(.(.(.(.(.(.(.(.(.(.(.(.(.(.(.(.(.(.(.(.(.(.(.(.(.(.(.(.(.(.(.(.(.(.(.(.(.(.(.(.(.(.(.(.^.(.(.(.(.(./.",
"(.(.(.(.(.(.(.(.(.(.(.(.(.(.(.(.(.(.(.(.(.(.(.(.(.(.(.(.(.(.(.(.(.(.~.Q.Q.Q.Q.~.(.(.(.(.(.(.(.(.(.(.(.(.(.(.(.(.(.(.(.(.",
"(.(.(.(.(.(.(.(.(.(.(.(.(.(.(.(.(.(.(.(.(.(.(.(.(.(.(.(.(.(.(.(.(.(.:.E ! E K } Y.(.(.(.(.(.(.(.(.(.(.(.(.(.(.(.(.(.(.(.",
"(.(.(.(.(.(.(.(.(.(.(.(.(.(.(.(.(.(.(.(.(.(.(.(.(.(.(.(.(.(.(.(.T.6.g & 2 ; * 2 O.C.(.(.(.(.(.(.(.(.(.(.(./.(.(.(.(.(.(.",
"(.(.(.(.(.(.(.(.(.(.(.(.(.(.(.(.(.(.(.(.(.(.(.(.(.(.(.(.(.(.(.T.e.0 * = 2 4 ; + : O.I.(.(.(.(.(.(.(.(.(.(.(.(.(.(.(.(.(.",
"(.(.(.(.(.(.(.(.(.(.(.(.(.(.(.(.(.(.(.(.(.(.(.(.(.(.(.(.(.(.(.:.q + y E { { ! x % 3 Q T.(.(.^.(.(.(.(.(.^.(.(.(.(.(.^.(.",
"(.(.(.(.(.(.(.(.(.(.(.(.(.(.(.(.(.(.(.(.(.(.(.(.(.(./.(.(.T.:.c 2 E >.g.j.j.g.8.` d 1 ' V.(.(.(.(.(.(.(.(.(.(.(.(.(.(.(.",
"(.(.(.(.(.(.(.(.(.(.(.(.(.(.(.(.(.(.(.(.(.(.(.(.(.(.(.(.(.I.D y T g.H.U.K.K.R.R.b.| t 0 r.(.(.(.(.(.(.(.(.(./.(.(.(.(.(.",
"(.(.(.(.(.(.(.(.(.(.(.(.(.(.(.(.(.(.(.(.(.(.(.(.(.(.(.(./.C.T ` g.N.J.K.J.K.E.~.U.l.$.S q.~.(.(.(.(.(.(.(.(.(.(.(.(.(.(.",
"(.(.(.(.(.(.(.(.(.(.(.(.(.(.(.(.(.(.(.(.(.(.(.(.(.(.(.(.s.~ #.j.k.$.M.~.K.~.H.n.W.T.j.| ! <./.(.(.(.(.(.(.(.(.(.(.(.(.^.",
"(.(.(.(.(.(.(.(.(.(.(.(.(.(.(.(.(.(.(.(.(.(.(.(.(.(.(.(.6.S p.B.9.P g.R.m.R.B.0.B.K.B.,.S ~ (.(.(.(.(.(.(.(.(.^.^.(.(.(.",
"(.(.(.(.(.(.(.(.(.(.(.(.(.(.(.(.(.(.(.(.(.(.(.(.(.(./.P.$.K b.b...j =.n.g.n.l.p.9.k.N.p.G E A.~.(.(.(.(.(.(.(.(.(.(.(.^.",
"(.(.(.(.(.(.(.(.(.(.(.(.(.(.(.(.(.(.(.(.(.(.(.(.(.(.T.~ l ` M.a.! < x >.m.3.0.N.i.,.3.N.@.V M M.(./.(.(.(.(.(.(.(.(.(.(.",
"(.(.(.(.(.(.(.(.(.(.(.(.(.(.(.(.(.(.(.(.(.(.(.(.(.(.Y.n j +.a.,.K 6 1 M :.g.g.3..._ #.B.8.D 5 v.(.(.(.(.(.(.(.(.(.(.(.(.",
"(.(.(.(.(.(.(.(.(.(.(.(.(.(.(.(.(.(.(.(.(.(.(.(.(.(.T.k j ..,.{ l 5 * < z 1.i.#._ H { Z.8.D 5 c.(.(.(.(.(.(.(.(.(.(.(.(.",
"(.(.(.(.(.(.(.(.(.(.(.(.(.(.(.(.(.(.(.(.(.(.(.(.(.(.T.J f E  .P 0 2 7 r 6 H ..,...Z E n.$.j 5 c.(.(.(.(.(.(.(.(.(.(.(.(.",
"(.(.(.(.(.(.(.(.(.(.(.(.(.(.(.(.(.(.(.(.(.(.(.(.(.(.(.V.' 0 I l i ] y.h.g.X./ p y 5 x 9.E , , c.(.(.(.(.(.(.(.(.(./.(./.",
"(.(.(.(.(.(.(.(.(.(.(.(.(.(.(.(.(.(.(.(.(.(.(.(.(.(.(.(.v.' z 7 w ) u.D.L.z.t.A 9 @ t #.l f *.F.(.(.(.(.(.(.(.(.(.(.(.(.",
"(.(.(.(.(.(.(.(.(.(.(.(.(.(.(.(.(.(.(.(.(.(.(.(.(.(.(.(.(.P.d 1 0 9 ( t.d.f.u.] e > q E 0 M V.~.(.(.(.(.(.(.(.(.(.(.(./.",
"(.(.(.(.(.(.(.(.(.(.(.(.(.(.(.(.(.(.(.(.(.(.(./.(.(.(.(.(.A.8 7 y & 9 e s a w ; % j Z ; X % d v./.(.(./.(.(.(.(.(.(.(.(.",
"(.(.(.(.(.(.(.(.(.(.(.(.(.(.(.(.(.(.(.(.(.(.(.(.(.(.(.(.x.J 4 l F 4 : : : o o $ X 7 x l p 1 % b 7.(.(.(.(.(.^.(.(.(.(.(.",
"(.(.(.(.(.(.(.(.(.(.(.(.(.(.(.(.(.(.(.(.(.(.(.(.(.(.~.c.R % y H F < X - t 1 ; * $ * 7 C j 0 & . ^ (.(.(.(.(.(.(.(.(.(.(.",
"(.(.(.(.(.(.(.(.(.(.(.(.(.(.(.(.(.(.(.(.(.(.(.(.(.(.T.b X , H L j 4 $ 7 I L j 5 % O % $ # ; q , ^ Y./.(.(.(.(././.(.(.(.",
"(.(.(.(.(.(.(.(.(.(.(.(.(.(.(.(.(.(.(.(.(.(.(.(.(.(.Y.h   + t S _ >.B = r ;.X.p = X X % - k +.2.' U P.(.(.(.(.(.(.(.(.(.",
"(.(.(.(.(.(.(.(.(.(.(.(.(.(.(.(.(.(.(.(.(.(.(.(.(.(.Q.5.b O g ` p.J.Q O O H F 2 $ B Q + = d ! ,.Y 3 V.(.(.(.(.(.(./.(.(.",
"(.(.(.(.(.(.(.(.(.(.(.(.(.(.(.(.(.(.(.(.(.(.(.(.(.(.(.(.&.= W i.H.M.m . + O X . . 4.A.m ; % 4 n n Y P.(.(.(.(.(.(.(.(.(.",
"(.(.(.(.(.(.(.(.(.(.(.(.(.(.(.(.(.(.(.(.(.(.(.(.(.(.(.(.&.1  .N.M.m + = y r < $ . &.~.I.U # % - o.Y.^.(.(.(.(.(.(.(.(.(.",
"(.(.(.(.(.(.(.(.(.(.(.(.(.(.(.(.(.(.(.(.(.(.(.(.(.(.(.(.S.5.M J N $ O ; t 1 % $ . d O.(.v.7.7.7.V.(.(.(.(.(.(.(.(.(.(.(.",
"(.(.(.(.(.(.(.(.(.(.(.(.(.(.(.(.(.(.(.(.(.(.(.(.(.(.(.(.P.-.3 o > u 2 * 2 = % % X . 8 5.Y.(.(.(.(.(.(.(.(.(.(.(.(.(.(./.",
"(.(.(.(.(.(.(.(.(.(.(.(.(.(.(.(.(.(.(.(.(.(.(.(.(.(./.Y.O.X X 9 s [ u * t < ; 4 - % $ & 5.!.(.(.(.(.(.(.(.(.(.^.(.(./.(.",
"(.(.(.(.(.(.(.(.(.(.(.(.(.(.(.(.(.(.(.(.(.(.(.(.(.(.E.Q 8 , # o : f , , j 7 ; 1 Z t O O 6 } /.(.(.(.(.(.(.(.(.(.(.(.(.(.",
"(.(.(.(.(.(.(.(.(.(.(.(.(.(.(.(.(.(.(.(.(.(.(.(.(.(.~.5.m % O . $ q j f j H H j l t = O B 7.(.(.(.(.(.(.(.(.(.(.(.(.(.(.",
"(.(.(.(.(.(.(.(.(.(.(.(.(.(.(.(.(.(.(.(.(.(.(.(.(.(.(.(.w.d % X % j I Z 7 I _ H = ; t h j.(.(.(.(.(.(.(.(./.(.(.(.(.(.(.",
"(.(.(.(.(.(.(.(.(.(.(.(.(.(.(.(.(.(.(.(.(.(.(.(.(.(.(.(.~.v.r X o 5 j y * 0 y 5 O O c A.!.(.(.(.(.(.(.(.(.(.(.(.(.(.(.(.",
"(.(.(.(.(.(.(.(.(.(.(.(.(.(.(.(.(.(.(.(.(.(.(.(.(.(.(.(.(./.x.m X % ; * X % + + O X v T.(.(.(.(.(.(./.(.(.(.(.(.(.(.(.(.",
"(.(.(.(.(.(.(.(.(.(.(.(.(.(.(.(.(.(.(.(.(.(.(.(.(.(.(.(.(.(.(.o.X * ; * . X % * ; $ v Y.(.(.(.(.(.(.(.(.(.(.(.(.(.(.(.(.",
"(.(.(.(.(.(.(.(.(.(.(.(.(.(.(.(.(.(.(.(.(.(.(.(.(.(.(.(.(.(.(.%.6 4 y 0 X ; 0 y 6 * b T.(.(.(.(.(.(.(.(.(.(.(.(.(.(.(.(.",
"(.(.(.(.(.(.(.(.(.(.(.(.(.(.(.(.(.(.(.(.(.(.(.(.(.(.(.(.(.(.(.I.7.3 - & X % 7 p < O b Y.(.(.(.(.(.(./.(.(.(.(.(.(.(.(.(.",
"(.(.(.(.(.(.(.(.(.(.(.(.(.(.(.(.(.(.(.(.(.(.(.(.(.(.(.(.(.(.(.(.Y.-.&.R O 2 l L y ; b T./.(.(.(.(.(./.(.(.(.(.(.(.(./.(.",
"(.(.(.(.(.(.(.(.(.(.(.(.(.(.(.(.(.(.(.(.(.(.(.(.(.(.(.(.(.(.(.(.(.(.(.e.+ t C J p 1 v Y.(.(.(.(.(.(.(.(./.(.(.(.(.(.(.(.",
"(.(.(.(.(.(.(.(.(.(.(.(.(.(.(.(.(.(.(.(.(.(.(.(.(.(.(.(.(.(.(.(.(.(.(.w.+ + $ - % X c T.(./.(.(.(.(.(./.(.(.(.(.(.(.(.(.",
"(.(.(.(.(.(.(.(.(.(.(.(.(.(.(.(.(.(.(.(.(.(.(.(.(.(.(.(.(.(.(.(.(.(.(.7.X O $ X . . h Y.(.(.(.(.(.(.(.(.(.(.(.(.(.(.(.(.",
"(.(.(.(.(.(.(.(.(.(.(.(.(.(.(.(.(.(.(.(.(.(.(.(.(.(.(.(.(.(.(.(.(.(.(.v.R - O X . d %.!.(.(.(.(.(.(./.(.(.(.(./.(.(.(./.",
"(.(.(.(.(.(.(.(.(.(.(.(.(.(.(.(.(.(.(.(.(.(.(.(.(.(.(.(.(.(.(.(.(.(.(.(.Y.U 4 4 6 4.(.(.(.(.(.(.(.(.(.(.(.(.(.(.(.(.(.(.",
"(.(.(.(.(.(.(.(.(.(.(.(.(.(.(.(.(.(.(.(.(.(.(.(.(.(.(.(.(.(.(.(.(.(.(.(.(.G.V.V.V.T.(.(.(.(.(.(.(.(.(.(.(.(.(.(./.(.(.(.",
"(.(.(.(.(.(.(.(.(.(.(.(.(.(.(.(.(.(.(.(.(.(.(.(.(.(.(.(.(.(.(.(.(.(.(.(.(.(.(.(.(.(.(.(./.(.(.(.(.(.(.(.(.(.(.(.(.(.(.(.",
"(.(.(.(.(.(.(.(.(.(.(.(.(.(.(.(.(.(.(.(.(.(.(.(.(.(.(.(.(.(.(.(.(.(.(.(.(.(.(.(.(.(.(.(.(.(.(.(.(.(.(.(.(.(.(.(.(.(./.(.",
"(.(.(.(.(.(.(.(.(.(.(.(.(.(.(.(.(.(.(.(.(.(.(.(.(.(.(.(.(.(.(.(.(.(.(.(.(.(.(.(.(.(.(.(.(.(.(.(.(.(.(.(.(.(.(.(.(./.(.(.",
"(.(.(.(.(.(.(.(.(.(.(.(.(.(.(.(.(.(.(.(.(.(.(.(.(.(.(.(.(.(.(.(.(.(.(.(.(.(.(.(.(.(.(.(.(.(.(.(.(.(.(.(.(.(.(.(.(.(.(.(.",
"(.(.(.(.(.(.(.(.(.(.(.(.(.(.(.(.(.(.(.(.(.(.(.(.(.(.(.(.(.(.(.(.(.(.(.(.(.(.(.(.(.(.(.(.(.(.(.(.(.(.(.(.(.(.(.(.(.(.(.(.",
"(.(.(.(.(.(.(.(.(.(.(.(.(.(.(.(.(.(.(./.(.(.(.(.(.(.(.(.(.(.(.(.(.(.(.(.(.(.(.(.(.(.(.(.(.(.(.(.(.(.(.(.(.(.(.(.(.(.(./.",
"(.(.(.(.(.(.(.(.(.(.(.(.(.(.(.(.(.(.(.(.(.(.(.(.(.(.(.(.(.(.(.(.(.(.(.(.(.(.(.(.(.(.(.(.(.(.(.(.(.(.(.(.(.(.(.(.(.(./.(.",
"(.(.(.(.(.(.(.(.(.^.(.(.(.(.(.(.(.(.(.(.(.(.(.(.(.(.(.(.(.(.(.(.(.(.(.(.(.(.(.(.(.(.(.(.(.(.(.(.(.(.(.(.(.(./.(.(.(.(.(.",
"(.(.(.(.(.(.(.(.(.(.^.(.(.(.(.(.(.(.(.(.(.(.(.(.(.(.(.(.(.(.(.(.(.(.(.(.(.(.(.(.(.(.(.(.(.(.(.(.(.(.(.(.(.(.(.(.(.(.(.(.",
"(.(.(.(.(.(.(.(.(.(.(.(.(.^.(.(.(.(.(.(.^.(.(.(.(.(.(.(.(.(.(.(.(.(.(.(.(.(.(.(.(.(.(.(.(.(.(.(.(.(.(.(.(.(.(.(.(.(.(.(.",
"(.(.(.(.(.(.(.(.(.(.(.(.(.(.(.(.(.(.(.(.(.(.(.(.(.(.(.(.(.(.(./.(.(.(.(.(.(.(.(.(.(.(.(.(.(.(.(.(.(.(.(.(.(.(.(.(.(.(.(.",
"(.(.(.(.(.(.(.(.(.(.(.(.(.(.(.(.(.(.(.(.(.(.(.(.(.(.(.(.(.(.(.(.(.(.(.(.(.(.(.(.(.(.(.(.(.(.(.(.(.(.(.(.(.(.(.(.(.(.(.(.",
"(.(.(.(.(.(.(.(.(.(.(.(.(.(.(.(.(.(.(.(.(.(.(.(.(.(.(.(.(.(.(.(.(.(.(.(.(.(.(.(.(.(.(.(.(.(.(.(.(.(.(.(.(.(.(.(.(.(.(.(."
};
