/* XPM */
static char *result[] = {
/* columns rows colors chars-per-pixel */
"60 60 183 2 ",
"   c #151616",
".  c #171A1A",
"X  c #1B1C1B",
"o  c #201E1D",
"O  c #291E1C",
"+  c #1D201E",
"@  c #24211F",
"#  c #2A211E",
"$  c #1E2121",
"%  c #232423",
"&  c #2A2522",
"*  c #262926",
"=  c #2B2A26",
"-  c #262A29",
";  c #2C2D2A",
":  c #302A26",
">  c #382823",
",  c #322D29",
"<  c #3E2E2A",
"1  c #2D302C",
"2  c #33322E",
"3  c #3A332E",
"4  c #2F3131",
"5  c #343432",
"6  c #3A3530",
"7  c #373836",
"8  c #3C3B34",
"9  c #343738",
"0  c #363838",
"q  c #393939",
"w  c #4F2A23",
"e  c #4C2E28",
"r  c #512B24",
"t  c #54322A",
"y  c #5F372F",
"u  c #433B35",
"i  c #4B3C35",
"p  c #473B38",
"a  c #433F3B",
"s  c #563D36",
"d  c #454037",
"f  c #45423B",
"g  c #4B443C",
"h  c #4E493F",
"j  c #514A3F",
"k  c #78493F",
"l  c #434444",
"z  c #4C4741",
"x  c #4E4A44",
"c  c #4D4C4B",
"v  c #534C43",
"b  c #594F46",
"n  c #504F48",
"m  c #575145",
"M  c #5A5245",
"N  c #53514D",
"B  c #5D544B",
"V  c #4B4E50",
"C  c #4E5252",
"Z  c #545555",
"A  c #5A5752",
"S  c #565857",
"D  c #5D5953",
"F  c #545758",
"G  c gray35",
"H  c #645A4F",
"J  c #78574D",
"K  c #7A564C",
"L  c #74584E",
"P  c #655C54",
"I  c #6B5E54",
"U  c #665F59",
"Y  c #676057",
"T  c #6C6154",
"R  c #67625D",
"E  c #6D645B",
"W  c #6F685F",
"Q  c #706455",
"!  c #72675B",
"~  c #73685E",
"^  c #7A6B5D",
"/  c #646463",
"(  c #6A6B6B",
")  c #756C63",
"_  c #7A6E64",
"`  c #746F6D",
"'  c #7A7167",
"]  c #777168",
"[  c #7C7269",
"{  c #7A796E",
"}  c #727272",
"|  c #7C7673",
" . c #7A7A79",
".. c #8E594C",
"X. c #856259",
"o. c #A4675A",
"O. c #A06D5F",
"+. c #866E64",
"@. c #827263",
"#. c #80776D",
"$. c #83796F",
"%. c #977868",
"&. c #857D75",
"*. c #887F74",
"=. c #A77063",
"-. c #AD7F73",
";. c #8A8176",
":. c #85807C",
">. c #8D8579",
",. c #91877B",
"<. c #948B7E",
"1. c #AD8175",
"2. c #B98678",
"3. c #7F7F80",
"4. c #838282",
"5. c #8B8683",
"6. c #888887",
"7. c #8E8A88",
"8. c #958D82",
"9. c #938E8C",
"0. c #9B9387",
"q. c #9B9489",
"w. c #929292",
"e. c #9D9894",
"r. c #9A9A98",
"t. c #A0978B",
"y. c #A39A8E",
"u. c #B99C8D",
"i. c #A89F92",
"p. c #A29D9A",
"a. c #ABA294",
"s. c #B1A799",
"d. c #B1A89C",
"f. c #9E9FA0",
"g. c #9FA1A1",
"h. c #A4A2A2",
"j. c #ADA9A6",
"k. c #A7A8AA",
"l. c #ADADAE",
"z. c #B3ACA3",
"x. c #B1AFAF",
"c. c #BBB3A5",
"v. c #BCB4AB",
"b. c #B5B5B5",
"n. c #B7B7B8",
"m. c #BABBBC",
"M. c #D09989",
"N. c #C7A596",
"B. c #DEA693",
"V. c #E3AA9A",
"C. c #C0B9AE",
"Z. c #C2BFBD",
"A. c #E9B3A2",
"S. c #C9C2B6",
"D. c #CAC3BA",
"F. c #CFC9BE",
"G. c #D1CABD",
"H. c #C3C3C3",
"J. c #C9C5C3",
"K. c #CCCCCC",
"L. c #D2CCC2",
"P. c #D7D1C6",
"I. c #DCD7CD",
"U. c #D3D3D4",
"Y. c #DCD9D4",
"T. c #DBDADA",
"R. c #F9D2C2",
"E. c #FDDFCE",
"W. c #E2DDD4",
"Q. c #E2DEDB",
"!. c #E6E2D8",
"~. c #E9E5DD",
"^. c #F7EAD4",
"/. c #E3E3E3",
"(. c #E8E7E6",
"). c #EBE8E2",
"_. c #E9EAEA",
"`. c #F4F1EC",
"'. c #F4F4F4",
"]. c #F9F7F5",
"[. c #F8F7F9",
"{. c #F7F8F8",
"}. c #FCFCFC",
/* pixels */
"}.}.}.}.}.}.}.}.}.}.}.}.}.}.}.}.}.}.}.}.}.}.}.}.}.}.}.}.}.}.}.}.}.].}.}.}.}.}.}.}.}.}.}.}.}.}.[.}.}.}.}.}.}.}.}.}.}.}.}.",
"}.}.}.}.}.}.}.}.}.}.}.}.}.}.}.}.}.}.}.}.}.}.}.}.}.}.}.}.}.}.}.}.}.}.}.}.}.}.}.}.}.}.}.}.}.}.}.}.}.}.}.}.}.}.}.[.}.}.}.}.",
"}.}.}.}.}.}.}.}.}.}.}.}.}.}.}.}.}.}.}.}.}.}.}.}.}.}.}.}.}.}.}.}.}.}.}.}.}.}.}.}.}.}.}.}.}.}.}.}.}.}.}.}.}.}.}.}.}.}.{.}.",
"}.}.}.}.}.}.}.}.}.}.}.}.}.}.}.}.}.}.}.}.}.}.}.}.}.}.}.}.}.}.}.}.}.}.}.}.}.}.}.}.}.}.}.}.}.}.}.}.}.}.}.[.}.}.}.}.}.}.}.}.",
"}.}.}.}.}.}.}.}.}.}.}.}.}.}.}.}.}.}.}.}.}.}.}.}.}.}.}.}.}.}.}.}.}.}.}.}.}.}.}.}.}.}.}.}.[.}.}.}.}.}.}.}.}.}.}.}.}.}.}.}.",
"}.}.}.}.}.}.}.}.}.}.}.}.}.}.}.}.}.}.}.}.}.}.}.}.}.}.}.}.}.}.}.}.}.}.}.}.}.}.}.}.}.}.}.}.}.}.}.}.}.}.}.}.].}.}.}.}.}.}.{.",
"}.}.}.}.}.}.}.}.}.}.}.}.}.}.}.}.}.}.}.}.}.}.}.}.}.}.}.}.}.}.}.}.}.}.}.}.}.}.}.}.}.}.}.}.}.}.}.}.}.}.}.}.}.].}.}.}.}.}.].",
"}.}.}.}.}.}.}.}.}.}.}.}.}.}.}.}.}.}.}.}.}.}.}.}.}.}.}.}.}.}.}.}.}.}.}.}.}.}.}.}.}.}.}.}.}.}.}.}.}.}.}.}.}.}.}.}.}.}.}.}.",
"}.}.}.}.}.}.}.}.}.}.}.}.}.}.}.}.}.}.}.}.}.}.}.}.}.}.{.}.}.}.}.}.}.}.}.}.}.}.}.}.}.}.}.}.}.}.}.}.}.}.}.}.}.}.}.}.}.}.}.}.",
"}.}.}.}.}.}.}.}.}.}.}.}.}.}.}.}.}.}.}.}.}.}.}.}.}.}.}.}.}.}.}.}.}.}.}.}.}.}.}.}.}.}.}.}.}.}.}.}.}.}.}.}.}.}.}.}.}.}.}.}.",
"}.}.}.}.}.}.}.}.}.}.}.}.}.}.}.}.}.}.}.}.}.}.}.}.}.}.}.}.}.}.}.}.}.}.}.}.}.}.}.}.}.}.}.}.}.}.}.}.}.}.}.}.}.}.}.}.}.}.}.].",
"}.}.}.}.}.}.}.}.}.}.}.}.}.}.}.}.}.}.}.}.}.}.}.}.}.}.}.}.}.}.}.}.}.}.}.}.}.}.}.}.}.}.}.}.}.}.}.}.}.}.}.}.}.}.].}.].}.}.}.",
"}.}.}.}.}.}.}.}.}.}.}.}.}.}.}.}.}.}.}.}.}.}.}.}.{.}.}.}.}.}.}.}.}.[.}.}.}.}.}.}.}.}.}.}.}.}.}.}.}.}.}.}.}.}.].}.}.}.}.}.",
"}.}.}.}.}.}.[.}.}.}.}.}.}.}.}.}.}.}.}.}.}.}.}.}.}.}.}.{.'.'.'.'.[.}.}.}.}.}.}.}.}.}.}.}.}.}.}.}.}.}.}.}.}.}.}.}.}.}.}.}.",
"}.}.}.}.}.}.}.}.}.}.}.}.}.}.}.}.}.}.}.}.}.}.}.}.}.}.T.,.| | ` /  ._.}.}.}.}.}.}.}.}.}.}.}.}.}.}.}.].}.}.}.}.}.}.}.}.].}.",
"}.}.}.}.}.}.}.}.}.}.}.}.}.}.}.}.}.}.}.}.}.}.}.}.}.U.6.3 : = & 2 z h.x.T.}.}.}.}.}.}.}.}.}.}.}.}.}.}.}.}.}.}.}.}.}.}.}.}.",
"}.}.}.}.}.}.}.}.}.}.}.}.}.}.}.}.}.}.}.}.}.}.}.}.'.6.o % ; ; ; z P 6 & 7.].}.}.}.}.}.}.}.}.}.}.}.}.}.}.}.}.}.}.}.}.}.}.}.",
"}.}.}.}.}.}.}.}.}.}.}.}.}.}.}.}.}.}.}.}.}.}.}.}.3.c P ) ' Y 8 ; z B g z 9.}.}.}.}.}.}.}.}.}.}.}.}.}.}.}.}.}.}.}.[.}.}.[.",
"}.}.}.}.}.}.}.}.}.}.}.}.}.}.}.}.}.}.}.}.}.}.'.b.R ! y.C.C.z.>.n 5 E ) B U k.'.}.}.}.}.}.}.}.}.}.}.}.}.}.}.}.}.}.}.}.}.}.",
"}.}.}.}.}.}.}.}.}.}.}.}.}.}.}.}.}.}.}.}.}.}.(.P &.s.F.~.!.).I.q.f P ,.>.P v /.}.}.}.}.}.}.}.}.}.}.}.}.}.}.}.}.}.}.}.}.}.",
"}.}.}.}.}.}.}.}.}.}.}.}.}.}.}.}.}.}.}.}.}.}.(.P 0.G.!.!.S.).`.L.0.v 8.a._ P (.[.}.}.}.}.}.}.}.}.}.}.}.}.}.}.}.}.}.}.}.}.",
"}.}.}.}.}.}.}.}.}.}.}.}.}.}.}.}.}.}.}.}.}.Q.e.:.,.D.`.~.W.I.).`.D.n *.s.t._ 5.T.}.}.}.}.}.}.}.}.}.}.}.}.}.}.}.}.}.}.[.}.",
"}.}.}.}.}.}.}.}.}.}.}.}.}.}.}.}.}.}.}.}.}.H.H c.$.j.`.!.].S.J.`.I.! +.i.c.8.v p.(.}.}.}.}.}.}.}.}.}.[.}.}.}.}.}.}.}.}.}.",
"}.}.}.}.}.}.}.}.}.}.}.}.}.}.}.}.}.}.}.}.}.Z.P L.[ q.I.S.W.d.a.F.Y.0._ <.C.a._ z r.}.}.}.}.}.}.}.}.[.}.}.}.}.}.}.}.}.[.}.",
"}.}.}.}.}.}.}.}.}.}.}.}.}.}.}.}.}.}.}.}.b.A z c.A A z.P.z.d.i.c.W.t.I ,.a._ *.B y.}.}.}.}.}.}.}.}.}.}.}.}.}.}.}.[.}.}.}.",
"}.}.}.}.}.}.}.}.}.}.}.}.}.}.}.}.}.}.}.}.w.= p t.c 2 ] v.a.y.<.y.L.i.B ) >.z ! H &.H.}.}.}.}.}.}.}.}.}.}.[.}.{.}.}.}.}.}.",
"}.}.}.}.}.}.}.}.}.}.}.}.}.}.}.}.}.}.}.}.r.3 u &.m - 8 ] a.;.W $.c.c.B v Q g 3 H x ` }.}.}.}.}.}.[.}.[.}.}.}.}.}.}.}.}.}.",
"}.}.}.}.}.}.}.}.}.}.}.}.}.}.}.}.}.}.}.}.r.2 , ! a * ; ; x $.~ T i.L.A g E g & u :.U.}.}.}.}.}.}.}.[.}.}.}.}.}.}.}.}.[.}.",
"}.}.}.}.}.}.}.}.}.}.}.}.}.}.}.}.}.}.}.}.w.- & B L +.>.{ L I M b #.D.H p B u # # w.}.}.}.}.}.}.}.}.}.}.}.}.}.}.}.}.}.}.}.",
"}.}.}.}.}.}.}.}.}.}.}.}.}.}.}.}.}.}.}.}.f.4 & p O.V.E.^.B.J i g b i.B , u : @ 3 h.}.}.}.}.}.}.}.}.}.}.}.}.}.}.}.}.}.}.}.",
"}.}.}.}.}.}.}.}.}.}.}.}.}.}.}.}.}.}.}.}.`.h.% & y o.A.E.R.M...t p ,.g o X X @ h.'.}.}.}.}.}.}.}.}.}.}.}.}.}.}.}.}.}.[.}.",
"}.}.}.}.}.}.}.}.}.}.}.}.}.}.}.}.}.}.}.}.}.m.$ + O k o.-.1.X.s > = j g : X . @ / H.}.}.}.}.}.}.}.}.}.}.}.}.}.}.}.}.}.}.[.",
"}.}.}.}.}.}.}.}.}.}.}.}.}.}.}.}.}.}.}.}.}.K.C * * < r w w O + $ + % v g % 1 8 @ ( T.}.}.}.}.}.}.}.}.}.}.}.}.}.}.}.}.}.}.",
"}.}.}.}.}.}.}.}.}.}.}.}.}.}.}.}.}.}.}.}.}.}.U.q d 8 o X % % $ $ $ 5 T v 1 m ! u + ( ].}.{.}.}.}.}.}.}.}.}.}.}.}.}.}.}.[.",
"}.}.}.}.}.}.}.}.}.}.}.}.}.}.}.}.}.}.}.}.}.}.].n.Z , * X ; M b 8 ; % 3 ; % 8 h g = S }.}.}.}.}.}.}.}.}.}.}.}.}.}.}.}.}.}.",
"}.}.}.}.}.}.}.}.}.}.}.}.}.}.}.}.}.}.}.}.}.}.}.}.w.l * 5 _ %.%.@.d X Z l * f W 8.E N b.].}.}.}.}.}.}.}.}.}.{.}.}.}.}.}.}.",
"}.}.}.}.}.}.}.}.}.}.}.}.}.}.}.}.}.}.}.}.}.}.}.}.}.9.- z N.=.2.u.j % l.4.; [ v.Q.v.P 0 /.}.}.}.}.}.{.}.}.}.}.}.}.}.}.}.}.",
"}.}.}.}.}.}.}.}.}.}.}.}.}.}.}.}.}.}.}.}.}.}.}.}.}./.w.% a < p a * @ l 5 X 9 D Z h.j.9 !.}.}.}.}.}.}.}.}.}.}.}.}.}.}.}.}.",
"}.}.}.}.}.}.}.}.}.}.}.}.}.}.}.}.}.}.}.}.}.}.}.}.}.}.T.} o X ; ; % $ * @     @   / 4.7 /.}.}.}.}.}.}.}.}.}.}.}.}.}.}.}.}.",
"}.}.}.}.}.}.}.}.}.}.}.}.}.}.}.}.}.}.}.}.}.}.}.}.}.}.}./.9 - d v 8 % 6 7 * @ . X - 5 Z /.}.}.}.}.}.}.}.}.}.{.}.}.}.}.}.}.",
"}.}.}.}.}.}.}.}.}.}.}.}.}.}.}.}.}.}.}.}.}.}.}.}.}.}.}./.0 $ % 2 j 8 = j Q g X   X F T.[.}.}.}.}.}.}.}.}.}.{.}.}.}.}.}.}.",
"}.}.}.}.}.}.}.}.}.}.}.}.}.}.}.}.}.}.}.}.}.}.}.}.}.}.T. .7 i K L u ! P m m h % } r.b.[.}.}.}.}.}.}.{.}.}.}.}.}.}.}.}.}.}.",
"}.}.}.}.}.}.}.}.}.}.}.}.}.}.}.}.}.}.}.}.}.}.}.}.}.}.m.% 2 k o...@ ^ @.f % 8 Z K.}.}.}.}.}.}.}.}.}.}.}.}.}.}.}.}.}.}.}.}.",
"}.}.}.}.}.}.}.}.}.}.}.}.}.}.}.}.}.}.}.}.}.}.}.}.}.}.m.- * t e % $ * 7 ; . 6 K.}.}.}.}.}.}.}.}.}.}.}.}.}.}.}.{.}.}.[.}.}.",
"}.}.}.}.}.}.}.}.}.}.}.}.}.}.}.}.}.}.}.}.}.}.}.}.}.}._.g.4 # i m 6 % $ + X * / U.}.}.}.}.}.}.}.}.}.}.}.}.}.}.[.}.}.[.}.}.",
"}.}.}.}.}.}.}.}.}.}.}.}.}.}.}.}.}.}.}.}.}.}.}.}.}.}.}./.9 X h T 8 % . . + - $ 4.T.}.}.}.}.}.}.}.}.}.}.}.}.}.}.}.}.}.}.}.",
"}.}.}.}.}.}.}.}.}.}.}.}.}.}.}.}.}.}.}.}.}.}.}.}.}.}.}./.5 ; h m 7 @ . X = 6 * . 4.'.}.}.}.}.}.}.}.}.}.}.}.}.}.}.}.}.}.}.",
"}.}.}.}.}.}.}.}.}.}.}.}.}.}.}.}.}.}.}.}.}.}.}.}.}.}.{./.5 1 f f 3 X . . + - % $ 4 4.{.}.}.}.}.{.}.}.}.}.}.}.}.[.}.}.}.[.",
"}.}.}.}.}.}.}.}.}.}.}.}.}.}.}.}.}.}.}.}.}.}.}.}.}.}.}.!.4 * 8 8 ; X / c . % ; $ X G {.}.}.}.}.}.}.}.}.}.}.}.}.}.}.{.}.{.",
"}.}.}.}.}.}.}.}.}.}.}.}.}.}.}.}.}.}.}.}.}.}.}.}.}.}.].H.4 % 8 a @ + H.w.X - 8 - X G {.}.}.}.}.}.}.}.}.}.}.}.}.}.}.}.}.}.",
"}.}.}.}.}.}.}.}.}.}.}.}.}.}.}.}.}.}.}.}.}.}.}.}.}.}.J.q % d M h % + Z.w.+ 7 m 2 X G }.}.}.}.}.}.}.}.}.}.}.}.}.}.}.}.}.}.",
"}.}.}.}.}.}.}.}.}.}.}.}.}.}.}.}.}.}.}.}.}.}.}.}.}.}.m.+ d T H 8 + + m.U.} ; 7 % F b.}.}.}.}.}.}.}.}.}.}.}.}.}.[.}.{.}.].",
"}.}.}.}.}.}.}.}.}.}.}.}.}.}.}.}.}.}.}.].}.}.}.}.}.}.K.C h T v * $ c K.}.K.S C V k.}.}.}.}.}.}.}.}.}.}.}.}.}.}.}.}.}.}.}.",
"}.}.}.}.}.}.}.}.}.}.}.}.}.}.}.}.}.}.}.}.}.}.}.}.}.}.}.U.l 8 7 + 7 U.}.}.]._._._.{.}.}.}.}.}.}.}.}.}.}.}.}.}.}.}.}.}.}.}.",
"}.}.}.}.}.}.}.}.}.}.}.}.}.}.}.}.}.}.}.}.}.}.}.}.}.}.}.'.n.b.b.x.n.'.}.}.{.}.}.}.}.}.}.}.}.}.}.}.}.}.}.}.}.}.}.[.}.}.}.}.",
"}.}.}.}.}.}.}.}.}.}.].}.}.}.}.}.}.}.}.}.}.}.}.}.}.}.[.}.}.}.}.}.}.}.}.}.}.}.}.}.}.}.}.}.}.}.}.}.}.}.}.}.}.}.}.}.}.}.}.}.",
"}.}.}.}.}.}.}.}.}.}.}.}.}.}.].}.}.}.}.}.}.}.}.}.}.}.}.}.}.}.}.].}.}.}.}.}.}.}.}.}.}.}.}.}.}.}.}.}.}.}.}.}.}.}.}.}.}.}.}.",
"}.}.}.}.}.}.}.}.}.}.}.}.}.}.}.}.}.}.}.}.}.}.}.}.}.}.}.}.}.}.}.}.}.}.}.}.}.}.}.}.}.}.[.}.}.}.}.}.}.}.}.}.}.}.}.}.}.}.}.}.",
"}.}.}.}.}.}.}.}.}.}.}.}.}.}.}.}.}.}.}.}.].}.}.}.}.}.}.}.}.}.}.}.}.}.}.}.}.}.}.}.}.}.}.}.}.}.}.}.}.}.}.}.}.}.}.}.}.}.}.}.",
"}.}.}.}.}.}.}.}.}.}.}.}.}.}.}.}.}.}.}.}.}.}.}.}.}.}.}.}.}.}.}.}.}.}.}.}.}.}.}.}.}.}.}.}.}.}.}.}.}.}.}.}.}.}.}.}.}.}.}.}."
};
