/* XPM */
static char *result[] = {
/* columns rows colors chars-per-pixel */
"60 60 166 2 ",
"   c #161717",
".  c #171A19",
"X  c #1A1C1B",
"o  c #221D1C",
"O  c #2B1F1D",
"+  c #1F201E",
"@  c #22211F",
"#  c #29201E",
"$  c #1C1F20",
"%  c #1E2121",
"&  c #232422",
"*  c #2A2523",
"=  c #262825",
"-  c #2B2A26",
";  c #272A2B",
":  c #2B2D2A",
">  c #312B27",
",  c #332F29",
"<  c #392C28",
"1  c #2F302D",
"2  c #33322D",
"3  c #39322D",
"4  c #302F30",
"5  c #343432",
"6  c #3B3732",
"7  c #3C3A34",
"8  c #363939",
"9  c #3B3C3A",
"0  c #573029",
"q  c #5F332B",
"w  c #423C35",
"e  c #413E38",
"r  c #683B33",
"t  c #45423A",
"y  c #4C453D",
"u  c #4E483F",
"i  c #54433B",
"p  c #5B463D",
"a  c #64453C",
"s  c #74473E",
"d  c #434342",
"f  c #4D4741",
"g  c #4F4A41",
"h  c #4C4B4B",
"j  c #5B4741",
"k  c #534C43",
"l  c #514D4A",
"z  c #584F48",
"x  c #555045",
"c  c #5A5246",
"v  c #56534E",
"b  c #5B534B",
"n  c #4F5050",
"m  c #555554",
"M  c #5E5751",
"N  c #555856",
"B  c #5E5954",
"V  c #5B5C5D",
"C  c #60574C",
"Z  c #62594D",
"A  c #635B52",
"S  c #695E53",
"D  c #605D5B",
"F  c #6C6155",
"G  c #65605D",
"H  c #6E645B",
"J  c #70665D",
"K  c #74685C",
"L  c #7B6D5C",
"P  c #646362",
"I  c #6A6661",
"U  c #6F6962",
"Y  c #6B6B6B",
"T  c #736A61",
"R  c #796F66",
"E  c #776E68",
"W  c #787168",
"Q  c #7E756B",
"!  c #6F7070",
"~  c #787572",
"^  c #7C7E7D",
"/  c #92675B",
"(  c #956B5E",
")  c #A36B5E",
"_  c #847463",
"`  c #83796E",
"'  c #907D6B",
"]  c #847C73",
"[  c #867E78",
"{  c #9C7D77",
"}  c #A77669",
"|  c #AF7768",
" . c #8A8176",
".. c #8A857C",
"X. c #90867D",
"o. c #93897E",
"O. c #878887",
"+. c #848788",
"@. c #8A8A8A",
"#. c #908783",
"$. c #938C85",
"%. c #988F82",
"&. c #9D9489",
"*. c #939292",
"=. c #9B9693",
"-. c #9E9996",
";. c #979798",
":. c #A1978B",
">. c #A2998C",
",. c #A89E90",
"<. c #ADA294",
"1. c #AEA59B",
"2. c #B2AA9C",
"3. c #A9A4A0",
"4. c #AAA8A7",
"5. c #A7A7A9",
"6. c #ACACAC",
"7. c #B3ABA3",
"8. c #BAAEA2",
"9. c #B0ACA8",
"0. c #BAB2A4",
"q. c #BEB6A9",
"w. c #B5B4B4",
"e. c #BCBCBC",
"r. c #C48E80",
"t. c #CFA699",
"y. c #DCA292",
"u. c #D5ADA0",
"i. c #C0B0AD",
"p. c #C1BAAC",
"a. c #C4BDB2",
"s. c #E9B5A4",
"d. c #BFC0BF",
"f. c #C9C2B7",
"g. c #C9C3BA",
"h. c #D0CABE",
"j. c #BFC0C1",
"k. c #C3C2C2",
"l. c #C6C8C8",
"z. c #CCCCCC",
"x. c #D4CEC3",
"c. c #D5D2CF",
"v. c #DCD5CB",
"b. c #DED9CE",
"n. c #D8D7D6",
"m. c #DFDBD4",
"M. c #FDDFCC",
"N. c #E2DDD3",
"B. c #E0DEDC",
"V. c #E4E1DC",
"C. c #E9E5DD",
"Z. c #FEEAD6",
"A. c #E3E3E2",
"S. c #E8E7E6",
"D. c #EEEBE4",
"F. c #ECEBEC",
"G. c #F0EDE5",
"H. c #F1EEEA",
"J. c #EFF0ED",
"K. c #F4F2EE",
"L. c #F4F4F4",
"P. c #F8F9F7",
"I. c #F6F7F8",
"U. c #F8F7F8",
"Y. c #F7F8F9",
"T. c #FCFCFC",
/* pixels */
"T.T.T.T.T.T.T.T.T.T.T.T.T.T.T.T.T.T.T.T.T.P.T.T.T.T.T.T.T.T.T.T.P.T.T.T.T.T.T.T.T.T.T.T.T.T.T.T.U.T.T.T.T.T.T.T.T.T.T.T.",
"T.T.T.T.T.T.T.T.T.T.T.T.T.T.T.T.T.T.T.T.T.T.T.T.T.T.T.T.T.T.T.T.T.T.T.T.T.T.T.T.T.T.T.T.T.T.T.T.T.T.T.Y.T.T.U.T.P.T.T.T.",
"T.T.T.T.T.T.T.T.T.T.T.T.T.T.T.T.T.T.T.T.T.T.T.T.T.T.T.T.T.T.T.T.T.T.T.T.T.U.T.T.T.T.T.T.T.T.T.T.T.T.T.T.T.T.T.T.T.T.P.T.",
"T.T.T.T.T.T.T.T.T.T.T.T.T.T.T.T.T.T.T.T.T.T.T.T.T.T.T.T.T.T.T.T.T.T.T.T.T.T.T.T.T.T.T.T.T.T.T.T.T.T.T.T.T.T.T.T.T.T.T.T.",
"T.T.T.T.T.T.T.T.T.T.T.T.T.T.T.T.T.T.T.T.T.T.T.T.T.T.T.T.T.T.T.T.T.T.T.T.T.T.T.T.T.T.T.T.T.T.T.T.T.T.T.T.P.T.T.T.T.T.T.T.",
"T.T.T.T.T.T.T.T.T.T.T.T.T.T.T.T.T.T.T.T.T.T.T.T.T.T.T.T.T.T.T.T.T.T.T.T.T.T.T.T.T.T.T.T.T.T.T.T.T.T.T.T.T.T.T.T.T.T.T.T.",
"T.T.T.T.T.T.T.T.T.T.T.T.T.T.T.T.T.T.T.T.T.T.T.T.T.T.T.T.T.T.T.T.T.T.T.T.T.T.T.T.T.T.T.T.T.T.P.T.T.T.T.T.T.P.T.T.T.T.T.T.",
"T.T.T.T.T.T.T.T.T.T.T.T.T.T.T.T.T.T.T.T.T.T.T.T.T.T.T.T.T.T.T.T.T.T.T.T.T.T.T.T.T.T.T.T.T.T.T.T.T.T.T.T.T.P.T.T.T.T.P.T.",
"T.T.T.T.T.T.T.T.T.T.T.T.T.T.T.T.T.T.T.T.T.T.T.T.T.T.P.T.T.T.T.T.T.T.T.T.T.T.T.T.T.T.T.T.T.T.T.T.T.T.T.T.T.T.T.T.T.T.T.T.",
"T.T.T.T.T.T.T.T.T.T.T.T.T.T.T.T.T.T.T.T.T.T.T.T.T.T.T.T.T.T.T.T.T.T.T.T.T.T.T.T.T.T.T.T.T.T.T.T.T.T.T.T.T.P.T.T.T.T.T.T.",
"T.T.T.T.T.T.T.T.T.T.T.T.T.T.T.T.T.T.T.T.T.T.T.T.T.T.T.T.T.T.T.Y.T.T.T.T.T.T.T.T.T.T.T.T.T.T.T.T.T.T.T.T.T.T.T.T.T.T.T.T.",
"T.T.T.T.T.T.T.T.T.T.T.T.T.T.T.T.T.T.T.T.T.T.T.T.T.T.T.T.T.T.T.T.T.T.T.T.T.T.T.T.T.T.T.T.T.T.T.T.T.T.T.T.T.T.P.T.T.T.P.T.",
"T.T.T.T.T.T.T.T.T.T.T.T.T.T.T.T.T.T.T.T.T.T.T.T.T.T.T.T.T.T.T.T.T.T.T.T.T.T.T.T.T.T.T.T.T.T.T.T.T.T.T.P.T.T.T.T.P.T.P.T.",
"T.T.T.T.T.T.T.T.T.T.T.T.T.T.T.T.T.T.T.T.T.T.T.T.Y.A.k.g.j.d.e.z.T.T.T.T.T.T.T.T.T.T.T.T.T.T.T.T.T.T.T.T.T.T.T.T.T.T.T.T.",
"T.T.T.T.T.T.T.T.T.T.T.T.T.T.T.T.T.T.T.T.T.T.T.T.F.*.w 3 3 - # G A.I.T.T.T.T.T.T.T.T.T.T.T.T.T.T.P.T.T.T.T.T.T.T.T.T.P.T.",
"T.T.T.T.T.T.T.T.T.T.T.T.T.T.T.T.T.T.T.T.T.T.T.I.E & @ = = 1 k b m A.T.T.T.T.T.T.T.T.T.T.T.T.T.T.T.T.T.T.T.T.T.T.T.T.T.T.",
"T.T.T.T.T.T.T.T.T.T.T.T.T.T.T.T.T.T.T.T.T.T.F.Y l A K U b 2 5 x b U c.T.T.T.T.T.T.T.T.T.T.T.T.T.T.T.T.T.T.T.T.T.T.T.T.T.",
"T.T.T.T.T.T.T.T.T.T.T.T.T.T.T.T.T.T.T.T.T.A.=.B ] 1.f.a.7.] t t ` z [ z.T.T.T.T.T.T.T.T.T.T.T.T.T.T.T.T.T.T.T.T.T.T.U.T.",
"T.T.T.T.T.T.T.T.T.T.T.T.T.T.T.T.T.T.T.T.S.3.F :.p.v.C.N.J.b...v Q  .k =.T.T.T.T.T.T.T.T.T.T.T.T.T.T.T.T.T.T.T.T.T.T.T.U.",
"T.T.T.T.T.T.T.T.T.T.T.T.T.T.T.T.T.T.T.T.3.S :.2.v.D.b.f.J.G.v.&.v >.T -.J.T.T.T.T.T.T.T.T.T.T.T.T.T.T.T.T.T.T.T.T.T.T.T.",
"T.T.T.T.T.T.T.T.T.T.T.T.T.T.T.T.T.T.T.T.9.X.x.[ c.K.D.G.f.v.K.V.,.S %.' #.T.T.T.T.T.T.T.T.T.T.T.T.T.T.T.T.T.T.T.T.T.Y.T.",
"T.T.T.T.T.T.T.T.T.T.T.T.T.T.T.T.T.T.T.*.E >.q.F g.N.x.C.<.0.N.G.x.[ ] R #.T.T.T.T.T.T.T.T.T.T.T.T.T.T.Y.T.T.T.T.T.T.T.T.",
"T.T.T.T.T.T.T.T.T.T.T.T.T.T.T.T.T.T.T.I J <. .e ..f.h.0.<.,.q.v.N.7.T J X.9.K.U.T.T.T.T.T.T.Y.T.T.T.T.Y.T.T.T.T.T.T.T.U.",
"T.T.T.T.T.T.T.T.T.T.T.T.T.T.T.T.T.T.T.P T >.Z : t $.f.>.,.o.o.f.N.8.A H ` A S.T.T.T.T.T.T.T.T.T.T.T.T.T.T.T.U.T.T.T.T.T.",
"T.T.T.T.T.T.T.T.T.T.T.T.T.T.T.T.T.T.U.D M ` y 6 = t Q >.Q K Q 1.m.&.t A E f A.T.T.T.T.T.T.T.T.T.T.T.T.T.T.T.T.T.T.T.T.T.",
"T.T.T.T.T.T.T.T.T.T.T.T.T.T.T.T.T.T.U.D f S < - 5 5 : 7 ] S b &.v.` < k A e A.T.T.T.T.T.T.T.T.T.T.T.T.T.Y.T.Y.T.T.T.T.T.",
"T.T.T.T.T.T.T.T.T.T.T.T.T.T.T.T.T.T.Y.D 6 y < ( <.p.<./ j y t K 0.z w C b 9 A.T.T.T.T.T.T.T.T.T.T.Y.T.T.T.T.T.T.T.U.T.T.",
"T.T.T.T.T.T.T.T.T.T.T.T.T.T.T.T.T.T.Y.w.B g #.) y.M.Z.s.( i , c %.6 i z M -.H.T.T.T.T.T.T.T.T.T.Y.T.Y.T.T.T.T.T.T.T.T.T.",
"T.T.T.T.T.T.T.T.T.T.T.T.T.T.U.T.T.T.T.T.4.@.D.{ ) r.u.t.} p , e T I #.~ @.P.T.T.T.T.T.T.T.T.T.T.T.T.T.T.T.T.T.T.T.T.T.T.",
"T.T.T.T.T.T.T.T.T.T.T.T.T.T.T.T.T.T.T.T.T.U.T.Y.{ r q 0 @ y w X 6 l.L.T.T.T.T.T.T.T.T.T.T.T.T.T.T.T.T.T.T.T.T.T.T.T.T.T.",
"T.T.T.T.T.T.T.T.T.T.T.T.T.T.T.T.T.T.T.T.T.T.T.T.L.[ o & X Z C - X 5 k.T.T.T.T.T.T.T.T.T.T.T.T.T.T.T.T.T.T.T.T.T.Y.T.U.T.",
"T.T.T.T.T.T.T.T.T.T.T.T.T.T.T.T.T.T.T.T.T.T.T.T.@.8 X & X k L c X X d 6.T.T.T.T.T.T.T.T.T.T.T.T.T.T.T.U.T.T.T.P.T.T.T.T.",
"T.T.T.T.T.T.T.T.T.T.T.T.T.T.T.T.T.T.T.T.T.T.F.*.4   X X   - y t X + = N 6.T.T.T.T.T.T.U.T.T.T.T.T.T.T.T.T.T.T.T.T.T.T.T.",
"T.T.T.T.T.T.T.T.T.T.T.T.T.T.T.T.T.T.T.T.T.F.6.P m 5 X @ * & + X . @ 1 2 m j.L.T.T.T.T.T.T.T.T.T.T.T.T.T.T.T.T.T.T.T.T.T.",
"T.T.T.T.T.T.T.T.T.T.T.T.T.T.T.T.T.T.T.T.L.6.v B.v.W , t k t &   . X & u b d z.L.T.T.T.T.T.T.T.T.T.T.T.T.T.T.T.T.T.T.T.T.",
"T.T.T.T.T.T.T.T.T.T.T.T.T.T.T.T.T.T.T.T.*.D m.v.G x L K t = X   X . = ] 7.U f l.T.U.T.T.T.T.T.T.T.T.T.T.T.T.T.T.T.T.T.T.",
"T.T.T.T.T.T.T.T.T.T.T.T.T.T.T.T.T.T.T.T.+.d 1.8.` k e 7 & X X + X + + 5 U o.5 e.T.T.T.T.T.T.T.T.T.T.Y.T.T.T.T.T.T.T.T.T.",
"T.T.T.T.T.T.T.T.T.T.T.T.T.T.T.T.T.T.T.T.l.! f m k 2 . X X * : = : % = X : b ; e.T.T.T.T.T.T.T.T.T.T.T.T.T.T.T.T.T.T.T.T.",
"T.T.T.T.T.T.T.T.T.T.T.T.T.T.T.T.T.T.T.T.T.z.V N N V h O X e 7 : 2 1 1 : + X m z.T.T.T.T.P.T.T.T.T.T.Y.T.T.T.T.T.T.T.T.T.",
"T.T.T.T.T.T.T.T.T.T.T.T.T.T.T.T.T.T.T.T.T.T.I.T.T.L.i.r & t k 2 1 x 2 + % h A.T.T.T.T.U.T.T.T.T.T.T.T.T.T.Y.T.T.T.T.U.T.",
"T.T.T.T.T.T.T.T.T.T.T.T.T.T.T.T.T.T.T.T.T.T.T.T.T.*.p | > 3 k f e L x * n m.P.T.T.T.T.T.T.T.T.T.T.T.T.T.T.T.T.T.Y.T.T.T.",
"T.T.T.T.T.T.T.T.T.T.T.T.T.T.T.T.T.T.T.T.T.T.T.Y.@.5 * p s < b ' F t : X ; ! F.T.T.T.T.T.T.U.T.T.T.T.T.Y.T.T.T.T.T.T.T.T.",
"T.T.T.T.T.T.T.T.T.T.T.T.T.T.T.T.T.T.T.T.T.T.T.P.N   , C a O f _ C @ & + X ; ^ @.@.@.;.J.T.T.T.T.T.T.T.Y.T.Y.T.T.T.T.T.T.",
"T.T.T.T.T.T.T.T.T.T.T.T.T.T.T.T.T.T.T.T.T.T.L.g.h : c K ;   > e 2 @ : : 1 7 - @ X X : 5.F.T.T.T.T.T.T.T.T.T.T.T.T.T.T.T.",
"T.T.T.T.T.T.T.T.T.T.T.T.T.T.T.T.T.T.T.T.T.P.z.5 2 Z Z % $ : 5 5 2 & + = y K c t 2 = $ % e.T.T.T.T.T.T.T.T.T.T.P.T.T.Y.T.",
"T.T.T.T.T.T.T.T.T.T.T.T.T.T.T.T.T.T.T.T.T.d.5 - y g 7 % $ 5.F.A.z.5 . % & 2 7 t u u 5 & e.T.T.T.T.T.Y.T.T.T.T.T.T.T.T.T.",
"T.T.T.T.T.T.T.T.T.T.T.T.T.T.T.T.T.T.T.T.6.l u Z t 1 & 1 5.F.T.T.L.k.e.Y X . + : 7 k F 7 j.T.T.T.T.T.T.T.T.T.T.T.T.T.T.T.",
"T.T.T.T.T.T.T.T.T.T.T.T.T.T.T.T.T.T.T.T.O.@ t b y 1 X 5 S.T.T.T.T.T.T.k.O.O.O.9 + 7 F 5 e.T.T.P.T.T.T.T.T.T.T.T.T.T.P.T.",
"T.T.T.T.T.T.T.T.T.T.T.T.T.T.T.T.T.T.T.T.6.d % ; t 5 ; Y F.T.T.T.T.T.T.T.T.T.T.+.m v y V z.T.T.T.T.T.T.T.T.T.T.T.T.Y.T.Y.",
"T.T.T.T.T.T.T.T.T.T.T.T.T.T.T.T.T.T.T.T.T.g.5 % & = Y L.T.T.T.T.T.T.T.T.T.T.T.T.T.e.h A.T.T.T.T.T.T.T.T.T.T.T.T.T.T.T.T.",
"T.T.T.T.T.T.T.T.T.T.T.T.T.T.T.T.T.T.T.T.T.P.l.5 . ^ H.T.T.T.T.T.T.T.T.T.T.T.T.T.T.L.S.T.T.T.T.T.T.T.T.T.T.T.T.T.T.T.T.T.",
"T.T.T.T.T.T.T.T.T.T.T.T.T.T.T.T.T.T.T.T.T.T.I.k.e.n.T.T.T.T.T.T.T.T.T.T.T.T.T.T.T.T.T.T.T.T.T.T.T.T.T.T.T.T.T.T.Y.T.T.T.",
"T.T.T.T.T.T.T.T.T.T.T.T.T.T.T.T.T.T.T.T.T.T.T.T.T.T.T.T.T.T.P.T.T.T.T.T.T.T.T.T.T.T.T.T.T.T.T.T.T.T.T.T.T.T.T.T.Y.T.T.T.",
"T.T.T.T.T.T.T.T.T.T.T.T.T.T.T.T.T.T.T.T.T.T.T.T.T.T.T.T.T.T.T.T.T.T.T.T.T.T.T.T.T.T.T.T.T.T.T.T.T.T.T.T.T.T.T.T.T.T.T.P.",
"T.T.T.T.T.T.T.T.T.P.T.T.T.T.T.T.T.T.T.T.T.T.T.T.T.T.T.T.T.T.T.T.T.T.T.T.T.T.T.T.T.T.T.T.T.T.T.T.T.T.T.T.T.T.T.T.T.T.T.T.",
"T.T.T.T.T.T.T.T.T.P.P.T.T.T.T.T.T.T.T.T.T.T.T.P.T.T.T.T.T.T.T.T.T.T.T.T.T.T.T.T.T.T.T.T.T.T.T.T.T.T.T.T.T.T.T.Y.T.T.T.T.",
"T.T.T.T.T.T.T.T.T.T.T.T.T.P.T.T.T.T.T.T.U.T.T.T.T.T.T.T.T.T.T.T.T.T.T.T.T.T.T.T.T.T.T.T.T.T.T.T.T.T.T.T.T.T.T.T.T.T.T.T.",
"T.T.T.T.T.T.T.T.T.T.T.T.T.T.T.T.T.T.T.T.T.T.T.T.T.T.T.T.T.T.T.T.T.T.T.T.T.T.T.T.T.T.T.T.T.T.T.T.T.T.T.T.T.T.T.T.T.T.T.T.",
"T.T.T.T.T.T.T.T.T.T.T.T.T.T.T.T.T.T.T.T.T.T.T.T.T.T.T.T.T.T.T.T.T.T.T.T.T.T.T.T.T.T.T.T.T.T.T.T.T.T.T.T.T.T.T.T.T.T.T.T.",
"T.T.T.T.T.T.T.T.T.T.T.T.T.T.T.T.T.T.T.T.U.T.T.T.T.T.T.T.T.T.T.T.T.T.T.T.T.T.T.T.T.T.T.T.T.T.T.T.T.T.T.T.T.T.T.T.T.T.T.T."
};
