/* XPM */
static char *result[] = {
/* columns rows colors chars-per-pixel */
"60 60 178 2 ",
"   c #151616",
".  c #181817",
"X  c #171919",
"o  c #1B1C1C",
"O  c #221F1D",
"+  c #1E201E",
"@  c #21201F",
"#  c #1E2221",
"$  c #232523",
"%  c #292523",
"&  c #262825",
"*  c #2A2A27",
"=  c #272928",
"-  c #2D2E2B",
";  c #312A26",
":  c #332E29",
">  c #2F302C",
",  c #32322D",
"<  c #3A322D",
"1  c #353533",
"2  c #3C3631",
"3  c #3C3A34",
"4  c #373939",
"5  c #3C3C3B",
"6  c #482620",
"7  c #45312C",
"8  c #57332D",
"9  c #423530",
"0  c #423D36",
"q  c #423F3B",
"w  c #4C3F39",
"e  c #444037",
"r  c #45423C",
"t  c #4B443C",
"y  c #52453E",
"u  c #5A473E",
"i  c #68423A",
"p  c #444444",
"a  c #4B4641",
"s  c #4E4941",
"d  c #4D4D4B",
"f  c #534C43",
"g  c #554F4A",
"h  c #584F48",
"j  c #595146",
"k  c #54524A",
"l  c #5B534C",
"z  c #4E5152",
"x  c #555452",
"c  c #5D5651",
"v  c #5D5A54",
"b  c #5C5D5D",
"n  c #65574F",
"m  c #63594D",
"M  c #685D4F",
"N  c #72524A",
"B  c #78564B",
"V  c #655C53",
"C  c #695F56",
"Z  c #6C6256",
"A  c #64605D",
"S  c #6C635C",
"D  c #736657",
"F  c #756758",
"G  c #74695D",
"H  c #7B6C5D",
"J  c #646463",
"K  c #686664",
"L  c #6A6863",
"P  c #6B6C6C",
"I  c #756D63",
"U  c #786F65",
"Y  c #77716E",
"T  c #7D746B",
"R  c #757473",
"E  c #7D7C7B",
"W  c #945B4F",
"Q  c #8A675F",
"!  c #8C6C67",
"~  c #837363",
"^  c #81776C",
"/  c #82796E",
"(  c #8D7B69",
")  c #9E7368",
"_  c #857D73",
"`  c #887F74",
"'  c #817D7A",
"]  c #A86E61",
"[  c #A87467",
"{  c #A67B71",
"}  c #8A8176",
"|  c #87827B",
" . c #8C8379",
".. c #92887D",
"X. c #BA8374",
"o. c #C58C7D",
"O. c #848483",
"+. c #8A8988",
"@. c #8C8B8A",
"#. c #968D81",
"$. c #988F83",
"%. c #9B9286",
"&. c #95918F",
"*. c #9E958A",
"=. c #8F9191",
"-. c #929392",
";. c #999693",
":. c #979997",
">. c #9B9B9B",
",. c #A98F8A",
"<. c #A39A8D",
"1. c #A59D92",
"2. c #A99F94",
"3. c #ACA395",
"4. c #A5A09D",
"5. c #ADA59B",
"6. c #B2A99C",
"7. c #A6A6A6",
"8. c #AAA6A3",
"9. c #B5ADA1",
"0. c #B7B0A3",
"q. c #BCB3A5",
"w. c #B2B0AF",
"e. c #BDB6AB",
"r. c #AEAFB0",
"t. c #B5B6B5",
"y. c #B8B6B5",
"u. c #BAB9B7",
"i. c #B7B8B8",
"p. c #BDBCBB",
"a. c #E4AC9B",
"s. c #C3BAAE",
"d. c #C7B6B4",
"f. c #C3BCB4",
"g. c #C1BDBC",
"h. c #CFBFBC",
"j. c #C7C1B6",
"k. c #C9C2B6",
"l. c #C4C0BF",
"z. c #CBC5BA",
"x. c #CEC8BD",
"c. c #D0CABE",
"v. c #E6C4B0",
"b. c #F0C3B3",
"n. c #C2C2C2",
"m. c #CCCBCB",
"M. c #D1CCC1",
"N. c #D1CECD",
"B. c #D7D1C6",
"V. c #D2D1CF",
"C. c #DBD6CB",
"Z. c #DED8CE",
"A. c #D4D5D4",
"S. c #DAD7D5",
"D. c #DCD9D4",
"F. c #D8D7D8",
"G. c #DBDBDA",
"H. c #E0D7CE",
"J. c #F8D7C7",
"K. c #E0DDDC",
"L. c #E4E0D6",
"P. c #E5E2DC",
"I. c #E9E5DD",
"U. c #F2EAD5",
"Y. c #DFDEE0",
"T. c #E4E4E3",
"R. c #EBE9E4",
"E. c #E7E8E9",
"W. c #EBECEB",
"Q. c #F3F1ED",
"!. c #EFEFF0",
"~. c #F3F2F2",
"^. c #F8F7F6",
"/. c #F8F9F7",
"(. c #F6F7F8",
"). c #F8F7F8",
"_. c #F7F8F9",
"`. c #FCFCFC",
/* pixels */
"`.`.`.`.`.`.`.`.`.`.`.`.`.`.`.`.`.`.`.`.`./.`.`.`.`.`.`.`.`.`.`./.`.`.`.`.`.`.`.`.`.`.`.`.`.`.`.`.`.`.`.`.`.`.`.`.`.`.`.",
"`.`.`.`.`.`.`.`.`.`.`.`.`.`.`.`.`.`.`.`.`.`.`.`.`.`.`.`.`.`.`.`.`.`.`.`.`.`.`.`.`.`.`.`.`.`.`.`.`.`.`.`.`.`.`.`.`.`.`.`.",
"`.`.`.`.`.`.`.`.`.`.`.`.`.`.`.`.`.`.`.`.`.`.`.`.`.`.`.`.`.`.`.`.`.`.`.`.`.`.`.`.`.`.`.).`.`.`.`.`.`.`.).`.`.`.`.`.`.`.`.",
"`.`.`.`.`.`.`.`.`.`.`.`.`.`.`.`.`.`.`.`.`.`.`.`.`.`.`.`.`.`.`.`.`.`.`.`.`.`.`.`.`.`.`.`.`.`.`.`.`.).`.`.`./.`.`.`.`./.`.",
"`.`.`.`.`.`.`.`.`.`.`.`.`.`.`.`.`.`.`.`.`.`.`.`.`.`.`.`.`.`.`.`.`.`.`.`.`.`.`.`.`.`.`.`.`.`.`.`.`.`.`./.`.`.`.`.`./.`.`.",
"`.`.`.`.`.`.`.`.`.`.`.`.`.`.`.`.`.`.`.`.`.`.`.`.`.`.`.`.`.`.`.`.`./.`.`.`.`.`.`.`.`.`.`.`.`.`.`.`.`.`.`.`.`.`.`.`.`.`.`.",
"`.`.`.`.`.`.`.`.`.`.`.`.`.`.`.`.`.`.`.`.`.`.`.`.`.`.`.`.`.`.`.`.`.`.`.`.`.`.`.`.`.`.`.`.`.`./.`.`.`.`.`.`./.`.`.`.`.`.`.",
"`.`.`.`.`.`.`.`.`.`.`.`.`.`.`.`.`.`.`.`.`.`.`.`.`.`.`.`.`.`.`.`.`.`.`.`.`.`.`.`.`.`.`.`.`.`.`.`.`.`.`.`.`./.`./.`.`.`.`.",
"`.`.`.`.`.`.`.`.`.`.`.`.`.`.`.`.`.`.`.`.`.`.`.`.`.`._.`.`.`.`.`.`.`.`.`.`.`.`.`.`.`.`.`.`.`.`.`.`.`.`.`.`.`.`.`.`.`.`.`.",
"`.`.`.`.`.`.`.`.`.`.`.`.`.`.`.`.`.`.`.`.`.`.`.`.`.`.`.`.`.`.`.`.`.`.`.`.`.`.`.`.`.`.`.`.`.`.`.`.`.`.`.`.`./.`.`.`.`.`.`.",
"`.`.`.`.`.`.`.`.`.`.`.`.`.`.`.`.`.`.`.`.`.`.`.`.`.`.`.`.`.`.`._.`.`.`.`.`.`.`.`.`.`.`.`.`.`.`.`.`.`.`.`.`.`.`.`.`.`.`.`.",
"`.`.`.`.`.`.`.`.`.`.`.`.`.`.`.`.`.`.`.`.`.`.`.`.`.`.`.`.`.`.`.G.i.i.f.l.g.l.V./.`.`.`.`.`.`.`.`.`.`.`.`.`.`./.`./.`.`./.",
"`.`.`.`.`.`.`.`.`.`.`.`.`.`.`.`.`.`.`.`.`.`.`.`.`.`.`.`.`.(.E.+.- @ : < < 0 C m.~.`.`.`.`.`.`.`.`.`.`./.`.`.`.`.`./.`./.",
"`.`.`.`.`.`.`.`.`.`.`.`.`.`.`.`.`.`.`.`.`.`.`.`._.`.`.`.`.Y.A j c 3 : @ % @ $ 1 >.`.`.`.`.`.`.`.`.`.`.`.`.`.`.`.`.`./.`.",
"`.`.`.`.`.`.`.`.`.`.`.`.`.`.`.`.`.`.`.`.`.`.`.`.`._.`.`.g.Y j g a > 1 k V A c g x O.W.`.`.`.`.`.`.`.`.`.`.`.`.`.`.`.`.`.",
"`.`.`.`.`.`.`.`.`.`.`.`.`.`.`.`.`.`.`.`.`.`.`.`.`.`.!.p.Y f T k > k _ 1.0.e.9.$.A k 4.G.`.`.`.`.`.`.`.`.`.`.`.`.`.`.`.`.",
"`.`.`.`.`.`.`.`.`.`.`.`.`.`.`.`.`.`.`.`.`.`.`.`.`.`.G.x l ^ ` c k 5.Z.I.L.P.L.k.6...M *.E._.`.`.`.`.`.`.`.`.`.`.`.`.`.`.",
"`.`.`.`.`.`.`.`.`.`.`.`.`.`.`.`.`.`.`.`.`.`.`.`.`.`.F.S / <.l I 0.Z.Q.Q.k.B.I.I.c.6...I T Y.`.`.`.`.`.`.`.`.`.`.`.`.`.).",
"`.`.`.`.`.`.`.`.`.`.`.`.`.`.`.`.`.`.`.`.`.`.`.`.`.g.} %.} I | j.Q.U.H.B.P.I.R./.u.$.k.*.T E.`.`.`.`.`.`.`.`.`.`.`.).`.`.",
"`.`.`.`.`.`.`.`.`.`.`.`.`.`.`.`.`.`.`.`.`.`.`.`.`.8.Z #./ U s.R.Q.H.q.6.R.I.Z.Q.5.I j.0.` 1.N.`.`.`.`.`.`.`.).`.`.`.`.`.",
"`.`.`.`.`.`.`.`.`.`.`.`.`.`.`.`.`.`.`.`.`.`.`.(.K.5.U Z ^ 3.Z.I.C.q.1.2.x.x.j.M.| j %.3. .e &.`.`.`.`.`.`.`.`.`.`.`.`._.",
"`.`.`.`.`.`.`.`.`.`.`.`.`.`.`.`.`.`.`.`.`.`.`.K.U U ` l T s.L.B.6.%.1.6.<.f.M.} r > C *.<.t &.`.`.`.`._.`.`.`.`.`.`.`.`.",
"`.`.`.`.`.`.`.`.`.`.`.`.`.`.`.`.`.`.`.`._.`.`.F.c S } t Z 5.Z.k.%.^ T  .3.2._ r > 1 s ^  .< @.`.`.`.`._.`.`.`.`.`.`.`.`.",
"`.`.`.`.`.`.`.`.`.`.`.`.`.`.`.`.`.`.`.`.`.`.`.F.s h I < s $.Z.e.T V G _ S d 1 * & - < Z I : @.`.`.`.`.`.`.`.`.`.`.`.).`.",
"`.`.`.`.`.`.`.`.`.`.`.`.`.`.`.`.`.`.`.`.`.`.`.S.r a C 2 9 U z.1.l y V G t a v S n w : y l ; @.`.`.`.`.`.`.`.`.`.`.`.`.`.",
"`.`.`.`.`.`.`.`.`.`.`.`.`.`.`.`.`.`.`.`.`.`.`.G.x f C f 2 s 1.T < w 0 i X.v.U.J.a.[ w 3 w 2 ;.`.`.`.`.`._.`.`._.`.`.`.`.",
"`.`.`.`.`.`.`.`.`.`.`.`.`.`.`.`.`.`.`.`.`.`.`.^.G.' 2 n q 2 ` G : < B o.b.U.J.a.] W d.E q y.E.`.`._.`.`.`.`.`.`.`.).`.`.",
"`.`.`.`.`.`.`.`.`.`.`.`.`.`.`.`.`.`.`.`.`.`.`.`.`.N.8.g.y.:.V 2 % 0 u N ) { ] W { d.~.A.w.~.`.`._.`._.`.`.`.`.`.`.`.`.`.",
"`.`.`.`.`.`.`.`.`.`.`.`.`.`.`.`.`.`.`.`.`.`.`.`.`.`.`.`.K.>.< o - m 0 o ; 6 8 ! h.`.`.`.`.`.`.`.`.`.`.`.`.`.`.`.`.`._.`.",
"`.`.`.`.`.`.`.`.`.`.`.`.`._.`.`.`.`.`.`.`.`.`.`.`.`.(.T.E o . * t H y o o X 4 p.W.`.`.`.`.`.`.`.`.`.`.`.`.`.`.`.`.`.`.`.",
"`.`.`.`.`.`.`.`.`.`.`.`.`.`.`.`.`.`.`.`.`.`.`.`.`.`.F.x = o X w H M 2 o $ @ # 1 :.`.`.`.`.`.`.`.`.`.`.`.`.`.`./.`.`._.`.",
"`.`.`.`.`.`.`.`.`.`.`.`.`.`.`.).`.`.`.`.`.`.`.`.`.i.b 1 = # o : q : O   . o X   1 E E.`.`.`.`.`.`.`.`.`.).`.`.`.`.`.`.`.",
"`.`.`.`.`.`.`.`.`.`.`.`.`.`.`.`.`.`.`.`.`.`.`.~.r.J , , = # X X + @ - , & o & v Y R -.m.`.`.`.`.`.`.`./.`.`.`.`.`.`.`.`.",
"`.`.`.`.`.`.`.`.`.`.`.`.`.`.`.`.`.`.`.`.`.`.E.i.p k Z 1 # o X . X , t f t 2 s 4.L.D.A O.F.(.`.`.`.`.`.`.`.`.`.`.`.`.`.`.",
"`.`.`.`.`.`.`.`.`.`.`.`.`.`.`.`.`.`.`.`.`.`.:.r S 3.6.k @ X . . X + * r D ~ D 5 | Z.I.O.d S.`.`.`.`.`.`.`.`.`.`.`.`.`.`.",
"`.`.`.`.`.`.`.`.`.`.`.`.`.`.`.`.`.`.`.`.`.`.@.3  .T p & + + o + @ X o @ 2 0 r c ..0.5.v 4 F.`.`.`.`.`.`.`.`.`.`.`.`._.`.",
"`.`.`.`.`.`.`.`.`.`.`.`.`.`.`.`.`.`.`.`.`.`.+.* c 5 o $ $ # = = & - @ X + X $ r x c s J >.E.`.`./.`.`.`.`.`.`.`.`.`.`.`.",
"`.`.`.`.`.`.`.`.`.`.`.`.`.`.`.`.`.`.`.`.`.`.7.p o o & - - * , > > r 1 + O 3 x d d d z 7.`.`.`.`.`.`.`.`.`.`.`.`.`.`.`.).",
"`.`.`.`.`.`.`.`.`.`.`.`.`.`.`.`.`.`.`.`.`.`.(.N.d # # # 0 f > > e j 3 @ 8 ,.T.~.!.~.~.^.`.`.`.`.`.`.`.`.`.`.`.`.`.`.`.`.",
"`.`.`.`.`.`.`.`.`.`.`.`.`.`.`.`.`.`.`.`.`.`.`.(.F.R o 1 V D 3 e y y * > ] Q L T.`.`.`.`.`.`.`.`.`.`.`.`.`.`.`.`.`.`.`.`.",
"`.`.`.`.`.`.`.`.`.`.`.`.`.`.`.`.`.`.`.`.`.`.`.!.:.d o & 0 f n U H 3 7 i N 2 @ P l.`.`.`.`.`.`.`.`.`.`.`._.`.`.`.`.`.`._.",
"`.`.`.`.`.`.`.`.`.`.`.`.`.`.`.`.`.(.n.t.t.t.t.:.- o o # o * M ( ~ ; 7 i y - +   +.`.`.`.`.).`.`.`.`.`.`.`.`.`.`.`.`.`.`.",
"`.`.`.`.`.`.`.`.`.`.`.`.`.`.`.`.!.n.5 o o # @ % - & $ > % + 3 f t @ X 1 ~ M & + E E.(.`.`.`.`.).`.`.`.`.`.`.`.`.`.`.`.`.",
"`.`.`.`.`.`.`.`.`.`.`.`.`.`.`.`.>.4 # # & : 0 h D h > $ $ @ @ o @ X o + > j Z 0 4 b G.`.`.`.`.`.`.`.`._.`.`._._.`.`.`.`.",
"`.`.`.`.`.`.`.`.`.`.`.`.`.`.`.`.+.# = 3 t r r t t 3 $ o o > =.7.8.8.b X + 4 j k < & b i.`.`.`.`.`.`.`.`.`.`._.`._.`.`.`.",
"`.`.`.`.`.`.`.`.`.`.`.`.`.`.`.`.=.> s j s 3 , = + o & b P O.W.`.`.`.i.A > & , e t r < K t.W.`.`.`.`.`.`.`.`.`.`.`.`.`.`.",
"`.`.`.`.`.`.`.`.`.`.`.`.`.`.`.`.-.e F l > % - 5 5 5 b G.`.`.`.`.`.`.`.F.5 + $ - f F j , 5 A.`.`._.`.`.`.`.`.`.`._.`.`.`.",
"`.`.`.`.`.`.`.`.`.`.`.`.`.`.`.`.=.- j 0 # o O.T.T.T.E.(.`.`.`.`.`.`.`.F.5 + & t s 3 = o p F.`.`.`.`.`.`.`.`.`.`.`.`.`._.",
"`.`.`.`.`.`.`.`.`.`.`.`.`.`.`.`.D.>.3 L t.i.G.`.`.`.`.`.`.`.`.`.`.`.`.~.n.J # > - # o J n.!.`.`.`.`.`.`.`.`.`.`.`.`._.`.",
"`.`.`.`.`.`.`.`.`.`.`.`.`.`.`.`.`.!.-.p.`.`.`.`.`.`.`.`.`.`.`.`.`.`.`.`.`.n.P = X & P n.`.`.`.`.`.`.`.`.`.`.`.`.`._.`.`.",
"`.`.`.`.`.`.`.`.`.`.`.`.`.`.`.`.`.`.`.`.`.`.`.`.`.`.`.`.`.`.`.`.`.`.`.`.`.`.T.J a P T.`.`.`.`.`.`.`.`.`.`.`.`.`.`.`.`.`.",
"`.`.`.`.`.`.`.`.`.`.`.`.`.`.`.`.`.`.`.`.`.`.`.`.`.`.`.`.`.`.`.`.`.`.`.`.`.`.`.!.W.!.`.`.`.`.`.`.`.`.`.`.`._.`.`.`.`.`.`.",
"`.`.`.`.`.`.`.`.`.`.`.`.`.`.`.`.`.`.`._.`.`.`.`.`.`.`.`.`.`.`.`.`.`.`.`.`.`.`.`.`.`.`.`.`.`.`.`.`.`.`.`.`.`.`.`.`.`././.",
"`.`.`.`.`.`.`.`.`.`.`.`.`.`.`.`.`.`.`.`.`.`.`.`.`.`.`.`.`.`.`.`.`.`.`.`.`.`.`.`.`.`.`.`.`.`.`.`.`.`.`.`.`.`.`.`.`.`.`.`.",
"`.`.`.`.`.`.`.`.`./.`.`.`.`.`.`.`.`.`.`.`.`.`.`.`.`.`.`.`.`.`.`.`.`.`.`.`.`.`.`.`.`.`.`.`.`.`.`.`.`.`.`.`.`.`._.`.`.`.`.",
"`.`.`.`.`.`.`.`.`./.`.`.`.`.`.`.`.`.`.`.`.`.`.`.`.`.`.`.`.`.`.`.`.`.`.`._.`.`.`.`.`.`.`.`.`.`.`.`.`.`.`.`.`.`.`.`.`.`.`.",
"`.`.`.`.`.`.`.`.`.`.`.`.`.`.`.`.`.`.`.`.`.`.`.`.`.`.`.`.`.`././.`.`.`.`.`.`.`.`.`.`.`.`.`.`.`.`.`.`.`.`.`.`.`.`.`.`.`.`.",
"`.`.`.`.`.`.`.`.`.`.`.`.`././.`.`.`.`.`.`.`.`.`.`.`.`.`.`.`.`.`.`.`.`.`.`.`.`.`.`.`.`.`.`.`.`.`.`.`.`.`.`.`.`.`.`.`.`.`.",
"`.`.`.`.`.`.`.`.`.`.`.`.`.`.`.`.`.`.`.`.`.`.`.`.`.`.`.`.`.`.`.`.`.`.`.`.`.`.`.`.`.`.`.`.`.`.`.`.`.`.`.`.`.`.`.`.`.`.`.`.",
"`.`.`.`.`.`.`.`.`.`.`.`.`.`.`.`.`.`.`.`./.`.`.`.`.`.`.`.`.`.`.`.`.`.`.`.`.`.`.`.`.`.`.`.`.`.`.`.`.`.`.`.`.`.`.`.`.`.`.`."
};
