/* XPM */
static char *result[] = {
/* columns rows colors chars-per-pixel */
"60 60 166 2 ",
"   c #161717",
".  c #171718",
"X  c #17191A",
"o  c #1B1C1B",
"O  c #241E1C",
"+  c #1E211F",
"@  c #24211E",
"#  c #33211E",
"$  c #1E2121",
"%  c #232423",
"&  c #2A2421",
"*  c #262925",
"=  c #2B2A26",
"-  c #262828",
";  c #2C2D2A",
":  c #342E29",
">  c #2F312F",
",  c #33322D",
"<  c #3D332E",
"1  c #2F3231",
"2  c #353532",
"3  c #3B3731",
"4  c #363836",
"5  c #3B3A34",
"6  c #343738",
"7  c #4A2B25",
"8  c #4D302B",
"9  c #57332B",
"0  c #4A3632",
"q  c #443C36",
"w  c #493B34",
"e  c #443F39",
"r  c #483F39",
"t  c #513B33",
"y  c #45423B",
"u  c #4B443C",
"i  c #4E493F",
"p  c #514A3F",
"a  c #64453E",
"s  c #79443A",
"d  c #424442",
"f  c #4E4A43",
"g  c #4D4E4C",
"h  c #514740",
"j  c #534C44",
"k  c #564F49",
"l  c #575045",
"z  c #585045",
"x  c #56524C",
"c  c #5C534A",
"v  c #4F5152",
"b  c #545454",
"n  c #5B5652",
"m  c #575758",
"M  c #5A5A5A",
"N  c #6C4C43",
"B  c #7A4B41",
"V  c #695046",
"C  c #6C524B",
"Z  c #645A4F",
"A  c #645C53",
"S  c #695E52",
"D  c #625E5B",
"F  c #5F615F",
"G  c #656057",
"H  c #6C6156",
"J  c #60615E",
"K  c #6C635B",
"L  c #78655D",
"P  c #74695D",
"I  c #7C6A5B",
"U  c #636363",
"Y  c #676A6B",
"T  c #6B6C6B",
"R  c #756B63",
"E  c #7B6F64",
"W  c #766F6A",
"Q  c #7A7066",
"!  c #7B7269",
"~  c #737373",
"^  c #787977",
"/  c #7B7B7B",
"(  c #8B564A",
")  c #835C52",
"_  c #8E5D50",
"`  c #8B675A",
"'  c #AB6A5C",
"]  c #847464",
"[  c #80776C",
"{  c #847A6F",
"}  c #9C7164",
"|  c #857D73",
" . c #AD7869",
".. c #8B8176",
"X. c #8E8479",
"o. c #91877B",
"O. c #BD8C7C",
"+. c #848485",
"@. c #8C8986",
"#. c #8A8B8B",
"$. c #958E82",
"%. c #998F83",
"&. c #928F8C",
"*. c #9B9285",
"=. c #9C948A",
"-. c #8F9191",
";. c #929394",
":. c #9F9995",
">. c #969799",
",. c #9C9B9A",
"<. c #A1978B",
"1. c #B79B8B",
"2. c #A89E91",
"3. c #ABA294",
"4. c #ACA49C",
"5. c #ACA899",
"6. c #B1A799",
"7. c #B2AA9D",
"8. c #A4A3A4",
"9. c #ABA8A6",
"0. c #AEADAC",
"q. c #B4ADA3",
"w. c #BCAFA2",
"e. c #B1AEAC",
"r. c #B7B0A3",
"t. c #BCB3A5",
"y. c #BFB8AB",
"u. c #BAB6B4",
"i. c #BBBCBC",
"p. c #CA9586",
"a. c #D39888",
"s. c #D99B8B",
"d. c #C6BFB2",
"f. c #C2BFBE",
"g. c #EFBCAA",
"h. c #C9C2B6",
"j. c #CCC5BB",
"k. c #CFC9BE",
"l. c #D0C9BD",
"z. c #E9C3B5",
"x. c #C1C1C2",
"c. c #C9C6C4",
"v. c #CAC8C7",
"b. c #C7C9C9",
"n. c #CBCACB",
"m. c #D8D1C6",
"M. c #DAD4CB",
"N. c #DED9CE",
"B. c #D5D4D4",
"V. c #DED9D1",
"C. c #DDDDDD",
"Z. c #FDD9C7",
"A. c #E1DDD4",
"S. c #E6E1D8",
"D. c #E9E5DD",
"F. c #FDF1DC",
"G. c #E0DFE0",
"H. c #E3E3E3",
"J. c #E9E7E6",
"K. c #EDEAE5",
"L. c #E7E7E9",
"P. c #EBEBEB",
"I. c #F3F1EB",
"U. c #F4F3F2",
"Y. c #F8F7F9",
"T. c #FCFCFC",
/* pixels */
"T.T.T.T.T.T.T.T.T.T.T.T.T.T.T.T.T.T.T.T.T.T.T.T.T.T.T.T.T.T.T.T.T.T.T.T.T.T.T.T.T.T.T.T.T.T.T.T.T.T.T.T.T.T.T.T.T.T.T.T.",
"T.T.T.T.T.T.T.T.T.T.T.T.T.T.T.T.T.T.T.T.T.T.Y.T.T.T.T.T.T.T.T.T.Y.T.T.T.T.T.T.T.T.T.T.T.T.T.T.T.T.T.T.T.T.T.T.T.T.T.T.T.",
"T.T.T.T.T.T.T.T.T.T.T.T.T.T.T.T.T.T.T.T.T.T.T.T.T.T.T.T.T.T.T.T.T.T.T.T.T.T.T.T.T.T.T.T.T.T.T.T.Y.T.T.T.Y.T.T.T.T.T.Y.T.",
"T.T.T.T.T.T.T.T.T.T.T.T.T.T.T.T.T.T.T.T.T.T.T.T.T.T.T.T.T.T.T.T.T.T.T.T.T.Y.T.T.T.T.T.T.T.T.T.T.T.T.T.Y.T.T.T.T.T.T.T.Y.",
"T.T.T.T.T.T.T.T.T.T.T.T.T.T.T.T.T.T.T.T.T.T.T.T.T.T.T.T.T.T.T.T.T.T.T.T.T.T.T.T.T.T.T.T.T.T.T.T.T.T.T.T.T.T.T.T.T.T.T.T.",
"T.T.T.T.T.T.T.T.T.T.T.T.T.T.T.T.T.T.T.T.T.T.T.T.T.T.T.T.T.T.T.T.T.T.T.T.T.T.T.T.T.Y.T.T.T.T.T.T.T.T.T.T.T.Y.T.T.Y.T.T.T.",
"T.T.T.T.T.T.T.T.T.T.T.T.T.T.T.T.T.T.T.T.T.T.T.T.T.T.T.T.T.T.T.T.T.T.T.T.T.T.T.T.T.T.T.T.T.T.T.T.T.T.T.T.T.Y.T.T.T.T.T.Y.",
"T.T.T.T.T.T.T.T.T.T.T.T.T.T.T.T.T.T.T.T.T.T.T.T.T.T.T.T.T.T.T.T.T.T.T.T.T.T.T.T.T.T.T.T.T.T.T.T.T.T.T.T.Y.T.T.T.T.T.T.T.",
"T.T.T.T.T.T.T.T.T.T.T.T.T.T.T.T.T.T.T.T.T.T.T.T.T.T.Y.T.T.T.T.T.T.T.T.T.T.T.T.T.T.T.T.T.T.T.T.T.T.T.T.T.T.T.T.T.T.T.T.T.",
"T.T.T.T.T.T.T.T.T.T.T.T.T.T.T.T.T.T.T.T.T.T.T.T.T.T.T.T.T.T.T.T.T.T.T.T.T.T.T.T.T.T.T.T.T.T.T.T.T.T.T.T.T.T.T.Y.T.T.T.T.",
"T.T.T.T.T.T.T.T.T.T.T.T.T.T.T.T.T.T.T.T.T.T.T.T.T.T.T.T.T.T.T.T.T.T.T.T.T.T.T.T.T.T.T.T.T.T.T.T.T.T.T.T.T.T.T.T.T.T.Y.T.",
"T.T.T.T.T.T.T.T.T.T.T.T.T.T.T.T.T.T.T.T.T.T.T.T.T.T.T.T.T.T.T.T.T.T.T.T.T.T.T.T.T.T.T.T.T.T.T.T.T.T.T.T.T.T.Y.Y.Y.T.Y.Y.",
"T.T.T.T.T.T.T.T.T.T.T.T.T.T.T.T.T.T.T.T.T.T.T.T.T.T.T.T.T.T.T.T.T.T.T.T.T.T.T.T.T.T.T.T.T.T.T.T.T.T.T.T.T.Y.Y.T.T.Y.Y.T.",
"T.T.T.T.T.T.T.T.T.T.T.T.T.T.T.T.T.T.T.T.T.T.T.T.T.T.T.T.T.U.0.8.9.e.e.u.L.T.T.T.T.T.T.T.T.T.T.T.T.T.Y.T.T.T.T.T.T.T.T.Y.",
"T.T.T.T.T.T.T.T.T.T.T.T.T.T.T.T.T.T.T.T.T.T.T.T.T.Y.T.P.G.v.e % & : : r e.U.T.T.T.T.T.T.T.T.T.T.T.Y.T.T.T.T.T.T.Y.T.T.T.",
"T.T.T.T.T.T.T.T.T.T.T.T.T.T.T.T.T.T.T.T.T.T.T.T.T.T.T.,.5 y A y ; * * $ ; ,.T.T.T.T.T.T.T.T.T.T.T.T.T.T.T.T.T.T.T.T.T.T.",
"T.T.T.T.T.T.T.T.T.T.T.T.T.T.T.T.T.T.T.T.T.T.T.T.T.T.8.n q j k , 4 c G A j b >.T.T.T.T.T.T.T.T.T.T.T.T.T.T.T.T.T.T.T.Y.T.",
"T.T.T.T.T.T.T.T.T.T.T.T.T.T.T.T.T.T.T.T.T.T.T.T.Y.f.K k H K 2 y W 2.7.r.*.A J c.Y.T.T.T.T.T.T.T.T.T.T.T.T.T.T.Y.T.T.T.T.",
"T.T.T.T.T.T.T.T.T.T.T.T.T.T.T.T.T.T.T.T.T.T.T.T.H.k Z | X.G 5 $.m.D.S.S.j.3.[ H L.T.T.T.T.T.T.T.T.T.T.T.T.T.T.T.T.T.T.T.",
"T.T.T.T.T.T.T.T.T.T.T.T.T.T.T.T.T.T.T.T.T.T.T.T.J.Z W 2.$.j $.c.I.K.h.S.S.k.o.G H.T.T.T.T.T.T.T.T.T.T.T.T.T.T.T.T.Y.T.T.",
"T.T.T.T.T.T.T.T.T.T.T.T.T.T.T.T.T.T.T.T.T.T.T.C.@.E *.6...l h.I.J.N.V.D.U.h.o...:.H.T.T.T.T.T.T.T.T.T.T.T.T.T.T.T.T.T.T.",
"T.T.T.T.T.T.T.T.T.T.T.T.T.T.T.T.T.T.T.T.T.T.L.,.j %.t.2.! P M.I.k.d.Y.A.U.q.{ y.Z c.T.T.T.T.T.T.T.T.T.T.T.T.T.T.T.T.T.T.",
"T.T.T.T.T.T.T.T.T.T.T.T.T.T.T.T.T.T.T.T.T.T.,.r E 3.t.$.Q =.V.j.3.5.V.h.N.*.! l.A i.T.T.T.T.T.T.T.Y.T.T.T.T.T.T.T.T.Y.T.",
"T.T.T.T.T.T.T.T.T.T.T.T.T.T.T.T.T.T.T.T.T.T.:.c ..P 3...S =.A.r.2.5.7.M.5.x x r.u f 0.T.T.T.T.T.T.T.T.T.T.T.T.Y.T.T.T.T.",
"T.T.T.T.T.T.T.T.T.T.T.T.T.T.T.T.T.T.T.T.T.0.W S S j | K c 2.l.=...=.3.q.K > g *.q ; ;.T.T.T.T.T.T.T.T.Y.T.T.T.Y.T.Y.T.T.",
"T.T.T.T.T.T.T.T.T.T.T.T.T.T.T.T.T.T.T.T.Y.| k z : u H u c d.w.[ K ..*.G , * g { q , ,.T.T.T.T.T.T.T.T.T.T.T.T.T.T.T.T.T.",
"T.T.T.T.T.T.T.T.T.T.T.T.T.T.T.T.T.T.T.T.T.U.&.: & r H r n M.<.Z P ! q > 2 > e G # > ,.T.T.T.T.T.T.Y.T.T.T.T.T.T.T.Y.T.T.",
"T.T.T.T.T.T.T.T.T.T.T.T.T.T.T.T.T.T.T.T.T.T.&.O O 0 j q n y.P j i V } 5.t.O.` j @ @ ;.T.T.T.T.T.Y.T.T.T.T.T.T.T.T.T.T.T.",
"T.T.T.T.T.T.T.T.T.T.T.T.T.T.Y.T.T.T.T.T.T.T.f.D @ & : = z <.h t a } g.F.Z.s._ 3 & b i.T.T.T.T.T.T.T.T.T.T.T.T.T.T.T.T.T.",
"T.T.T.T.T.T.T.T.T.T.T.T.T.T.T.T.T.T.T.T.T.T.U.8.@ X X O r ! q 7 ( p.z.z.a.( 7 @ * i.T.T.T.T.T.T.T.T.T.T.T.T.T.T.T.T.T.T.",
"T.T.T.T.T.T.T.T.T.T.T.T.T.T.T.T.T.T.T.T.T.T.,.> & o o 5 u : $ & ; w B s s 8 @ @ $ i.T.T.T.T.T.T.T.T.T.T.T.T.T.Y.T.T.T.T.",
"T.T.T.T.T.T.T.T.T.T.T.T.T.T.T.T.T.T.T.T.T.,.d , c u = j S = $ o + + # # # < 2 > >.H.T.T.T.T.T.T.T.T.T.T.T.T.Y.T.T.T.Y.Y.",
"T.T.T.T.T.T.T.T.T.T.T.T.T.T.T.T.T.T.T.T.Y.b % y S i = q j > & * 5 5 * X $ 4 f ~ K.T.T.T.Y.T.T.T.T.T.T.T.T.T.T.T.T.T.T.T.",
"T.T.T.T.T.T.T.T.T.T.T.T.T.T.T.T.T.T.T.T.H.m y A u , $ * * + 2 c I I f % ; = Y Y.T.T.T.T.T.T.T.T.T.T.T.T.T.T.T.T.Y.T.T.T.",
"T.T.T.T.T.T.T.T.T.T.T.T.T.T.T.T.T.T.T.H.M x 4.V.q.R > ^ 8.@ l 1.O. .6.u % ~ G.T.T.T.T.T.T.T.T.T.T.T.T.T.T.T.T.T.T.T.T.T.",
"T.T.T.T.T.T.T.T.T.T.T.T.T.T.T.T.T.T.T.H.5 =.e.+.| j % b T @ , H C a L : T n.T.T.T.T.T.Y.T.T.T.T.T.Y.T.T.T.T.T.T.T.T.T.T.",
"T.T.T.T.T.T.T.T.T.T.T.T.T.T.T.T.T.T.Y.H.4 ,.^ X - .   o % % + @ & X X g n.T.T.T.T.Y.T.T.T.T.T.T.T.Y.T.T.T.T.T.T.T.T.T.T.",
"T.T.T.T.T.T.T.T.T.T.T.T.T.T.T.T.T.T.T.H.d 5 > X X o + , 4 $ 2 p u ; 2 B.T.T.T.T.T.T.T.T.T.T.T.T.T.T.T.T.T.T.T.T.T.T.T.T.",
"T.T.T.T.T.T.T.T.T.T.T.T.T.T.T.T.T.T.T.Y.b.v +   o q S i = , p 3 * $ 6 G.T.T.T.T.T.T.T.T.T.T.T.T.T.T.Y.T.T.T.T.T.T.T.T.T.",
"T.T.T.T.T.T.T.T.T.T.T.T.T.T.T.T.T.T.T.T.T.8.+.U % j c z c H y V N 0 4 #.H.T.T.T.T.T.T.T.Y.T.T.T.T.T.T.T.T.T.T.T.T.T.T.Y.",
"T.T.T.T.T.T.T.T.T.T.T.T.T.T.T.T.T.T.T.T.T.T.T.n.g e * u ] Q & ) ' B 2 $ i.T.T.T.T.T.T.T.T.T.T.T.T.T.T.T.T.T.T.T.T.T.T.Y.",
"T.T.T.T.T.T.T.T.T.T.T.T.T.T.T.T.T.T.T.T.T.T.Y.Y.n., X ; 4 * + @ 8 9 * - i.T.T.T.T.T.T.T.T.T.T.T.T.T.T.Y.Y.T.T.T.T.T.T.T.",
"T.T.T.T.T.T.T.T.T.T.T.T.T.T.T.T.T.T.T.T.T.T.T.B.F * X o @ @ 2 l q O 1 8.P.T.T.T.T.T.T.T.T.T.T.Y.T.T.T.Y.T.T.T.T.T.T.T.T.",
"T.T.T.T.T.T.T.T.T.T.T.T.T.T.T.T.T.T.T.T.T.T.B.^ $ = @ X X * y H j o 6 H.T.T.T.T.T.T.T.T.T.T.T.T.T.T.T.T.T.T.T.T.T.T.T.T.",
"T.T.T.T.T.T.T.T.T.T.T.T.T.T.T.T.T.T.T.T.T.P./ X * , * + X % 2 j u > 2 H.T.T.T.T.T.T.T.T.T.T.T.T.T.T.T.T.T.T.Y.T.T.Y.T.T.",
"T.T.T.T.T.T.T.T.T.T.T.T.T.T.T.T.T.T.T.T.T.~ $ + * * + X X o , y y ; 2 S.T.T.T.T.T.T.T.T.T.T.T.T.T.T.T.T.T.T.T.T.T.T.T.T.",
"T.T.T.T.T.T.T.T.T.T.T.T.T.T.T.T.T.T.T.T.Y.M X * > & X J / + = 5 4 % 1 H.T.T.T.T.T.T.T.T.T.T.T.T.T.T.T.T.T.T.T.T.T.T.T.T.",
"T.T.T.T.T.T.T.T.T.T.T.T.T.T.T.T.T.T.T.T.Y.M X * e , o -.x.o % y y = ; 8.L.T.T.T.T.T.Y.T.T.T.T.T.T.T.T.T.T.T.T.Y.T.T.T.Y.",
"T.T.T.T.T.T.T.T.T.T.T.T.T.T.T.T.T.T.T.T.Y.T + , f 4 = ,.x.o % u c p * $ i.T.T.T.T.T.T.T.T.T.T.T.T.T.T.T.T.T.T.Y.T.T.Y.Y.",
"T.T.T.T.T.T.T.T.T.T.T.T.T.T.T.T.T.T.T.T.T.S.^ + - - ,.U.i.o o 2 Z I u @ i.T.T.T.T.T.T.T.T.T.T.T.T.T.T.T.T.T.T.T.T.T.T.T.",
"T.T.T.T.T.T.T.T.T.T.T.T.T.T.T.T.T.T.T.T.T.T.b.-.-.>.C.T.H.+.= % y j y #.C.T.T.T.T.T.T.T.T.T.T.T.T.T.T.T.T.T.T.T.T.T.T.T.",
"T.T.T.T.T.T.T.T.T.T.T.T.T.T.T.T.T.T.T.T.T.T.T.T.T.T.T.T.T.L.Y v F F Y L.T.T.T.T.T.T.T.T.T.T.T.T.T.T.T.T.T.T.T.T.T.Y.T.T.",
"T.T.T.T.T.T.T.T.T.T.T.T.T.T.T.T.T.T.T.T.T.T.T.T.T.T.T.T.T.T.I.I.U.U.U.T.T.T.T.T.T.T.T.T.T.T.T.T.T.T.T.T.T.T.T.T.T.T.T.Y.",
"T.T.T.T.T.T.T.T.T.T.T.T.T.T.T.T.T.T.T.Y.T.T.T.T.T.T.T.T.T.T.T.T.T.T.Y.T.T.T.T.T.T.T.T.T.T.T.T.T.T.T.T.T.T.T.T.T.T.T.T.T.",
"T.T.T.T.T.T.T.T.T.Y.T.T.T.T.T.T.T.T.T.T.T.T.T.T.T.T.T.T.T.T.T.T.T.T.T.T.T.T.T.T.T.T.T.T.T.T.T.T.T.T.T.T.T.T.T.T.T.T.T.T.",
"T.T.T.T.T.T.T.T.T.T.Y.T.T.T.T.T.T.T.T.T.T.T.T.Y.T.T.T.T.T.T.T.T.Y.T.T.T.T.T.T.T.T.T.T.T.T.T.T.T.T.T.T.T.T.T.Y.T.T.T.T.T.",
"T.T.T.T.T.T.T.T.T.T.Y.T.T.T.T.T.T.T.T.T.T.T.T.T.T.T.T.T.T.T.T.T.T.T.T.T.T.T.T.T.T.T.T.T.T.T.T.T.T.T.T.T.T.T.T.T.T.T.T.T.",
"T.T.T.T.T.T.T.T.T.T.T.T.T.T.T.T.T.T.T.T.T.T.T.T.T.T.T.T.T.T.Y.Y.T.T.T.T.T.T.T.T.T.T.T.T.T.T.T.T.T.T.T.T.T.T.T.T.T.T.T.T.",
"T.T.T.T.T.T.T.T.T.T.T.T.T.T.T.T.T.T.T.T.T.T.T.T.T.T.T.T.T.T.T.T.T.T.T.T.T.T.T.T.T.T.T.T.T.T.T.T.T.T.T.T.T.T.T.T.T.T.T.T.",
"T.T.T.T.T.T.T.T.T.T.T.T.T.T.T.T.T.T.T.T.T.T.T.T.T.T.T.T.T.T.T.T.T.T.T.T.T.T.T.T.T.T.T.T.T.T.T.T.T.T.T.T.T.T.T.T.T.T.T.T."
};
