/* XPM */
static char *result[] = {
/* columns rows colors chars-per-pixel */
"60 60 179 2 ",
"   c #161717",
".  c #171919",
"X  c #1B1C1B",
"o  c #211E1C",
"O  c #1E201F",
"+  c #22211F",
"@  c #1E2121",
"#  c #232423",
"$  c #2A2622",
"%  c #262825",
"&  c #2B2A26",
"*  c #262929",
"=  c #2B2D2A",
"-  c #312925",
";  c #332D29",
":  c #2F302C",
">  c #33322E",
",  c #39332D",
"<  c #2B2F30",
"1  c #343431",
"2  c #3A3631",
"3  c #343836",
"4  c #3B3A34",
"5  c #3C3E3C",
"6  c #413B35",
"7  c #483934",
"8  c #423F39",
"9  c #483F38",
"0  c #444037",
"q  c #45423B",
"w  c #4B453D",
"e  c #4E483F",
"r  c #51463E",
"t  c #6E453C",
"y  c #3C4040",
"u  c #444443",
"i  c #4C4642",
"p  c #4E4A42",
"a  c #454748",
"s  c #474849",
"d  c #4C4C4B",
"f  c #594540",
"g  c #534B42",
"h  c #594F47",
"j  c #574F48",
"k  c #575046",
"l  c #595146",
"z  c #56514B",
"x  c #5C544A",
"c  c #525454",
"v  c #5B5551",
"b  c #5D5955",
"n  c #5C5C5C",
"m  c #684C44",
"M  c #625247",
"N  c #60574A",
"B  c #62594D",
"V  c #7C574E",
"C  c #655C53",
"Z  c #6A5F53",
"A  c #635E59",
"S  c #685F58",
"D  c #6C6154",
"F  c #61615D",
"G  c #6C645B",
"H  c #726556",
"J  c #72675B",
"K  c #75695B",
"L  c #7B6C5C",
"P  c #5D5F60",
"I  c #5D6062",
"U  c #636463",
"Y  c #6E6661",
"T  c #6C6B6A",
"R  c #746B62",
"E  c #786E64",
"W  c #736D6A",
"Q  c #7B7166",
"!  c #7C756B",
"~  c #6D6F70",
"^  c #6F7273",
"/  c #727475",
"(  c #975C4F",
")  c #93685C",
"_  c #A86A5B",
"`  c #81776C",
"'  c #83796E",
"]  c #867C72",
"[  c #887F73",
"{  c #827E7D",
"}  c #A87869",
"|  c #B77969",
" . c #93806E",
".. c #86837F",
"X. c #8C8479",
"o. c #978270",
"O. c #90867A",
"+. c #938A7E",
"@. c #C08E7F",
"#. c #D18F7D",
"$. c #807F80",
"%. c #868483",
"&. c #8C8785",
"*. c #878987",
"=. c #8B8A87",
"-. c #8D8D8D",
";. c #968C81",
":. c #988E82",
">. c #948E89",
",. c #9A9185",
"<. c #95928F",
"1. c #9D9488",
"2. c #939495",
"3. c #989593",
"4. c #9C9995",
"5. c #9B9B9A",
"6. c #A39A8D",
"7. c #A49B91",
"8. c #A49E97",
"9. c #ACA296",
"0. c #A5A19E",
"q. c #B1A69D",
"w. c #B4AA9C",
"e. c #9FA1A0",
"r. c #A6A7A7",
"t. c #A9A7A6",
"y. c #ADA9A6",
"u. c #AAABAB",
"i. c #B5ADA3",
"p. c #B0AEAD",
"a. c #BAB2A6",
"s. c #B4B4B3",
"d. c #BDBAB7",
"f. c #BBBBBB",
"g. c #C79383",
"h. c #DD9B89",
"j. c #DAA594",
"k. c #E8B19E",
"l. c #C2BAAD",
"z. c #C7BFB2",
"x. c #C9C2B6",
"c. c #C6C0B8",
"v. c #CDC6BA",
"b. c #D1CABE",
"n. c #BEC0C1",
"m. c #C6C5C4",
"M. c #C9C7C5",
"N. c #CBC9C7",
"B. c #CCCBCC",
"V. c #D4CEC3",
"C. c #D0CECC",
"Z. c #D8D3CB",
"A. c #DBD4CA",
"S. c #D3D3D2",
"D. c #D7D8D7",
"F. c #DEDAD2",
"G. c #DCDCDB",
"H. c #E2DDD4",
"J. c #E0DEDF",
"K. c #E5E1D7",
"L. c #E6E1DA",
"P. c #EAE6DD",
"I. c #ECE8DF",
"U. c #E4E3E3",
"Y. c #EDE9E2",
"T. c #E7E8E9",
"R. c #EAEAEA",
"E. c #F0EDE6",
"W. c #F2EFEB",
"Q. c #EFF0EE",
"!. c #F3F1ED",
"~. c #EFEFF0",
"^. c #F4F4F3",
"/. c #F8F6F6",
"(. c #F9F8F6",
"). c #F6F7F8",
"_. c #F8F7F8",
"`. c #F7F8F8",
"'. c #FCFCFC",
/* pixels */
"'.'.'.'.'.'.'.'.'.'.'.'.'.'.'.'.'.'.'.'.'.'.(.'.'.'.'.'.'.'.'.'._.'.'.'.'.'.'.'.'.'.'.'.'.'.'.'.'.'.'.'.'.'.'.'.'.'.'.'.",
"'.'.'.'.'.'.'.'.'.'.'.'.'.'.'.'.'.'.'.'.'.'.'.'.'.'.'.'.'.'.'.'.'.'.'.'.'.'.'.'.'.'.'.'.'.'.'.'.'.'.'.'.'.'.'.'.'.'.'.'.",
"'.'.'.'.'.'.'.'.'.'.'.'.'.'.'.'.'.'.'.'.'.'.'.'.'.'.'.'.'.'.'.'.'.'.'.'.'.'.'.'.'._.'.'.'.'.'.'.'.'.'.'.'.'.'.'.'.'.'.'.",
"'.'.'.'.'.'.'.'.'.'.'.'.'.'.'.'.'.'.'.'.'.'.'.'.'.'.'.'.'.'.'.'.'.'.'.'.'.'.'.'.'.'.'.'.'.'.'.'.'.'.'._.'.'.'.(.'.'.`.'.",
"'.'.'.'.'.'.'.'.'.'.'.'.'.'.'.'.'.'.'.'.'.'.'.'.'.'.'.'.'.'.'.'.'.'.'.'.'.'.'.'.'.'.'.'.'.'.'.'.'.'.'.'.(.(.'.'.(.'.'.'.",
"'.'.'.'.'.'.'.'.'.'.'.'.'.'.'.'.'.'.'.'.'.'.'.'.'.'.'.'.'.'.'.'.'.'.'.'.'.'.'.'.'.'.'.'.'.'.'.'.'.'.'.'.'.'.'.'.'.'.`.'.",
"'.'.'.'.'.'.'.'.'.'.'.'.'.'.'.'.'.'.'.'.'.'.'.'.'.'.'.U.N.N.C.N.m.C.^.'.'.'.'.'.'.'.'.'.'.'.(.'.'.'.'.'.'.'.'.'.'.(.'.'.",
"'.'.'.'.'.'.'.'.'.'.'.'.'.'.'.'.'.'.'.'.'.'.'.'.'.'.^.8.9 g g 9 6 b N.(.'.'.'.'.'.'.'.'.'.'.'.'.'.'.'.(.'.'.'.'.'.'.'.'.",
"'.'.'.'.'.'.'.'.'.'.'.'.'.'.'.'.'.'.'.'.'.'.'.'.'.J.{ 9 o % & % O $ v 0.`.'.'.'.'.'.'.'.'.'.'.'.'.'.'.'.'.'.'.'.'.'.'.'.",
"'.'.'.'.'.'.'.'.'.'.'.'.'.'.'.'.'.`.'.'.'.'.'.'.m.$.; & 4 g z j w 2 # p 5.J.'.'.'.'.'.'.'.'.'.'.'.'.'.'.'.'.'.'.'.'.'.'.",
"'.'.'.'.'.'.'.'.'.'.'.'.'.'.'.'.'.'.'.'.'.'.~.S.W ; 1 b X.6.9.8.1.! i > 2 3.J._.'.'.'.'.'.'.'.'.'.'.'.'.'.'.'.'.'.'.'.'.",
"'.'.'.'.'.'.'.'.'.'.'.'.'.'.'.'.'.'.'.'.'.'.z.S 2 q ,.c.F.H.H.H.H.A.a.! 1 2 W J.'.'.'.'.'.'.'.'.'.'.'.'.'.'.(.'.(.'.'.(.",
"'.'.'.'.'.'.'.'.'.'.'.'.'.'.'.'.'.'.'.'.'.'.d.k G 6.F.E.P.P.I.P.!./.K.l.X.x J U.'.'.'.'.'.'.'.'.'.'.'.'.'.'.(.'.'.'.'.'.",
"'.'.'.'.'.'.'.'.'.'.'.'.'.'.'.'.'.'.'.'.^.M.>.S 7.F.!./.W.P.Y.W.!./.!.I.v.[ Y t.D.'.'.'.'.'.'.'.'.'.'.'.'.'.'.'.(.'.'.'.",
"'.'.'.'.'.'.'.'.'.'.'.'.'.'.'.'.'.'.'.'.U.W x ! l.I.P.W.(.E.E.(.!.I.!.^.H.7.G g 4.'.'.'.'.'.'.'.'.'.(.'.'.'.'.'.'.'.'.'.",
"'.'.'.'.'.'.'.'.'.'.'.'.'.'.'.'.'.'.'.'.L.W C +.x.I.P.P.Y.P.P.Y.Y.H.v.V.H.i.` x 4.'.'.'.'.'.'.'.'.'.'.'.'.'.'.'.'.'.'.'.",
"'.'.'.'.'.'.'.'.'.'.'.'.'.'.'.'.'.'.'.'.J.Y C 9.A.H.V.A.P.P.P.P.Y.H.z.v.K.x.+.g <._.'.'.'.'.'.'.'.'.'.'.'.'.'.'.'.'.'.'.",
"'.'.'.'.'.'.'.'.'.'.'.'.'.'.'.'.'.'.'.'.G.A b 8.b.V.w.z.L.H.F.P.H.V.a.l.V.x.O.9 =.'.'.'.'.'.'.'.'.'.'.'.'.'.'.'.'.'._.'.",
"'.'.'.'.'.'.'.'.'.'.'.'.'.'.'.'.'.'.'.'.J.A g X.q.w.:.a.A.x.z.H.b.w.:.6.w.6.E ; %._.'.'.'.'.'.'.'.'.'.'.'.'.'.'.'.'.'.'.",
"'.'.'.'.'.'.'.'.'.'.'.'.'.'.'.'.'.'.'.'.G.z , x [ +.` 6.l.9.6.l.w.:.' [ ,.Q r $ %.'.'.'.'.'.'.'.'.'.'.'.'.'._.'._.'._.'.",
"'.'.'.'.'.'.'.'.'.'.'.'.'.'.'.'.'.'.'.'.R.p.W 7 j J R Q ' O.+.+.` J R R G g i &.m.'.'.'.'.'.'.'.'.'.'.'.'.'.'.'.'.'.'.'.",
"'.'.'.'.'.'.'.'.'.'.'.'.'.'.'.'.'.'.'.'.'.'.u.- 6 x N f r `  .H f 7 x j 9 x &.R.'.'.'.'.'.'.'.'.'.'.'._.'.'.'.'.'.'.'._.",
"'.'.'.'.'.'.'.'.'.'.'.'.'.'.'.'.'.'.'.'.'.'.p.5 j x ; ; r Z D p ; $ ; , 9 y.^.'.'.'.'.'.'.'.'.'.'.'.'._.'.'.'.'.'.'.'.'.",
"'.'.'.'.'.'.'.'.'.'.'.'.'.'.'.'.'.'.'.'.'.'.T.m.W ; X o - 6 4 - - - o X = p.'.'.'.'.'.'.'.'.'.'.'.'.'.'.'.'.'.'.'.'.'.'.",
"'.'.'.'.'.'.'.'.'.'.'.'.'.'.'.'.'.'.'.'.'.'.G.5.C ; # + & $ + + & > X # 2 T u.^.'.'.'.'.'.'.'.'.'.'.'.'.'.'.'.'.'.'.'.'.",
"'.'.'.'.'.'.'.'.'.'.'.'.'.'.'.'.'.'.'.'.).G.*.& w h = = 4 6 7 , 4 1 # 2 N 2 u s.U.'.'.'.'.'.'.'.'.'.'.'.'.`.'.'.'.'.'.'.",
"'.'.'.'.'.'.'.'.'.'.'.'.'.'.'.'.'.'.'.'.G.n > 4 Z D = & e } | ( m 0 @ 0 L k > 1 -._.'.'.'.'.'.'.'.`.`.'.'.'.'.'.'.'.'.'.",
"'.'.'.'.'.'.'.'.'.'.'.'.'.'.'.'.'.'.'.'.J.c 4 D K k & f } #.h.j.g.) 2 2 Z K x & *.'.'.'.'.'.'.'.`.'.'.'.'.'.'.'.'.'.'.'.",
"'.'.'.'.'.'.'.'.'.'.'.'.'.'._.'.'.'.'.B.<.5 > j e , # 7 ) | #.k.@.V - # 4 j i & n u.U.'.'.'.'.'.'.'.'.'.'.'.'.'.'.'.'.'.",
"'.'.'.'.'.'.'.'.'.'.'.'.'.'.'.'.'.'.'.*.. X # # X . .   o t _ | m .   . . @ $ X . 1 z.'.'.'.'.'.'.'.'.'.'.'.'.'.'.'.'._.",
"'.'.'.'.'.'.'.'.'.'.'.'.'.'.'.'.'.'.).%.X = 0 e , O . X & r M r > + . X $ 6 e 2 # < f._.'.'.'.'.'.'.'.'.'.'.'.(.'.'.'._.",
"'.'.'.'.'.'.'.'.'.'.'.'.'.'.'.'.'.S.$.u % 0 e w > # . . # 4 4 & # O . X % 4 i g 2 * n e.W.'.'.'.'.'.'.'.'.'.'.'._.'.'.'.",
"'.'.'.'.'.'.'.'.'.'.'.'.'.'.'.'.'.f.= X ; x k > $ O . O % 1 1 % # @ O O + % 4 B e + . b T.'.'.'.'.'.'.'.'.'.'.'.'.'.'.'.",
"'.'.'.'.'.'.'.'.'.'.'.'.'.'.'.'.'.f.< o 2 S B > X . @ & 4 0 4 = : > @ O . # 0 K l : X I T.'.'.'.'.'.'.'.'.'.'.'.'.'.'.'.",
"'.'.'.'.'.'.'.'.'.'.'.'.'.'.'.'.'.f.1 9 S g j S 2 O 2 > : w e 4 = : 3 = + g F e x C = n R.'.'.'.'.'.'.'.'.'.'.'.'.'.'.'.",
"'.'.'.'.'.'.'.'.'.'.'.'.'.'.'.^.r.~ j ] q.y...p & = v p > x D e 2 > N e + > F 4.i.7.G v $.N.'.'.'.'.'.'.'.'.'.'.'.'._.'.",
"'.'.'.'.'.'.'.'.'.'.'.'.'.'.'.T.c 1 ' l.H.F.=.# X 4 B Z x H L H x e Z l : . u s.H.A.8.A # -.'.'.'.'.`.'.'.'.'.'.'.'.'.'.",
"'.'.'.'.'.'.'.'.'.'.'.'.'.'.'.R.U u ;.C.Z.T = X > 4 & N  .H H o. .H 2 : 0 + O 4 8.J.l.W 1 5.'.'.'.'.'.'.'.'.'.'.'.'.'.'.",
"'.'.'.'.'.'.'.'.'.'.'.'.'.'.'.(.S.5.d b F 3 X X X + X 2 B B B B x q + O + O . O s Y j U s.U.'.'.'.'.'.'.'.'.'.'.'.'.'.'.",
"'.'.'.'.'.'.'.'.'.'.'.'.'.'.'.'.'.J.-.d # X y / u   X + % 2 , & % + O . O n T @ O % U u._.'.'.'.'.`.'.'.'.'.'.'.'.'.'.'.",
"'.'.'.'.'.'.'.'.'.'.'.'.'.'.'.'.'.'.'.e.s a -.T./ X % % + X   . # & # X * s.G.I a P B.'._.'.'.'.'.'.'.'.'.'.'.'.'.'.'.'.",
"'.'.'.'.'.'.'.'.'.'.'.'.'.'.'.'.'.'.'.~.T.T.Q.~./ # > q r & . # k D 2 O * u.`.T.U.T.).'.'.'.'.'.'.'.'.`.'.'.'.'.'.'.'.'.",
"'.'.'.'.'.'.'.'.'.'.'.'.'.'.'.'.'.'.'.'.'.'.'.~./ # 1 q w $ X > g B 4 * < u.'.'.'.'.'.'.'.'.'.'.'.'.'.'.'.'.'.'.'.'.'.'.",
"'.'.'.'.'.'.'.'.'.'.'.'.'.'.'.'.'.'.'.'.'.'.'.Q.^ @ : 4 q $ @ 2 e e 5 = < u.'.'.'.'.'.'.'.'.'.'.'.'.'.`.'.'.`.`.'.`.'.'.",
"'.'.'.'.'.'.'.'.'.'.'.'.'.'.'.'.'.'.'.'.'.'.'.Q.^ @ @ 0 l - X > 0 q 4 * * u.'.'.'.'.`.'.'.'.'.'.'.'.'.'.'.'.'.'.'.`.'.'.",
"'.'.'.'.'.'.'.'.'.'.'.'.'.'.'.'.'.'.'.'.'.'.'.^./ @ @ g K 2 . & 2 8 : @ < u.'.'.'.'.'.'.'.'.'.'.'.'.'.'.'.'.'.`.'.'.'.'.",
"'.'.'.'.'.'.'.'.'.'.'.'.'.'.'.'.'.'.'.'.'.'.'.~.^ @ @ 4 g & . # 0 e : O < u.'.'.'.'.'.'.'.'.'.'.'.'.'.'.'.'.'.'.'.'.'.'.",
"'.'.'.'.'.'.'.'.'.'.'.'.'.'.'.'.'.`.'.'.'.'.'.^.e.c # * = @ . @ e x > O * r.'.'.'.'.'.'.'.'.'.`.`.'.'.'.'.'.'.'.'.'.`.'.",
"'.'.'.'.'.'.'.'.'.'.'.'.'.'.'.'.'.'.'.'.'.'.'.'.'.B.c 3 3 > * @ e H > @ y s.`.'.'.'.'.'.'.'.'.'.'.'.'.'.'.'.'.'.`.'.'.`.",
"'.'.'.'.'.'.'.'.'.'.'.'.'.'.'.'.'.'.'.'.'.'.'.'.'.^.D.S.S.S.5.< = > @ I B.Q.'.'.'.'.'.'.'.'.'.'.'.'.'.'.'.'.'.'.'.'.'.'.",
"'.'.'.'.'.'.'.'.'.'.'.'.'.'.'.'.'.'.'.'.'.'.'.'.'.'.'.'.'.'.U.e.2.2.2.n.'.'.'.'.'.'.'.'.'.'.'.'.'.'.'.'.(.'.'.'.'.'.'.'.",
"'.'.'.'.'.'.'.'.'.'.'.'.'.'.'.'.'.'.'.'.'.'.'.'.'.'.'.'.'.'.`.'.'.'.'.'.'.'.'.'.'.'.'.'.'.'.'.'.'.'.'.'.'.'.'.'.`.'.'.'.",
"'.'.'.'.'.'.'.'.'.'.'.'.'.'.'.'.'.'.'.(.'.'.'.'.'.'.'.'.'.'.(.'.'.'.'.'.'.'.'.'.'.'.'.'.'.'.'.'.'.'.'.'.'.'.'.'.'.'.'.'.",
"'.'.'.'.'.'.'.'.'.'.'.'.'.'.'.'.'.'.'.'.'.'.'.'.'.'.'.'.'.'.'.'.'.'.'.'.'.'.'.'.'.'.'.'.'.'.'.'.'.'.'.'.'.'.'.'.'.'.(.'.",
"'.'.'.'.'.'.'.'.'.(.'.'.'.'.'.'.'.'.'.'.'.'.'.'.'.'.'.'.'.'.'.'.'.'.'.'.`.'.'.'.'.'.'.'.'.'.'.'.'.'.'.'.'.'.'.'.'.'.'.'.",
"'.'.'.'.'.'.'.'.'.'.(.'.'.'.'.'.'.'.'.'.'.'.'.'.'.'.'.'.'.'.'.'.'.'.'.'.'.'.'.'.'.'.'.'.'.'.'.'.'.'.'.'.'.'._.'.'.'.'.'.",
"'.'.'.'.'.'.'.'.'.'.'.'.'.(.'.'.'.'.'.'.'.'.'.'.'.'.'.'.'.'.'.'.'.'.'.'.'.'.'.'.'.'.'.'.'.'.'.'.'.'.'.'.'.'.'.'.'.'.'.'.",
"'.'.'.'.'.'.'.'.'.'.'.'.'.'.'.'.'.'.'.'.'.'.'.'.'.'.'.'.'.'.(.'.'.'.'.'.'.'.'.'.'.'.'.'.'.'.'.'.'.'.'.'.'.'.'.'.'.'.'.'.",
"'.'.'.'.'.'.'.'.'.'.'.'.'.'.'.'.'.'.'.'.'.'.'.'.'.'.'.'.'.'.'.'.'.'.'.'.'.'.'.'.'.'.'.'.'.'.'.'.'.'.'.'.'.'.'.'.'.'.'.'.",
"'.'.'.'.'.'.'.'.'.'.'.'.'.'.'.'.'.'.'.'.(.'.'.'.'.'.'.'.'.'.'.'.'.'.'.'.'.'.'.'.'.'.'.'.'.'.'.'.'.'.'.'.'.'.'.'.'.'.'.'."
};
