/* XPM */
static char *result[] = {
/* columns rows colors chars-per-pixel */
"60 60 150 2 ",
"   c #161717",
".  c #171919",
"X  c #1B1C1C",
"o  c #201D1C",
"O  c #1F201F",
"+  c #24211E",
"@  c #1E2221",
"#  c #242523",
"$  c #2B2623",
"%  c #262826",
"&  c #2B2A26",
"*  c #2B2C29",
"=  c #322B26",
"-  c #342E29",
";  c #2E302B",
":  c #34332E",
">  c #3A332D",
",  c #2E3132",
"<  c #353432",
"1  c #3C3732",
"2  c #3C3A34",
"3  c #3E3C3B",
"4  c #423B34",
"5  c #433E3A",
"6  c #493F38",
"7  c #523A33",
"8  c #46433B",
"9  c #4A443C",
"0  c #4E483F",
"q  c #5C433C",
"w  c #66453B",
"e  c #4D4741",
"r  c #4C4A43",
"t  c #494B4B",
"y  c #544B43",
"u  c #584E46",
"i  c #574F49",
"p  c #5B5145",
"a  c #54504E",
"s  c #5D544B",
"d  c #535353",
"f  c #5E5752",
"g  c #5A5A56",
"h  c #565758",
"j  c #575A5B",
"k  c #5B5B5B",
"l  c #61574E",
"z  c #61584C",
"x  c #695E4F",
"c  c #7A594F",
"v  c #645C54",
"b  c #695E50",
"n  c #625D5A",
"m  c #6C6157",
"M  c #65615B",
"N  c #6D635B",
"B  c #726556",
"V  c #746759",
"C  c #73695F",
"Z  c #7C6E5D",
"A  c #636363",
"S  c DimGray",
"D  c #756D64",
"F  c #766F6B",
"G  c #7A7269",
"H  c #6D6F70",
"J  c #767675",
"K  c #7B7B7A",
"L  c #926155",
"P  c #9E6356",
"I  c #9D6A5B",
"U  c #847362",
"Y  c #80766B",
"T  c #847A6F",
"R  c #847C74",
"E  c #887E73",
"W  c #827E7C",
"Q  c #AD796B",
"!  c #B47F6F",
"~  c #8C8276",
"^  c #8F857B",
"/  c #C5806F",
"(  c #D28E7C",
")  c #868484",
"_  c #898683",
"`  c #8B8B8C",
"'  c #968E84",
"]  c #9B9286",
"[  c #9D9589",
"{  c #939393",
"}  c #999795",
"|  c #9F9A94",
" . c #9D9B9A",
".. c #A3998D",
"X. c #A39B92",
"o. c #AAA194",
"O. c #ADA59A",
"+. c #B1A799",
"@. c #B4AB9D",
"#. c #A6A8A9",
"$. c gray68",
"%. c #B8AFA1",
"&. c #BBB3A5",
"*. c #B3B5B5",
"=. c #B9B7B5",
"-. c #BAB9BA",
";. c #C69282",
":. c #D69281",
">. c #E1A795",
",. c #C0B7AA",
"<. c #C2B9AB",
"1. c #C8C1B6",
"2. c #C3C0BF",
"3. c #CEC7BB",
"4. c #C2C2C3",
"5. c #CCCDCD",
"6. c #D3CDC3",
"7. c #D0CECD",
"8. c #D7D1C5",
"9. c #D3D1CD",
"0. c #DCD6CB",
"q. c #DED9CE",
"w. c #D1CFD0",
"e. c #D4D4D4",
"r. c #D8D6D4",
"t. c #DCD9D3",
"y. c #DBDADA",
"u. c #E1DCD2",
"i. c #E4E0D6",
"p. c #E6E1D8",
"a. c #EAE6DD",
"s. c #ECE8DF",
"d. c #DFE0E0",
"f. c #E4E3E3",
"g. c #E8E7E6",
"h. c #EDE9E2",
"j. c #E7E7E9",
"k. c #E8E6E8",
"l. c #EDECED",
"z. c #F1EEE7",
"x. c #F2EFEA",
"c. c #F2F1ED",
"v. c #F0EFF1",
"b. c #EFF0F1",
"n. c #F5F5F4",
"m. c #F8F7F4",
"M. c #F9F8F7",
"N. c #F7F7F8",
"B. c #F7F8F8",
"V. c #FCFCFC",
/* pixels */
"V.V.V.V.V.V.V.V.V.V.V.V.V.V.V.V.V.V.V.V.V.V.M.V.V.V.V.V.V.V.V.V.V.M.V.V.V.V.V.V.V.V.V.V.V.V.V.V.V.V.V.V.V.V.V.V.V.V.V.V.",
"V.V.V.V.V.V.V.V.V.V.V.V.V.V.V.V.V.V.V.V.V.V.V.V.V.V.V.V.V.V.V.V.V.V.V.V.V.V.V.V.V.V.V.V.V.V.V.V.V.V.V.V.V.V.V.V.V.V.V.V.",
"V.V.V.V.V.V.V.V.V.V.V.V.V.V.V.V.V.V.V.V.V.V.V.V.V.V.V.V.V.V.V.V.V.V.V.V.V.V.V.V.V.V.V.V.V.V.V.V.V.V.V.V.V.V.V.M.V.V.B.V.",
"V.V.V.V.V.V.V.V.V.V.V.V.V.V.V.V.V.V.V.V.V.V.V.V.V.V.V.V.V.V.V.V.V.V.V.V.V.V.V.V.V.V.V.V.V.V.V.V.V.V.V.M.M.V.V.V.V.V.V.B.",
"V.V.V.V.V.V.V.V.V.V.V.V.V.V.V.V.V.V.V.V.V.V.V.V.V.V.V.V.V.V.V.V.V.V.V.V.V.V.V.V.V.V.V.V.V.V.V.V.V.V.V.V.V.M.V.V.V.V.V.V.",
"V.V.V.V.V.V.V.V.V.V.V.V.V.V.V.V.V.V.V.V.V.V.V.V.V.V.V.V.V.V.V.V.V.V.V.V.V.V.V.V.V.V.V.V.V.V.V.V.V.V.V.V.V.V.V.V.V.V.M.V.",
"V.V.V.V.V.V.V.V.V.V.V.V.V.V.V.V.V.V.V.V.V.V.V.V.V.V.V.V.V.V.V.V.V.V.V.V.V.V.V.V.V.V.V.V.V.V.M.V.V.V.V.V.V.M.V.V.V.V.V.V.",
"V.V.V.V.V.V.V.V.V.V.V.V.V.V.V.V.V.V.V.V.V.V.V.V.V.V.V.V.V.V.V.V.V.V.V.V.V.V.V.V.V.V.V.V.V.V.V.V.V.V.V.V.V.V.V.V.V.V.M.V.",
"V.V.V.V.V.V.V.V.V.V.V.V.V.V.V.V.V.V.V.V.V.V.V.V.V.V.V.V.B.V.V.V.V.V.V.V.V.V.V.V.V.V.V.V.V.V.V.V.V.V.V.V.V.V.V.V.V.V.M.V.",
"V.V.V.V.V.V.V.V.V.V.V.V.V.V.V.V.V.V.V.V.V.V.V.V.V.V.V.V.V.V.V.V.V.V.V.V.V.V.V.V.V.V.V.V.V.V.V.V.V.V.V.V.V.V.V.V.V.V.V.V.",
"V.V.V.V.V.V.V.V.V.V.V.V.V.V.V.V.V.V.V.V.V.V.V.V.B.y.r.r.e.y.B.V.V.V.V.V.V.V.V.V.V.V.V.V.V.V.V.V.V.V.V.V.V.V.M.V.M.V.V.V.",
"V.V.V.V.V.V.V.V.V.V.V.V.V.V.V.V.V.V.V.V.V.V.V.N.f.f i y 5 g d.V.V.V.V.V.V.V.V.V.V.V.V.V.V.V.V.V.V.V.V.V.V.V.V.V.V.V.V.V.",
"V.V.V.V.V.V.V.V.V.V.V.V.V.V.V.V.V.V.V.V.V.V.=.F D % % * + % D r.V.V.V.V.V.V.V.V.V.V.V.V.V.V.V.V.V.V.V.V.V.V.V.M.V.V.M.V.",
"V.V.V.V.V.V.V.V.V.V.V.V.V.V.V.V.V.V.V.V.V.5.F = # : 9 y 9 < $ ) y.V.V.V.V.V.V.V.V.V.V.V.V.V.V.V.V.M.V.V.V.V.V.V.M.V.V.V.",
"V.V.V.V.V.V.V.V.V.V.V.V.V.V.V.V.V.V.V.V.V.R 4 & 1 G ] ..] G 1 & _ l.V.V.V.V.V.V.V.V.V.V.V.V.V.V.V.V.M.V.V.V.V.V.V.V.V.V.",
"V.V.V.V.V.V.V.V.V.V.V.V.V.V.V.V.V.V.V.V.N.R > r o.6.t.t.t.6.o.r - W V.V.V.V.V.V.V.V.V.V.V.V.V.V.V.V.V.V.V.V.V.V.V.V.V.V.",
"V.V.V.V.V.V.V.V.V.V.V.V.V.V.V.V.V.V.V.b.| N N | a.a.s.a.z.n.q.[ s i X.v.V.V.V.V.V.V.V.V.V.V.V.V.V.V.V.V.V.V.V.V.V.V.V.V.",
"V.V.V.V.V.V.V.V.V.V.V.V.V.V.V.V.V.V.V.g.v D O.u.m.x.s.h.c.m.c.0.' y n k.V.V.V.V.V.V.V.V.V.V.V.V.V.V.V.V.V.V.V.V.V.V.N.N.",
"V.V.V.V.V.V.V.V.V.V.V.V.V.V.V.V.V.V.V.y.N ..8.a.h.M.z.x.n.s.n.z.O.l l k.V.V.V.V.V.V.V.V.V.V.V.V.V.V.V.V.V.V.N.V.V.V.V.V.",
"V.V.V.V.V.V.V.V.V.V.V.V.V.V.V.V.V.V.9.D E <.a.a.a.h.a.h.z.p.3.i.X.9 y f.V.V.V.V.V.V.V.V.V.V.V.V.V.V.V.V.V.V.V.V.V.V.V.V.",
"V.V.V.V.V.V.V.V.V.V.V.V.V.V.V.V.V.V.2.e ..0.u.0.s.a.s.s.a.i.<.u.X.1 5 f.V.V.V.V.V.V.V.V.V.V.V.V.V.V.V.V.V.V.V.V.V.V.V.N.",
"V.V.V.V.V.V.V.V.V.V.V.V.V.V.V.V.V.f. .s +.6.,.%.u.a.u.p.p.0.&.3.' > e f.V.V.V.M.V.V.V.V.V.V.V.V.V.V.V.N.V.V.V.V.V.V.V.V.",
"V.V.V.V.V.V.V.V.V.V.V.V.V.V.V.V.V.} r ^ @.X.R E ,.q.1.3.q.%...@.G > s h.V.V.V.V.V.V.V.V.V.V.B.V.V.V.V.V.V.V.V.V.V.V.V.V.",
"V.V.V.V.V.V.V.V.V.V.V.V.V.V.V.V.V.f.} e Y b D T C ....@.<...+.o.v + 9 f.V.V.V.V.V.V.V.V.V.V.V.V.V.V.V.V.V.V.V.V.V.V.N.V.",
"V.V.V.V.V.V.V.V.V.V.V.V.V.V.V.V.V.V.y.W y i V b y ~ ^ E R ~ o.E 9 4 } l.V.V.V.V.V.V.V.V.V.V.V.V.V.V.V.V.V.N.V.V.N.V.V.V.",
"V.V.V.V.V.V.V.V.V.V.V.V.V.V.V.V.V.V.V.k.n f y 6 z T V y 9 b T l - a r.N.V.V.V.V.V.V.V.V.V.V.V.V.V.N.V.V.V.V.V.V.V.V.V.V.",
"V.V.V.V.V.V.V.V.V.V.V.V.V.V.V.V.V.V.V.V.f.n + 4 b u 4 = $ 4 y 4 $ + t d.V.M.V.V.V.V.V.V.V.V.V.V.V.V.V.V.V.V.V.V.V.V.V.V.",
"V.V.V.V.V.V.V.V.V.V.V.V.V.V.V.V.V.V.V.j.K v p 8 2 = + $ $ = > $ 8 p < k e.V.V.V.V.V.V.V.V.V.V.V.V.N.N.V.B.V.V.V.V.V.V.V.",
"V.V.V.V.V.V.V.V.V.V.V.V.V.V.V.N.V.V.k.{ * 9 y 1 @ = 7 w 7 > % : r u ; O K e.V.V.V.V.V.V.V.V.V.V.V.V.V.V.V.V.V.V.V.V.V.V.",
"V.V.V.V.V.V.V.V.V.V.V.V.V.V.V.V.V.V.-.X % % O . # u ! / L q # 5 4 % # @ . ` V.V.V.V.V.V.V.V.V.V.V.V.V.V.V.V.V.V.V.V.V.V.",
"V.V.V.V.V.V.V.V.V.V.V.V.V.V.V.V.V.V.-.@ : 0 1 X $ Q ( >.>.Q & O & 2 y < X ` V.V.V.V.V.V.V.V.V.V.V.V.V.V.V.V.V.V.N.V.V.N.",
"V.V.V.V.V.V.V.V.V.V.V.V.V.V.V.V.V.V.-.o * 1 & X o q P :.;.u # K S & 2 s - 8  .M.V.V.V.V.V.V.V.V.V.V.V.V.V.V.M.V.V.V.V.V.",
"V.V.V.V.V.V.V.V.V.V.V.V.V.V.V.V.V.V.7.k * @ X .   . w I c O . 4.` . 2 ..M $ j M.V.V.V.V.V.V.V.V.V.V.V.V.V.V.V.V.V.V.V.V.",
"V.V.V.V.V.V.V.V.V.V.V.V.V.V.V.V.V.V.V.d.t , % . . # 9 0 : @ O 4.{ O r 9.X.9 h M.V.V.V.V.M.V.V.V.V.V.V.V.V.V.V.V.V.V.V.V.",
"V.V.V.V.V.V.V.V.V.V.V.V.V.V.V.V.V.V.V.M.e.y.J . . X < : @ @ . 2.{ . * h ' k j V.V.V.V.V.V.V.V.V.V.V.V.V.V.V.V.V.V.V.V.V.",
"V.V.V.V.V.V.V.V.V.V.V.V.V.V.V.V.V.V.V.V.V.$.d X . * < : % % O A { J X O r J *.V.V.V.V.V.V.V.V.V.V.V.V.V.V.V.V.V.V.V.N.V.",
"V.V.V.V.V.V.V.V.V.V.V.V.V.V.V.V.V.V.V.n.4.t O % < < 8 2 & : % O J #.h d t #.V.V.V.V.M.V.V.V.V.V.V.V.V.V.V.V.V.V.V.V.V.V.",
"V.V.V.V.V.V.V.V.V.V.V.V.V.V.V.V.V.V.V.f.3 O X > V < 0 0 ; * 8 ; O k f.l.b.B.V.V.V.V.V.V.V.V.V.V.V.V.B.V.V.V.V.V.V.V.V.V.",
"V.V.V.V.V.V.V.V.V.V.V.V.V.V.V.V.V.V.V.f.< X & 2 8 U U x 8 2 B : X ; S j.V.V.V.V.V.V.V.V.V.V.V.V.V.V.V.V.V.V.V.V.V.V.V.V.",
"V.V.V.V.V.V.V.V.V.V.V.V.V.V.V.V.V.V.V.b.` < # % % V Z Z Z s p 2 # X < f.V.V.V.V.V.V.V.V.M.V.V.V.V.V.V.V.B.B.V.V.V.V.V.V.",
"V.V.V.V.V.V.V.V.V.V.V.V.V.V.V.V.V.V.V.V.V.K % . . > 8 V ~ m * : & @ k j.V.V.V.V.V.V.V.V.V.V.V.V.V.V.V.V.V.V.V.V.V.V.V.V.",
"V.V.V.V.V.V.V.V.V.V.V.V.V.V.V.V.V.V.V.V.V.n.W . . X O : 0 2 X . X j k.N.V.V.V.V.V.V.V.V.V.V.V.V.V.V.V.B.V.V.V.V.V.V.V.V.",
"V.V.V.V.V.V.V.V.V.V.V.V.V.V.V.V.V.V.V.V.V.V.` . + 8 & + + O O O A 5.V.V.V.V.V.V.V.V.V.V.V.V.V.V.V.V.V.B.B.V.V.V.V.V.V.V.",
"V.V.V.V.V.V.V.V.V.V.V.V.V.V.V.V.V.V.V.V.V.V.) X & x 2 . X - ; @ ` V.V.V.N.V.V.V.V.V.V.V.V.V.V.V.V.V.V.V.V.V.V.V.V.V.V.V.",
"V.V.V.V.V.V.V.V.V.V.V.V.V.V.V.V.V.V.V.V.V.V.` . & B 4 . % u 2 @ ` V.V.V.V.V.V.V.V.V.V.V.V.M.M.V.V.V.B.V.V.V.N.V.V.V.B.V.",
"V.V.V.V.V.V.V.V.V.V.V.V.V.V.V.V.V.V.V.V.V.V.) . O 4 +   % 8 2 % ` V.V.V.V.V.V.V.V.V.V.V.V.V.V.V.V.V.V.V.V.V.V.V.V.V.V.V.",
"V.V.V.V.V.V.V.V.V.V.V.V.V.V.V.V.V.V.V.V.V.V.e.K O @ O   # 4 ; @ ` V.V.V.V.V.V.V.V.V.V.V.V.V.V.V.V.V.V.V.V.V.V.V.V.V.V.V.",
"V.V.V.V.V.V.V.V.V.V.V.V.V.V.V.V.V.V.B.V.V.V.V.w.A k A 2 % 8 % @ ` V.V.V.V.V.V.V.V.V.M.V.V.V.V.V.V.V.V.V.V.V.V.V.V.V.B.V.",
"V.V.V.V.V.V.V.V.V.V.V.V.V.V.V.V.V.V.V.V.V.V.V.V.B.M.V.) & p * @ { V.V.V.V.V.V.V.V.V.V.V.V.V.V.V.V.V.V.V.V.V.V.V.V.V.B.B.",
"V.V.V.V.V.V.V.V.V.V.V.V.V.V.V.V.V.V.V.V.V.V.V.V.V.B.V.) : V % X ` V.V.V.V.V.V.V.V.V.V.V.V.V.V.V.V.V.V.V.V.V.V.V.V.V.V.V.",
"V.V.V.V.V.V.V.V.V.V.V.V.V.V.V.V.V.V.V.V.V.V.V.V.V.V.V.5.K 0 # H w.V.V.V.V.V.V.V.V.V.V.V.V.V.V.V.B.V.V.V.V.V.V.V.V.B.V.B.",
"V.V.V.V.V.V.V.V.V.V.V.V.V.V.V.V.V.V.V.V.V.V.V.V.V.V.V.V.9.k j 5.V.V.V.V.V.V.V.V.V.V.V.V.V.V.V.V.V.V.V.V.V.V.V.V.V.V.V.V.",
"V.V.V.V.V.V.V.V.V.V.V.V.V.V.V.V.V.V.V.M.V.V.V.V.V.V.V.V.M.x.x.n.V.V.V.V.V.V.V.V.V.V.V.V.V.V.V.V.V.V.V.V.V.V.V.V.V.V.V.V.",
"V.V.V.V.V.V.V.V.V.V.V.V.V.V.V.V.V.V.V.V.V.V.V.V.V.V.V.V.V.V.V.V.V.V.V.V.V.V.V.V.V.V.V.V.V.V.V.V.V.V.V.V.V.V.V.V.V.V.M.V.",
"V.V.V.V.V.V.V.V.V.M.V.V.V.V.V.V.V.V.V.V.V.V.V.V.V.V.V.V.V.V.V.V.V.V.V.V.V.V.V.V.V.V.V.V.V.V.V.V.V.V.V.V.V.V.V.V.V.V.V.V.",
"V.V.V.V.V.V.V.V.V.V.M.V.V.V.V.V.V.V.V.V.V.V.V.V.V.V.V.V.V.V.V.V.V.V.V.V.V.V.V.V.V.V.V.V.V.V.V.V.V.V.V.V.V.V.V.M.V.V.V.V.",
"V.V.V.V.V.V.V.V.V.V.V.V.V.M.V.V.V.V.V.V.V.V.V.V.V.V.V.V.V.V.V.V.V.V.V.V.V.V.V.V.V.V.V.V.V.V.V.V.V.V.V.V.V.V.V.V.V.V.V.V.",
"V.V.V.V.V.V.V.V.V.V.V.V.V.V.V.V.V.V.V.V.V.V.V.V.V.V.V.V.V.V.V.V.V.V.V.V.V.V.V.V.V.V.V.V.V.V.V.V.V.V.V.V.V.V.V.V.V.V.V.V.",
"V.V.V.V.V.V.V.V.V.V.V.V.V.V.V.V.V.V.V.V.M.V.V.V.V.V.V.V.V.M.V.V.V.V.V.V.V.V.V.V.V.V.V.V.V.V.V.V.V.V.V.V.V.V.V.V.V.V.V.V.",
"V.V.V.V.V.V.V.V.V.V.V.V.V.V.V.V.V.V.V.V.V.V.V.V.V.V.V.V.V.V.V.V.V.V.V.V.V.V.V.V.V.V.V.V.V.V.V.V.V.V.V.V.V.V.V.V.V.V.V.V."
};
