/* XPM */
static char *result[] = {
/* columns rows colors chars-per-pixel */
"60 60 68 1 ",
"  c #FAFBF9",
". c gray98",
"X c #FBFAFA",
"o c #FAFBFA",
"O c #FBFBFA",
"+ c #FAFAFB",
"@ c #FBFAFB",
"# c #FAFBFB",
"$ c #FBFBFB",
"% c #FCFAFA",
"& c #FCFBFA",
"* c #FDFBFA",
"= c #FCFAFB",
"- c #FDFAFB",
"; c #FCFBFB",
": c #FDFBFB",
"> c #FAFCFA",
", c #FBFCFA",
"< c #FBFDFA",
"1 c #FAFCFB",
"2 c #FBFCFB",
"3 c #FBFDFB",
"4 c #FCFCFA",
"5 c #FCFCFB",
"6 c #FDFCFB",
"7 c #FCFDFB",
"8 c #FDFDFB",
"9 c #F9FAFC",
"0 c #FBFAFC",
"q c #FAFBFC",
"w c #FBFBFC",
"e c #FBFBFD",
"r c #FCFAFC",
"t c #FDFAFC",
"y c #FCFBFC",
"u c #FDFBFC",
"i c #FCFAFD",
"p c #FCFBFD",
"a c #FDFBFD",
"s c #FEFBFC",
"d c #FAFCFC",
"f c #FBFCFC",
"g c #FBFDFC",
"h c #FBFCFD",
"j c #FAFDFD",
"k c #FBFEFC",
"l c #FAFEFD",
"z c #FBFCFE",
"x c gray99",
"c c #FDFCFC",
"v c #FCFDFC",
"b c #FDFDFC",
"n c #FCFCFD",
"m c #FDFCFD",
"M c #FCFDFD",
"N c #FDFDFD",
"B c #FEFCFC",
"V c #FEFDFC",
"C c #FEFCFD",
"Z c #FEFDFD",
"A c #FCFEFC",
"S c #FDFEFC",
"D c #FDFEFD",
"F c #FDFFFD",
"G c #FCFCFE",
"H c #FDFCFE",
"J c #FDFDFE",
"K c #FDFEFE",
/* pixels */
"yyuu;;ppfffNNccNNnnyy,,Jvv$$vv77++55wyymmxxyyxx$$cc155$$uuff",
"yyuu;;ppfffNNccNNnnyy,,Jvv$$vv77++55wyymmxxyyxx$$cc155$$uuff",
"MMwwccAAxxxxxnnvv22wwxxxrrnnrryy66ccxuuffww;;mmyyyy+;;77::##",
"MMwwccAAxxxxxnnvv22wwxxxrrnnrryy66ccxuuffww;;mmyyyy+;;77::##",
"xx&&2255Mxxxxccxxtt55;;555hhcc22uuxx$vvww55::xx55ppy>>xx$$hh",
"xx&&2255Mxxxxccxxtt55;;555hhcc22uuxx$vvww55::xx55ppy>>xx$$hh",
"NNxxMMcc5xxcchhbbxx$$fffmmyyccNN$$55x55xxNN55OOmm555==;;gg$$",
"NNxxMMcc5xxcchhbbxx$$fffmmyyccNN$$55x55xxNN55OOmm555==;;gg$$",
"55ggvvxxxxxffxxcc::55xxbyyoodd1155$$#wwyyeeMM;;22nnxxxgg55ww",
"xxyyxxyyy22ff22MM##ww55b##22nnffmm55nnnmmxx55MMffxxcyy22ww55",
"xxyyxxyyy22ff22MM##ww55b##22nnffmm55nnnmmxx55MMffxxcyy22ww55",
"nn@@ffJJb77ww;;66vv$$xxyff;;;;55wwMM5rrcc22bbff55uuO;;,,OOOO",
"nn@@ffJJb77ww;;66vv$$xxyff;;;;55wwMM5rrcc22bbff55uuO;;,,OOOO",
"55wwyy$$n$$yyxxffxxvvnnv00wwnnwwffnnuppwwMMeevv22ooxxx$$$$88",
"55wwyy$$n$$yyxxffxxvvnnv00wwnnwwffnnuppwwMMeevv22ooxxx$$$$88",
"yyFFwwnncnnvv;;MM33nnmmhnnnn##ppwwxxveeffcchhAAccffcnnxxxxyy",
"yyFFwwnncnnvv;;MM33nnmmhnnnn##ppwwxxveeffcchhAAccffcnnxxxxyy",
"NN55yyxxv55nnnnxxiimmvvyxxxxnn66xxxxMffffMM55;;hhff2MMyyww@@",
"NN55yyxxv55nnnnxxiimmvvyxxxxnn66xxxxMffffMM55;;hhff2MMyyww@@",
"hh33nnhh5xxbbuuHH$$xxffnccffvvbbwwyywJJ$$hh;;xxuu44wffyywwff",
"hh33nnhh5xxbbuuHH$$xxffnccffvvbbwwyywJJ$$hh;;xxuu44wffyywwff",
"wwCCxxyyxhhyy::22hh@@xxX55wwaa##22$$;yy&&nn$$55nnqq0nn22xxOO",
"wwCCxxyyxhhyy::22hh@@xxX55wwaa##22$$;yy&&nn$$55nnqq0nn22xxOO",
"55xxww$$wyyCCuuppccnnyykVVyynnuuccbb;NNuunnyy55ccff2yy;;yy--",
"hh$$xx55ybbnnxxBBxxppffxyy$$5555xxwww55;;uuxxxx$$;;;$$$$00xx",
"hh$$xx55ybbnnxxBBxxppffxyy$$5555xxwww55;;uuxxxx$$;;;$$$$00xx",
"xxyy55ss5hhcc66MMffxx55c55yyyyyyff22x,,77##xx55qq99f226655;;",
"xxyy55ss5hhcc66MMffxx55c55yyyyyyff22x,,77##xx55qq99f226655;;",
"vvmm77CCxbbmmwwyy55xxccncc55mm$$bbxxyyy55xxmmxxuuxx$ccyyxxww",
"vvmm77CCxbbmmwwyy55xxccncc55mm$$bbxxyyy55xxmmxxuuxx$ccyyxxww",
"ggffvvyyn55ccff$$yy;;yy,xxppxx55@@ffzcchh,,55ggnnccyuuOOff++",
"ggffvvyyn55ccff$$yy;;yy,xxppxx55@@ffzcchh,,55ggnnccyuuOOff++",
"ppxxZZnn;vvww55yy==xxvv:;;xxbbpp8833:ww::55$$BB;;xx$vvxx;;yy",
"ppxxZZnn;vvww55yy==xxvv:;;xxbbpp8833:ww::55$$BB;;xx$vvxx;;yy",
"bbcc44nnxZZJJ55ffxxxxZZjppxxMMMM==vvx@@wwyy$$xxNN22xwwyyxxpp",
"bbcc44nnxZZJJ55ffxxxxZZjppxxMMMM==vvx@@wwyy$$xxNN22xwwyyxxpp",
"uuxx55xxx55yyrr5566ddnn5$$eeccxx22vviwwxx@@;;xx$$qqx==22::nn",
"xxxx55xxNvvGG55;;xxffNNmxxvv==aayy$$nxxnnxx,,yy6622y55MMuu;;",
"xxxx55xxNvvGG55;;xxffNNmxxvv==aayy$$nxxnnxx,,yy6622y55MMuu;;",
"@@MM5566;mmnn22xx::cc@@hxxyyyyff::GGmccnnJJ%%uunn22xOOAAff$$",
"@@MM5566;mmnn22xx::cc@@hxxyyyyff::GGmccnnJJ%%uunn22xOOAAff$$",
"HH6655ppMMMppyywwyyxx77yvvxxDDxxxxppuff$$hhyy**$$yy#wwxxppxx",
"HH6655ppMMMppyywwyyxx77yvvxxDDxxxxppuff$$hhyy**$$yy#wwxxppxx",
"77##nnffc@@wwxxff55vv77v##55vvxxxxvvyyyppffff11MMff@nn@@$$22",
"77##nnffc@@wwxxff55vv77v##55vvxxxxvvyyyppffff11MMff@nn@@$$22",
"nnxxxx555MMxx;;ffnnyy22Nxx22wwxx::55$xxZZffxx22$$ff$55ff$$yy",
"nnxxxx555MMxx;;ffnnyy22Nxx22wwxx::55$xxZZffxx22$$ff$55ff$$yy",
"NN;;nnxxNffvvyyccooxxxxxVVyynnnnHHmmx11$$@@$$xxwwffxnn;;ww..",
"NN;;nnxxNffvvyyccooxxxxxVVyynnnnHHmmx11$$@@$$xxwwffxnn;;ww..",
"vvmmnnyyu;;bb55xxffvvhh522&&xxyynnff0vvxx33;;55ff55f::yyff$$",
"vvmmnnyyu;;bb55xxffvvhh522&&xxyynnff0vvxx33;;55ff55f::yyff$$",
"ccffzzxxN;;mmuuggccxxxxcyy55nneeffwwxvv55xxyyxxxxmm$yyyy22ee",
"xxxx##ffvMMxxccHHyy$$55xyyvvpp$$vvyywxxnnnnvvKKxx55nxxffffXX",
"xxxx##ffvMMxxccHHyy$$55xyyvvpp$$vvyywxxnnnnvvKKxx55nxxffffXX",
"xxxxyypp6  22xxSSuu22ww$ggwwnnsswwbb$$$ppxx&&eeww22cvv0055xx",
"xxxxyypp6  22xxSSuu22ww$ggwwnnsswwbb$$$ppxx&&eeww22cvv0055xx",
"xxxx$$77v55vv<<yyxx00ffluuxxxxOOvvwwfyywwii55::yywwfxx;;yyyy",
"xxxx$$77v55vv<<yyxx00ffluuxxxxOOvvwwfyywwii55::yywwfxx;;yyyy",
";;;;ggxx;55mm22uu77&&;;yxx;;##vvnnccvxxxxvvxxxxppNNwvvff44ff",
";;;;ggxx;55mm22uu77&&;;yxx;;##vvnnccvxxxxvvxxxxppNNwvvff44ff"
};
