/* XPM */
static char *_d542b7d7a094774fe9b7bc954650dc1KBQu9E8Dnufcig5e[] = {
/* columns rows colors chars-per-pixel */
"60 60 184 2 ",
"   c #D4D5D5",
".  c #D6D5D8",
"X  c #D7D9D8",
"o  c #DBDBDC",
"O  c #E0DFDF",
"+  c #E0DFE0",
"@  c #E4E4E4",
"#  c #E8E6E7",
"$  c #E7E8E7",
"%  c #E8E8E7",
"&  c #E7E7E8",
"*  c #E9E7E8",
"=  c #E7E8E9",
"-  c #E9E9EA",
";  c #F0EFF0",
":  c #F3F3F4",
">  c #F4F3F5",
",  c #F3F4F5",
"<  c #F4F4F4",
"1  c #F4F5F4",
"2  c #F4F4F5",
"3  c #F5F4F5",
"4  c gray96",
"5  c #F7F4F5",
"6  c #F4F6F5",
"7  c #F5F6F5",
"8  c #F6F6F5",
"9  c #F6F7F5",
"0  c #F4F4F6",
"q  c #F5F4F6",
"w  c #F5F5F6",
"e  c #F7F5F6",
"r  c #F6F5F7",
"t  c #F7F5F7",
"y  c #F5F6F6",
"u  c #F5F7F7",
"i  c #F6F6F6",
"p  c #F6F7F6",
"a  c #F7F7F6",
"s  c #F6F6F7",
"d  c #F7F6F7",
"f  c #F6F7F7",
"g  c gray97",
"h  c #F4F4F5",
"j  c #F8F6F6",
"k  c #F8F7F6",
"l  c #F8F6F7",
"z  c #F8F7F7",
"x  c #F6F8F6",
"c  c #F7F8F6",
"v  c #F8F8F6",
"b  c #F8F8F7",
"n  c #F8F9F7",
"m  c #F9F9F7",
"M  c #F8F8F7",
"N  c #F5F6F9",
"B  c #F6F6F8",
"V  c #F7F6F8",
"C  c #F7F7F8",
"Z  c #F6F6F9",
"A  c #F7F7F9",
"S  c #F7F7F8",
"D  c #F8F7F8",
"F  c #F9F7F8",
"G  c #F9F7F9",
"H  c #F8F7F8",
"J  c #F7F8F8",
"K  c #F7F9F8",
"L  c #F7F8F9",
"P  c #F7F9F9",
"I  c #F7F8F8",
"U  c #F8F8F8",
"Y  c #F9F8F8",
"T  c #F8F9F8",
"R  c #F9F9F8",
"E  c #F8F8F9",
"W  c #F9F8F9",
"Q  c #F8F9F9",
"!  c #F9F9F9",
"~  c #FAF8F8",
"^  c #FAF9F8",
"/  c #FAF8F9",
"(  c #FAF9F9",
")  c #F8FAF8",
"_  c #F9FAF8",
"`  c #F9FAF9",
"'  c #FAFAF8",
"]  c #FAFAF9",
"[  c #FBFAF9",
"{  c #FAFBF9",
"}  c #FBFBF9",
"|  c #F9F8FA",
" . c #F8F9FA",
".. c #F9F9FA",
"X. c #F9F9FB",
"o. c #FAF8FA",
"O. c #FAF9FA",
"+. c #FBF9FA",
"@. c #FBF8FB",
"#. c #FAF9FB",
"$. c #FBF9FB",
"%. c #F9FAFA",
"&. c #F9FAFB",
"*. c #F8FBFB",
"=. c #F9FBFB",
"-. c gray98",
";. c #FBFAFA",
":. c #FAFBFA",
">. c #FBFBFA",
",. c #FAFAFB",
"<. c #FBFAFB",
"1. c #FAFBFB",
"2. c #FBFBFB",
"3. c #FCFAF9",
"4. c #FCF9FB",
"5. c #FDF9FB",
"6. c #FCFAFA",
"7. c #FDFAFA",
"8. c #FCFBFA",
"9. c #FCFAFB",
"0. c #FCFBFB",
"q. c #FDFBFB",
"w. c #F9FCFA",
"e. c #F9FCFB",
"r. c #FBFCFA",
"t. c #FAFCFB",
"y. c #FBFCFB",
"u. c #FBFDFB",
"i. c #FCFCFB",
"p. c #FDFCFB",
"a. c #FDFDFB",
"s. c #FAF9FC",
"d. c #FBF9FC",
"f. c #F9FAFC",
"g. c #FAFAFC",
"h. c #FBFAFC",
"j. c #FAFBFC",
"k. c #FBFBFC",
"l. c #FBFAFD",
"z. c #FBFBFD",
"x. c #FCFAFC",
"c. c #FCFBFC",
"v. c #FDFBFC",
"b. c #FCFBFD",
"n. c #FDFBFD",
"m. c #FAFCFC",
"M. c #FBFCFC",
"N. c #FBFDFC",
"B. c #FBFCFD",
"V. c #FBFEFC",
"C. c gray99",
"Z. c #FDFCFC",
"A. c #FCFDFC",
"S. c #FDFDFC",
"D. c #FCFCFD",
"F. c #FDFCFD",
"G. c #FCFDFD",
"H. c #FDFDFD",
"J. c #FEFCFC",
"K. c #FEFDFC",
"L. c #FEFCFD",
"P. c #FEFDFD",
"I. c #FCFEFC",
"U. c #FCFEFD",
"Y. c #FDFEFD",
"T. c #FDFFFD",
"R. c #FEFEFD",
"E. c #FEFFFD",
"W. c #FCFCFE",
"Q. c #FDFCFE",
"!. c #FDFDFE",
"~. c #FEFCFE",
"^. c #FEFDFE",
"/. c #FFFDFE",
"(. c #FEFDFF",
"). c #FCFEFE",
"_. c #FDFEFE",
"`. c #FDFEFF",
"'. c #FEFEFE",
"]. c #FFFEFE",
"[. c #FEFFFE",
"{. c #FEFEFF",
"}. c #FFFEFF",
"|. c #FBFBFB",
/* pixels */
"r r r r < < C C r r r ` ` ` ` ` ` ` ` r r : : W.` ` : : x x m m : : r r r F z F F ` ` r r z z r r ` ` r z z r r F F r r ",
"r r r r < < C C r r r ` ` ` ` ` ` ` ` r r : : W.` ` : : x x m m : : r r r F z F F ` ` r z z r r r ` ` r z z r r F F r r ",
"J J W.W.W.W.W.W.W.W.W.W.W.W.W.W.W.W.W.W.W.W.W.W.c.c.W.W.@ @ o o W.W.W.W.W.W.W.W.W.W.W.9.9.W.W.W.W.W.W.` W.W.W.W.W.W., , ",
"J J W.W.W.W.W.W.W.W.W.W.W.W.W.W.W.W.W.W.W.W.W.W.c.c.W.W.@ @ o o W.W.W.W.W.W.W.W.W.W.W.9.9.W.W.W.W.W.W.` W.W.W.W.W.W., , ",
"r r ` ` ` ` r.r.W.c.c.` ` p.p.` ` 9.9.p.p.` ` ` W.W.m.m.- - o o c.c.W.W.` W.W.` ` ` ` 9.9.p.r.` ` c.c.k.m m W.W.` ` ` ` ",
"r x m ` ` ` r.r.W.c.c.` ` p.p.` ` 9.9.p.p.` ` ` W.W.m.m.- - o o c.c.W.W.` W.W.` ` ` ` 9.9.p.r.` ` c.c.k.m m W.W.` ` ` ` ",
"` ` W.W.W.W.W.W.` m.m.W.W.k.k.W.W.` ` ` ` ` ` ` W.W.` ` - - + + ` ` ` ` W.` ` W.W.W.W.` ` ` ` W.W.` ` ` ` ` p.p.m.m.r r ",
"` ` W.W.W.W.W.W.` m.m.W.W.k.k.W.W.` ` ` ` ` ` ` W.W.` ` - - + + ` ` ` ` W.` ` W.W.W.W.` ` ` ` W.W.` ` ` ` ` 9.9.m.m.r r ",
"r r m.m.W.W.c.c.W.` ` ` ` m.m.W.W.9.9.` ` W.W.W.` ` r r @ @ o o ` ` ` ` J ` ` c.c.k.k.W.W.` ` ` ` W.W.W.W.W.W.W.W.W.F F ",
"r r ` ` ` ` ` ` 9.` ` J J ` ` m.m.r r ` ` ` ` W.J J ` ` - - o o W.W.` ` W.c.c.W.W.k.m.` ` W.W.m.m.W.W.W.` ` m.m.` ` m m ",
"r r ` ` ` ` ` ` 9.` ` J J ` ` m.m.r r ` ` ` ` W.J J ` ` - - o o W.W.` ` W.c.c.W.W.k.k.` ` W.W.m.m.W.W.W.` ` m.m.` ` m m ",
"C C ` ` ` ` W.W.W.r.r.` ` ` ` p.p.m.m.` ` 9.9.k.r.r.` ` @ @ o o ` ` W.W.p.k.k.W.W.` ` W.W.` ` ` ` W.W.` ` ` ` ` ` ` < < ",
"C C ` ` ` ` W.W.W.r.r.` ` ` ` p.p.m.m.` ` 9.9.k.r.r.` ` @ @ o o ` ` W.W.p.k.k.W.W.` ` W.W.` ` ` ` W.W.` ` ` ` ` ` ` < < ",
"r r : : r r : : C r r r r C C r r r r ` ` ` ` ` > > r r - - o o r r ` ` z C C r r ` ` C C ` ` r r : : ` ` ` r r r r m m ",
"r r : : r r : : C r r r r C C r r r r ` ` ` ` ` > > r r - - o o r r ` ` z C C r r ` ` C C ` ` r r : : ` ` ` r r r r m m ",
"r r - - @ @ @ @ @ @ @ @ @ @ @ - - @ @ - - * * & - - @ @ o o @ @ @ @ @ @ @ @ @ @ @ @ @ @ @ - - - - @ @ # & & - - @ @ r r ",
"r r - - @ @ @ @ @ @ @ @ @ @ @ - - @ @ - - * * & - - @ @ o O @ @ @ @ @ # @ @ @ @ @ @ @ @ @ - - - - @ @ # & & - - @ @ r r ",
"` ` W.W.c.c.W.W.W.p.p.W.W.W.W.@ @ @ @ W.W.W.W.W.W.W.W.W.W.W.W.W.W.W.W.W.W.W.W.W.W.- - @ @ W.W.W.W.W.W.W.W.W.W.W.W.W.: : ",
"` ` W.W.c.c.W.W.W.p.p.W.W.W.W.@ @ @ @ W.W.W.W.W.W.W.W.W.W.W.W.W.W.W.W.W.W.W.W.W.W.- - @ @ W.W.W.W.W.W.W.W.W.W.W.W.W.: : ",
"r r r.r.m.m.k.k.` ` ` W.W.9.9.- - o o ` ` m.m.W.c.c.m.m.W.W.W.W.` ` ` ` ` W.W.` ` - - @ @ p.p.9.9.` ` ` m.m.c.c.` ` ` ` ",
"r r r.r.m.m.k.k.` ` ` W.W.9.9.- - o o ` ` m.m.W.c.c.m.m.W.W.W.W.` ` ` ` ` W.W.` ` - - @ @ p.p.9.9.` ` ` m.m.c.c.` ` ` ` ",
": : W.W.m.m.k.k.` k.c.` ` 9.9.@ @ @ @ z z r.r.F ` ` ` ` c.c.` ` ` ` ` ` ` k.k.` ` - - @ @ ` ` W.W.k.k.` W.W.` ` W.W.: : ",
": : W.W.m.m.k.k.9.k.W.` ` 9.9.@ @ @ @ z z r.r.F ` ` ` ` c.c.` ` ` ` ` ` ` k.k.` ` - - @ @ ` ` k.W.k.k.` W.W.` ` W.W.< < ",
"< < ` ` ` ` ` ` ` ` ` W.W.9.9.@ @ @ @ W.W.` ` m.W.W.c.c.W.W.9.9.W.W.W.W.` W.W.9.c.- - @ @ ` ` W.W.r.r.` ` ` ` ` c.c.r r ",
"r r m m r.r.` ` ` W.W.W.W.r.r.- - @ @ c.c.` ` c.` ` ` ` W.W.p.p.k.k.` ` ` p.p.` ` - - @ @ W.W.` ` ` ` ` ` ` ` ` ` ` ` ` ",
"r r m m r.r.` ` ` W.W.W.W.r.r.- - @ @ c.c.` ` c.` ` ` ` W.W.p.p.k.k.` ` ` p.p.` ` - - @ @ W.W.` ` ` ` ` ` ` ` ` ` ` ` ` ",
"r r ` ` r.r.9.9.` k.` 9.W.p.p.- - @ @ ` ` ` ` c.` ` ` 9.k.k.` ` ` ` ` ` 9.m m W.W.@ @ - - ` ` J J C C m.` ` 9.9.p.p.r r ",
"r r ` ` r.r.9.9.` k.` W.W.p.p.- - @ @ ` ` ` ` 9.` ` ` 9.k.k.` ` ` ` ` ` 9.m m W.W.@ @ - - ` ` J J C C m.` ` 9.9.p.p.r r ",
"J J ` ` r r ` ` r ` ` ` ` r r @ @ @ @ r r ` ` J ` ` r r ` ` : : ` ` ` ` F r r r r - - - - r r ` ` m ` : ` ` z z C C C C ",
"J J ` F r r ` ` r ` ` ` ` r r @ @ @ @ r r ` ` J ` ` r r ` ` : : ` ` ` ` F r r r r - - - - r r ` ` z m : ` ` z z C C C C ",
"r r @ @ - - @ @ & @ @ # # @ @ @ @ @ @ @ @ @ @ @ @ @ - - - - @ @ @ @ @ @ & - - & & @ @ @ @ $ $ - - - - @ * * @ @ @ @ : : ",
"r r @ @ - - @ @ & @ @ # @ @ @ @ @ @ @ @ @ @ @ @ @ @ - - - - @ @ @ @ @ @ & - - & & @ @ @ @ $ $ - - - - @ * * @ @ @ @ : : ",
"C C W.W.W.W.W.W.c.W.W.c.c.W.W.p.9.` ` W.W.W.W.p.p.p.W.W.% % . . W.W.W.W.W.c.c.W.W.W.W.` ` W.W.W.W.W.W.` W.W.W.W.W.W.z z ",
"C C W.W.W.W.W.W.9.W.W.c.W.W.W.p.9.` ` W.W.W.W.p.p.p.W.W.% % . . W.W.W.W.W.c.c.W.W.W.W.` ` W.W.W.W.W.W.` W.W.W.W.W.W.z z ",
"m m 9.9.m m ` ` ` W.W.W.W.p.p.` ` ` ` W.W.W.W.` k.k.W.W.& & o o z z m.m.r.r r ` ` ` 9.` ` W.W.W.W.` ` W.` ` c.c.W.W.F F ",
"m m 9.9.m m ` ` ` W.W.W.W.p.p.` ` ` ` W.W.W.W.` k.k.W.W.& & o o z z m.m.r.r r ` ` ` 9.` ` W.W.W.W.` ` W.` ` c.c.W.W.F F ",
"r r ` ` r.r.` ` ` ` ` ` ` ` ` ` ` 9.9.r.r.W.W.` ` ` k.k.@ @ o o r.r.W.W.` ` ` ` ` ` ` ` 9.c.c.` ` k.k.W.` ` ` ` 9.9.` ` ",
"r r k.k.` ` k.k.W.W.W.W.W.` ` ` ` ` ` ` ` W.W.W.r.r.W.W.@ @ o o ` ` ` ` W.W.W.W.W.W.W.` ` ` ` p.p.` ` W.` ` W.W.c.c.r r ",
"r r k.k.` ` k.k.W.W.W.W.W.` ` ` ` ` ` ` ` W.W.W.r.r.W.W.@ @ o o ` ` ` ` W.W.W.W.W.W.W.` ` ` ` p.p.` ` W.` r.W.W.c.c.r r ",
"; ; m.m.` ` ` ` ` W.W.k.k.` ` ` ` 9.9.W.W.r r k.` ` ` ` @ @     9.9.W.W.W.W.W.W.W.W.W.` ` c.c.W.W.r.r.p.` ` W.W.W.W.r r ",
"; ; m.m.` ` ` ` ` W.W.k.k.` ` ` ` 9.9.W.W.r r k.` ` ` ` @ @     9.9.W.W.W.W.W.W.W.W.W.` ` c.c.W.W.r.r.p.` ` W.W.W.W.r r ",
"` ` 9.9.` ` ` ` m.W.W.` ` ` ` ` ` ` ` p.p.p.p.` m.m.` ` - - o o k.k.k.k.9.` ` ` ` k.k.k.k.9.9.` ` k.k.` ` ` W.W.c.c.` ` ",
"` ` 9.9.` ` ` ` m.W.W.` ` ` ` ` ` ` ` p.p.p.p.` m.m.` ` - - o o k.k.k.k.9.` ` ` ` k.k.k.k.9.9.` ` k.k.` ` ` W.W.c.c.` ` ",
"r r : : C C r r ` : : : : r r r r r r ` ` ` ` ` : : r r $ $ o o r r J J r r z C C J J r r , , ` ` r r : ` ` r r r r r r ",
"r r : : C C r r ` : : : : r r r r r r ` ` ` ` ` : : r r $ $ o o r r J J r z r C C J x r r , , ` ` x x : ` ` r r r r r r ",
"F F @ @ @ @ @ @ @ - - @ @ @ @ @ @ - - @ @ @ @ - @ @ @ @ @ @ @ @ @ @ @ @ O @ @ - - @ @ @ @ @ @ @ @ @ @ @ @ @ - - @ @ F F ",
"F F @ @ @ @ @ @ @ % - @ @ @ @ @ @ - - @ @ @ @ - @ @ @ @ @ @ @ @ @ @ @ @ O @ @ - - @ @ @ @ @ @ @ @ @ @ @ @ @ - - @ @ F F ",
"` ` W.W.W.W.W.W.W.W.W.W.W.W.W.@ @ W.W.W.W.W.W.W.W.W.W.W.W.W.W.W.W.W.W.W.W.` ` p.p.    @ @ W.W.W.W.W.W.W.W.W.W.W.W.W.: : ",
"` ` W.W.W.W.W.W.W.W.W.W.W.W.W.@ @ W.W.W.W.W.W.W.W.W.W.W.W.W.W.W.W.W.W.W.W.` ` p.p.    @ @ W.W.W.W.W.W.W.W.W.W.W.W.W.: : ",
"x x c.c.W.W.` ` c.` 9.W.W.9.` @ @ W.W.W.W.m.m.p.` ` ` ` ` ` c.c.m.m.k.m.F W.W.k.k.X X @ @ p.p.` ` 9.9.` 9.9.9.9.` ` r r ",
"x x c.c.W.W.` ` c.` ` W.W.9.` @ @ W.W.W.W.m.m.p.` ` ` ` ` ` c.c.m.W.m.m.` W.W.k.k.X X @ @ p.p.` ` 9.9.` p.9.9.9.` ` r r ",
"m m ` ` k.k.p.p.W.` ` W.W.c.c.@ @ W.W.p.p.W.W.W.` ` ` ` W.W.k.k.` ` ` ` W.W.W.` ` o o @ @ W.W.W.W.W.W.` m.k.k.k.m.m.C C ",
"r r ` ` r r ` ` r.W.W.` ` W.W.* * W.W.` ` ` ` k.` ` W.W.k.k.` ` r.r.` ` ` W.W.W.W.o o - - W.W.W.W.` ` W.W.W.m.m.k.k.- - ",
"r r ` ` r r ` ` r.W.W.` ` W.W.* * W.W.` ` ` ` k.` ` W.W.k.k.` ` r.r.` ` ` W.W.W.W.o o - - W.W.W.W.` ` W.W.W.m.m.k.k.- - ",
"r r c.c.c.c.k.k.` r r ` ` ` ` - - W.W.` ` ` ` ` m.m.` ` W.W.c.c.` ` W.W.` ` ` c.W.o o @ @ k.k.` ` ` ` W.m.m.` ` 9.9.r r ",
"r r c.c.c.c.k.k.` r r ` ` ` ` - - W.W.` ` ` ` ` m.m.` ` W.W.c.c.` ` W.W.` ` ` c.c.o o @ @ k.k.` ` ` ` W.m.m.` ` 9.9.r r ",
"r r m.m.x J r.r.p.r.` W.W.m ` @ @ W.W.F C ` ` m.c.c.` ` W.W.` ` W.W.` ` ` c.c.` ` o o @ @ 9.9.k.c.` ` k.W.W.` ` ` ` ` ` ",
"r r m.m.x x r.r.p.r.` W.W.` ` @ @ W.W.F C ` ` m.c.9.` ` p.p.` ` W.W.` ` ` c.c.` ` o o @ @ 9.9.k.k.` ` k.W.W.` ` ` ` ` ` ",
": : r r r r r r < r r C C , , r z x x < < r r r r r : : : : ` ` ` ` F F r r r C C x x r r C C r r ` ` r ` ` , , r r C C ",
": : r r r r r r < r r C C , , r r x r < < r r r r r : : : : ` ` ` ` F F r r r C C x x r r C C r r k.` r ` ` , , r r C C "
};
