/* XPM */
static char *result[] = {
/* columns rows colors chars-per-pixel */
"60 60 197 2 ",
"   c #141616",
".  c #161718",
"X  c #161B1B",
"o  c #1B1C1B",
"O  c #211E1D",
"+  c #2F1D1B",
"@  c #1E201F",
"#  c #20201F",
"$  c #2B241D",
"%  c #1E2121",
"&  c #242422",
"*  c #2A2522",
"=  c #272925",
"-  c #2A2A26",
";  c #2C2D29",
":  c #312522",
">  c #322B26",
",  c #3A2A26",
"<  c #322F2A",
"1  c #2E302C",
"2  c #333325",
"3  c #33322D",
"4  c #39322D",
"5  c #3A382D",
"6  c #343433",
"7  c #383630",
"8  c #363834",
"9  c #3B3A33",
"0  c #353839",
"q  c #3B3C3B",
"w  c #432923",
"e  c #43322C",
"r  c #49382E",
"t  c #52322C",
"y  c #573F2B",
"u  c #473733",
"i  c #4A3631",
"p  c #423D35",
"a  c #6C3F35",
"s  c #703B31",
"d  c #43442E",
"f  c #524B28",
"g  c #434037",
"h  c #4C4234",
"j  c #45423A",
"k  c #4B443B",
"l  c #4F493F",
"z  c #53453C",
"x  c #5B443B",
"c  c #514A3F",
"v  c #5D5333",
"b  c #685A2B",
"n  c #62443C",
"m  c #69473B",
"M  c #77453B",
"N  c #695834",
"B  c #63503A",
"V  c #6F5038",
"C  c #7A613E",
"Z  c #404242",
"A  c #4E4A42",
"S  c #4A4A4A",
"D  c #544C42",
"F  c #5B4C42",
"G  c #564E48",
"H  c #5B5146",
"J  c #50514F",
"K  c #5C544B",
"L  c gray33",
"P  c #5B5656",
"I  c #585857",
"U  c #5C5C5B",
"Y  c #654E47",
"T  c #645543",
"R  c #63564C",
"E  c #68534E",
"W  c #645A4C",
"Q  c #645B52",
"!  c #695E50",
"~  c #7F6546",
"^  c #6D6255",
"/  c #6C655D",
"(  c #726556",
")  c #70665E",
"_  c #766C5F",
"`  c #666566",
"'  c #6C6662",
"]  c #6E6865",
"[  c #6A6A6A",
"{  c #766D63",
"}  c #786F67",
"|  c #757069",
" . c #7C746C",
".. c #7A7A7B",
"X. c #844F44",
"o. c #82544B",
"O. c #8E5C51",
"+. c #976F48",
"@. c #97734C",
"#. c #846359",
"$. c #A3695A",
"%. c #9C6F62",
"&. c #83746A",
"*. c #837B72",
"=. c #8A7E75",
"-. c #977B71",
";. c #BB7D6D",
":. c #8B8175",
">. c #85807C",
",. c #8B837C",
"<. c #938474",
"1. c #92867B",
"2. c #94887D",
"3. c #98897C",
"4. c #D0907F",
"5. c #878786",
"6. c #8B8B8A",
"7. c #908780",
"8. c #938B83",
"9. c #9A8E82",
"0. c #928E8C",
"q. c #8F908F",
"w. c #9D9285",
"e. c #95918D",
"r. c #9C948A",
"t. c #8D8F90",
"y. c #949391",
"u. c #9B9590",
"i. c #9E9892",
"p. c #979A99",
"a. c #A49485",
"s. c #A39B8F",
"d. c #A29B94",
"f. c #A89D92",
"g. c #A49E9A",
"h. c #A5A09B",
"j. c #ABA39C",
"k. c #B0A79A",
"l. c #BEAD9F",
"z. c #AEA7A2",
"x. c #ADA9A6",
"c. c #ADAEAC",
"v. c #B5ADA5",
"b. c #BCADA3",
"n. c #B6AFA8",
"m. c #BCB3A5",
"M. c #B5B2AF",
"N. c #BBB3AB",
"B. c #BAB6B4",
"V. c #BCBBBB",
"C. c #C19383",
"Z. c #D39281",
"A. c #C7A99B",
"S. c #D2AE9F",
"D. c #C4B3A5",
"F. c #C2BAB2",
"G. c #C4BEBB",
"H. c #CABFBA",
"J. c #EABAAB",
"K. c #CAC2B6",
"L. c #C7C1BD",
"P. c #CBC3BC",
"I. c #D6C2B2",
"U. c #D2C6BD",
"Y. c #DACABC",
"T. c #EFC0AF",
"R. c #F3CBBB",
"E. c #C3C2C3",
"W. c #CCC6C3",
"Q. c #CDC9C6",
"!. c #CCCBCB",
"~. c #D3CBC3",
"^. c #D9CFC7",
"/. c #D2CECB",
"(. c #D5D0CC",
"). c #DBD3C9",
"_. c #DCD3CA",
"`. c #D4D3D3",
"'. c #DDD8D0",
"]. c #DFDBD9",
"[. c #E1D7CF",
"{. c #E5DCD4",
"}. c #E0DDDA",
"|. c #DFE0DF",
" X c #E4E1DC",
".X c #EBE6DD",
"XX c #F8E8D4",
"oX c #E2E2E2",
"OX c #EBE8E3",
"+X c #EEEEEE",
"@X c #F0EEEE",
"#X c #EFF0EF",
"$X c #F0F0EF",
"%X c #F0EFF0",
"&X c #F4F3F2",
"*X c #F9F7F6",
"=X c #FCFCFC",
/* pixels */
"=X=X=X=X=X=X=X=X=X=X=X=X=X=X=X=X=X=X=X=X=X=X*X=X=X=X=X=X=X=X=X=X*X=X=X=X=X=X=X=X=X=X=X=X=X=X=X=X=X=X=X=X=X=X=X=X=X=X=X=X",
"=X=X=X=X=X=X=X=X=X=X=X=X=X=X=X=X=X=X=X=X=X=X=X=X=X=X=X=X=X=X=X=X=X=X=X=X=X=X=X=X=X=X=X=X=X=X=X=X=X=X=X=X=X=X*X=X=X=X=X=X",
"=X=X=X=X=X=X=X=X=X=X=X=X=X=X=X=X=X=X=X=X=X=X=X=X=X=X=X=X=X=X=X=X=X=X=X=X=X=X=X=X=X=X=X=X=X=X=X=X=X=X=X*X=X=X=X=X=X=X=X=X",
"=X=X=X=X=X=X=X=X=X=X=X=X=X=X=X=X=X=X=X=X=X=X=X=X=X=X=X=X=X=X=X=X=X=X=X=X=X=X=X=X=X=X=X=X=X=X=X=X=X=X=X=X=X=X=X=X=X=X*X=X",
"=X=X=X=X=X=X=X=X=X=X=X=X=X=X=X=X=X=X=X=X=X=X=X=X=X=X=X=X=X=X=X=X=X=X=X=X=X=X=X=X=X=X=X=X=X=X=X=X=X=X=X=X=X=X=X=X=X*X=X=X",
"=X=X=X=X=X=X=X=X=X=X=X=X=X=X=X=X=X=X=X=X=X=X=X=X=X=X=X=X=X=X*X*X*X=X=X=X=X=X=X=X=X=X=X=X=X=X=X=X=X=X=X=X=X*X=X=X=X=X=X=X",
"=X=X=X=X=X=X=X=X=X=X=X=X=X=X=X=X=X=X=X=X=X=X=X=X=X=X=XV.} ' ] ] ' y.=X=X=X=X=X=X=X=X=X=X=X=X*X=X=X=X=X=X*X=X=X=X=X=X=X=X",
"=X=X=X=X=X=X=X=X=X=X=X=X=X=X=X=X=X=X=X=X=X=X=X=X=X=XG. .K Q Q G A Q g.&X=X=X=X=X=X=X=X=X=X=X=X=X=X=X=X=X=X=X=X=X=X=X=X=X",
"=X=X=X=X=X=X=X=X=X=X=X=X=X=X=X=X=X=X=X=X=X=X=X=X*X!. .} s.k.s.2.:.{ H M.#X=X=X=X=X=X=X=X=X=X=X=X=X=X=X=X=X=X=X=X=X=X=X=X",
"=X=X=X=X=X=X=X=X=X=X=X=X=X=X=X=X=X*X=X=X=X=X=X=X`.' :.F..X XK.l.m.k.{ p E.=X=X=X=X=X=X=X=X=X=X=X=X=X=X=X=X=X=X=X=X=X=X=X",
"=X=X=X=X=X=X=X=X=X=X=X=X=X=X=X=X=X=X=X=X=X=X=X!.) f.^. X.X.X Xk.N.).s.k V.=X=X=X=X=X=X=X=X=X=X=X=X=X=X=X=X=X=X=X=X=X=X=X",
"=X=X=X=X=X=X=X=X=X=X=X=X=X=X=X=X=X=X=X=X=X=X=XL.D P.*X{.~.*X.X3.r.K.l.*./ M.=X=X=X=X=X=X=X=X=X=X=X=X=X=X=X=X*X=X*X=X=X*X",
"=X=X=X=X=X=X=X=X=X=X=X=X=X=X=X=X=X=X=X=X=X=X!.>.| '. X).'.#XK.:.s.K.d.:.k y.=X=X=X=X=X=X=X=X=X=X=X=X=X=X=X=X*X=X=X=X=X=X",
"=X=X=X=X=X=X=X=X=X=X=X=X=X=X=X=X=X=X=X=X=X=Xe.j 3.~.m.U..X~.:.^ s.P.w.{ p y.=X=X=X=X=X=X=X=X=X=X=X=X=X=X=X=X=X=X=X=X=X=X",
"=X=X=X=X=X%X%X%X&X+X+X#X+X@X&X#X$X$X#X$X=X=X6.5  .k.w.m.).f.K c { a.k.} 4 6.=X=X=X=X=X=X=X=X=X=X=X*X=X=X=X=X=X=X=X*X=X=X",
"=X=X=X=X%Xx.g.g.h.h.h.h.g.h.g.g.h.h.h.x.#X=Xq.2 ! 2.&.w.s.! %.x p { 1.H > 0.=X=X=X=X=X=X=X=X=X=X=X=X=X=X=X=X=X=X=X=X=X=X",
"=X=X=X=X%Xh.v.F.F.F.F.g.0.e.e.e.^ } u.g.%X=XoXy.4 q K K j ; u - & q H , e.oX=X=X=X=X=X=X=X=X=X=X=X=X=X=X=X=X=X=X=X=X=X=X",
"=X=X=X=X%Xg.F.^.~.~.~.B.b.b.v.f.:.2.d.h.&X=X=XV.o o ; ; = = X X * t Y : G.=X=X=X=X=X=X=X=X=X=X=X=X=X=X=X=X=X=X=X=X=X*X=X",
"=X=X=X=X%Xh.v.F.F.F.F.F.F.H.N.3.a.9.1.h.%X=X=XV., u K / { / G u t s m - 6.oX=X=X=X=X=X=X=X=X=X=X=X=X=X=X=X=X=X=X=X=X=X*X",
"=X=X=X=X&Xh.i.d.d.d.d.i.i.e.,.G H z K r.%X=X=X~.o.4.J.XXXXR.4.$.s t 3 = % t.=X=X=X=X=X=X=X=X=X=X=X=X=X=X=X=X=X=X=X=X=X=X",
"=X=X=X=X@Xh.N.P.H.P.H.U.v.*.H 9.^ k k Q oX=X=X=X_.o.;.T.R.Z.$.i @ P Q.S = e.=X*X=X=X=X=X=X=X=X=X=X=X=X=X=X=X=X=X=X*X=X=X",
"=X=X=X=X+Xj.g.j.j.g.j.j.g.e.3.-.<._ T ! U /.=X/.I * a O.O.M i * o ; I 6 e.oX=X=X=X=X=X=X=X=X=X=X=X=X=X=X=X=X=X=X=X=X=X=X",
"=X=X=X=X$Xg.0.0.i.v.e.0.e.7.&.<.<.^ D F & [ q.` o & * M X., 7 3 = o . % V.=X=X=X=X=X=X=X=X=X*X=X=X&X=X=X=X=X=X=X=X=X=X*X",
"=X=X=X=X@Xg.g.i.j.U.z.r.d.7.Q =.! h u 5 o   & - o 1 % Y O.3 D 9 = @ @ @ 6.oX=X=X=X=X=X=X=X=X=X=X=X=X=X=X*X=X=X=X=X=X=X=X",
"=X=X=X=X%Xh.F.N.j.~.~.j.N.F.8.K k z F k 3 - K ^ * - p 3 5 T 9 & # > 9 ; o 6.=X=X=X=X=X=X=X=X=X=X=X=X=X=X=X=X=X=X*X=X=X=X",
"=X=X=X=X%Xh.F.P.P.~.U.P.U.F.i.N.w.=.1.9.=.,.9.3.&.V +.N f @.*   j ( G 9 @ 5.=X=X=X=X=X=X=X=X=X=X=X=X=X=X&X=X=X=X=X=X=X=X",
"=X=X=X=X@Xg.g.j.z.g.h.j.g.g.u.h.v.H.~.I.I.I.Y.D.=.e b f 2 r @ . = q j D ; 8 6.=X=X=X=X=X=X=X=X=X=X&X=X=X=X=X=X=X=X=X=X=X",
"=X=X=X=X*X!.W.W.W.E.Q.W.Q.Q.~.W.G.~._.I.D.b.b.b.r.3 b v 5 B & X . o 6 v 9 # I =X=X=X=X=X=X=X=X=X=X=X=X=X=X*X=X=X=X=X*X=X",
"=X=X=X=X=X=X=X=X=X=X@X+X@X+X@X=X(.P.W.F.d.a.d.b.n.d C B h C & . . o - W A ; U *X=X=X=X=X=X=X=X=X=X=X=X=X=X=X=X=X=X=X=X=X",
"=X=X=X=X=X=X=X=X=X*X~.H.H.H.W.&X(._.{.H.P.F._.{.z.8 5 8 & o o o . o - ( W 3 J oX*X=X=X=X=X=X=X=X=X=X=X=X=X=X=X=X=X=X=X=X",
"=X=X=X=X=X=X=X=X=X*X.XW.^.[.W.&X/._.{.P. XU.).).2.1 & 8 9 & 3 - o . o 1 1 # o S oX=X=X=X=X=X=X=X=X=X=X=X=X=X=X=X=X=X=X=X",
"=X=X=X=X=X=X=X=X=X*X^.H.W.P.W.&X`.P.P.H.W.P.U.B.,.6 3 k l 9 ; g <   o j ~ B = 6 oX=X=X=X=X=X=X=X=X=X=X=X=X=X=X*X=X=X*X*X",
"=X=X=X=X=X=X=X=X=X=XoX}.}.}. X*XOX}.].}.].}. XB.L ; j ! ^ c = K H & o 3 B r & 6 oX=X=X=X=X=X=X=X=X=X=X=X=X=X=X=X=X=X=X=X",
"=X=X=X=X=X=X=X=X=X=X=X=X=X=X=X=X=X=X=X=X=X=X=XV.& @ 9 H R g & D D 3 - . & = @ 6 oX=X=X*X=X=X=X=X=X=X=X=X=X=X=X=X=X=X=X=X",
"=X=X=X=X=X=X=X=X=X=X=X=X=X=X=X=X=X=X=X=X=X=X=XV.@ & # o X o & & o > c 2 6 8 6 S oX=X=X=X=X=X=X=X=X=X=X=X=X=X=X=X=X=X=X=X",
"=X=X=X=X=X=X=X=X=X=X=X=X=X=X=X=X=X=X=X=X=X=X=XE.; l j ; o % 9 D B y 2 D p = L oX=X=X=X=X=X=X=X=X=X=X=X=X=X=X=X=X=X=X*X=X",
"=X=X=X=X=X=X=X=X=X=X=X=X=X=X=X=X=X=X=X=X=X=X=XV.@ # & @ X % - - * $ o - & [ `.=X=X=X=X=X=X=X=X=X=X=X=X=X=X=X=X=X=X=X=X=X",
"=X=X=X=X=X=X=X=X=X=X=X=X=X=X=X=X=X=X=X=X=X=X=XG.t &.#.i   & E -.E + & ..6.E.=X=X=X=X=X=X=X=X=X=X=X*X=X=X=X=X=X=X=X=X=X=X",
"=X=X=X=X=X=X=X=X=X=X=X=X=X=X=X=X=X=X=X=X=X=X=XG.n A.C.n   & %.S.-.w 6 |.=X=X=X=X=X=X=X=X=X=X=X=X=X=X=X=X=X=X=X=X=X=X=X=X",
"=X=X=X=X=X=X=X=X=X=X=X=X=X=X=X=X=X=X=X=X=X=X=XV.# c j & o 6 7 A z ; 6 !.*X=X=X=X=X=X=X=X*X=X=X=X=X=X=X=X=X*X=X=X=X=X*X=X",
"=X=X=X=X=X=X=X=X=X=X=X=X=X=X=X=X=X=X=X=X=X=X=XV.% = = O L !.6 O & & o 6 E.=X=X=X=X=X=X=X=X=X=X=X=X=X=X=X=X=X=X=X=X=X=X=X",
"=X=X=X=X=X=X=X=X=X=X=X=X=X=X=X=X=X=X=X=X=X=Xc.Z % p ; o U |.6 = p p % o V.=X=X=X=X=X=X=X=X=X=X=X=X=X=X&X=X=X=X=X=X=X=X=X",
"=X=X=X=X=X=X=X=X=X=X=X=X=X=X=X=X=X=X=X=X=Xx.S ; p A ; . U oX6 # 6 3 o o V.=X=X=X=X=X=X=X=X=X=X*X=X=X=X=X=X=X=X=X=X=X=X=X",
"=X=X=X=X=X=X=X=X=X=X=X=X=X=X=X=X=X=X=X=X=X5.q 8 k ; % 0 t.|.0 & 4 7 % o V.=X=X=X=X=X=X=X=X=X=X=X=X=X=X=X=X=X=X=X=X=X=X=X",
"=X=X=X=X=X=X=X=X=X=X=X=X=X=X=X=X=X=X=X=X=X=Xp.6 0 6 1 p.=XoXS p ^ ! 6 8 E.=X=X=X=X=X=X=X=X=X*X=X=X=X=X=X=X=X=X=X=X=X*X=X",
"=X=X=X=X=X=X=X=X=X=X=X=X=X=X=X=X=X=X=X=X=X=X#XoXoXoX|.+X=X=XoXU - - q !.&X=X=X=X=X=X=X=X=X=X=X=X=X=X=X&X=X=X=X=X=X=X=X=X",
"=X=X=X=X=X=X=X=X=X=X=X=X=X=X=X=X=X=X=X=X=X=X=X=X=X=X=X=X=X=X=X`.V.V.E.*X=X=X=X=X=X=X=X=X=X=X=X=X=X=X=X=X=X=X=X=X=X=X=X=X",
"=X=X=X=X=X=X=X=X=X=X=X=X=X=X=X=X=X=X=X=X=X=X=X=X=X=X=X=X=X=X=X=X=X=X=X=X=X=X=X=X=X=X=X=X=X=X=X=X=X=X=X=X=X=X=X*X=X=X*X=X",
"=X=X=X=X=X=X=X=X=X=X=X=X=X=X=X=X=X=X=X=X=X=X=X=X=X=X=X=X=X=X=X=X=X=X=X=X=X=X=X=X=X=X=X=X=X=X=X=X=X=X=X=X=X=X=X=X=X=X*X=X",
"=X=X=X=X=X=X=X=X=X=X=X=X=X=X=X=X=X=X=X=X=X=X=X=X=X=X=X=X=X=X=X=X=X=X=X=X=X=X=X=X=X=X=X=X=X=X=X=X=X=X=X=X=X=X=X=X=X=X=X=X",
"=X=X=X=X=X=X=X=X=X=X=X=X=X=X=X=X=X=X=X=X=X=X=X=X=X=X=X=X=X=X=X=X=X=X=X=X=X=X=X=X=X=X=X=X=X=X=X=X=X=X=X=X=X=X=X=X=X=X=X=X",
"=X=X=X=X=X=X=X=X=X=X=X=X=X=X=X=X=X=X=X=X=X=X=X=X=X=X=X=X=X=X=X=X=X=X=X=X=X=X=X=X=X=X=X=X=X=X=X=X=X=X=X=X=X=X=X=X*X=X=X=X",
"=X=X=X=X=X=X=X=X=X=X=X=X=X=X=X=X=X=X=X=X=X=X=X=X=X=X=X=X=X=X*X=X=X=X=X=X=X=X=X=X=X=X=X=X=X=X=X=X=X=X=X=X=X=X=X=X=X=X=X=X",
"=X=X=X=X=X=X=X=X=X=X=X=X=X=X=X=X=X=X=X=X=X=X=X=X=X=X=X=X=X=X=X=X=X=X=X=X=X=X=X=X=X=X=X=X=X=X=X=X=X=X=X=X=X=X=X=X=X=X*X=X",
"=X=X=X=X=X=X=X=X=X*X=X=X=X=X=X=X=X=X=X=X=X=X=X=X=X=X=X=X=X=X=X=X=X=X=X=X=X=X=X=X=X=X=X=X=X=X=X=X=X=X=X=X=X=X=X*X=X=X=X=X",
"=X=X=X=X=X=X=X=X=X*X=X=X=X=X=X=X=X=X=X=X=X=X=X=X=X=X=X=X=X=X=X=X=X=X=X=X=X=X=X=X=X=X=X=X=X=X=X=X=X=X=X=X=X=X=X=X=X=X=X=X",
"=X=X=X=X=X=X=X=X=X=X=X=X=X=X*X=X=X=X=X=X=X=X=X=X=X=X=X=X=X=X*X=X=X=X=X=X=X=X=X=X=X=X=X=X=X=X=X=X=X=X=X=X=X=X=X=X=X=X=X=X",
"=X=X=X=X=X=X=X=X=X=X=X=X=X=X=X=X=X=X=X=X=X=X=X=X=X=X=X=X=X=X=X=X=X=X=X=X=X=X=X=X=X=X=X=X=X=X=X=X=X=X=X=X=X=X=X=X=X=X=X=X",
"=X=X=X=X=X=X=X=X=X=X=X=X=X=X=X=X=X=X=X=X=X=X=X=X=X=X=X=X=X=X=X=X=X=X=X=X=X=X=X=X=X=X=X=X=X=X=X=X=X=X=X=X=X=X=X=X=X=X=X=X",
"=X=X=X=X=X=X=X=X=X=X=X=X=X=X=X=X=X=X=X=X=X*X=X=X=X=X=X=X=X=X=X=X=X=X=X=X=X=X=X=X=X=X=X=X=X=X=X=X=X=X=X=X=X=X=X=X=X=X=X=X"
};
