/* XPM */
static char *result[] = {
/* columns rows colors chars-per-pixel */
"60 60 169 2 ",
"   c #161717",
".  c #161718",
"X  c #161A1A",
"o  c #1B1C1C",
"O  c #211E1D",
"+  c #21211E",
"@  c #33311C",
"#  c #39361E",
"$  c #1E2120",
"%  c #232423",
"&  c #2B2623",
"*  c #272826",
"=  c #2A2A26",
"-  c #26282A",
";  c #2C2D2A",
":  c #3A2623",
">  c #322925",
",  c #312D29",
"<  c #3A2D2A",
"1  c #2F312C",
"2  c #393327",
"3  c #3F3E23",
"4  c #33322C",
"5  c #3B362E",
"6  c #343433",
"7  c #383731",
"8  c #373836",
"9  c #3C3A34",
"0  c #3B3C3B",
"q  c #432924",
"w  c #453627",
"e  c #48322E",
"r  c #5D332B",
"t  c #453632",
"y  c #423D36",
"u  c #483D33",
"i  c #5F3C35",
"p  c #523E3B",
"a  c #6B3931",
"s  c #743F35",
"d  c #524928",
"f  c #494233",
"g  c #44413A",
"h  c #4A453C",
"j  c #564835",
"k  c #56443C",
"l  c #534A3E",
"z  c #6B4738",
"x  c #72443A",
"c  c #6E5B36",
"v  c #6F583C",
"b  c #6A602B",
"n  c #7E6B36",
"m  c #444545",
"M  c #4B4C4C",
"N  c #524B42",
"B  c #5C4C43",
"V  c #524F49",
"C  c #5B5244",
"Z  c #5B5349",
"A  c #4C4F50",
"S  c #535454",
"D  c #595A5A",
"F  c #675640",
"G  c #60564B",
"H  c #69534C",
"J  c #63594D",
"K  c #73574D",
"L  c #635A52",
"P  c #685E54",
"I  c #615D5B",
"U  c #7C5A51",
"Y  c #6D6153",
"T  c #64605D",
"R  c #6B625A",
"E  c #736657",
"W  c #71675E",
"Q  c #73695C",
"!  c #7A6B5A",
"~  c #5F6260",
"^  c #646565",
"/  c #6A6561",
"(  c #6D6964",
")  c #6A6B6B",
"_  c #736C65",
"`  c #736D68",
"'  c #7C736A",
"]  c #6C6F70",
"[  c #7C7A77",
"{  c #804B41",
"}  c #855045",
"|  c #88554A",
" . c #8E594D",
".. c #94584D",
"X. c #885E53",
"o. c #826544",
"O. c #937049",
"+. c #9D695A",
"@. c #8D7152",
"#. c #9C6F62",
"$. c #80766A",
"%. c #867D74",
"&. c #8C7C73",
"*. c #9E7C70",
"=. c #8B8176",
"-. c #8E857A",
";. c #958A7E",
":. c #B18172",
">. c #C88574",
",. c #CC8D7D",
"<. c #848382",
"1. c #878888",
"2. c #8B8C8C",
"3. c #998F84",
"4. c #958F8E",
"5. c #9F9588",
"6. c #999898",
"7. c #A1978A",
"8. c #A99F92",
"9. c #ACA396",
"0. c #A6A19D",
"q. c #AFA69A",
"w. c #B4AB9E",
"e. c #A6A7A7",
"r. c #AEA9A6",
"t. c #A9A7A8",
"y. c #ABABAB",
"u. c #B8AFA1",
"i. c #B8B1A6",
"p. c #BAB2A8",
"a. c #B6B4B2",
"s. c #B9B5B3",
"d. c #BCBAB7",
"f. c #BBBBBB",
"g. c #D2AE9F",
"h. c #C3B5AC",
"j. c #C1B9AC",
"k. c #D1B1A3",
"l. c #C1BDBE",
"z. c #EDBEAD",
"x. c #C9C1B2",
"c. c #C1C0BF",
"v. c #CFC9BE",
"b. c #D0CABE",
"n. c #F3CBBB",
"m. c #C3C3C3",
"M. c #C8C5C5",
"N. c #CDCECD",
"B. c #D4CEC3",
"V. c #D7D1C6",
"C. c #DBD6CB",
"Z. c #DDD8CD",
"A. c #D2D2D2",
"S. c #DFDBD3",
"D. c #DBDBDC",
"F. c #E0DCD3",
"G. c #E5E1D9",
"H. c #E9E5DC",
"J. c #F8E5D2",
"K. c #F7EBD6",
"L. c #E2E2E2",
"P. c #EAE7E1",
"I. c #ECEDEC",
"U. c #EFEFF0",
"Y. c #F6F5F5",
"T. c #F9F7F6",
"R. c #F9F8F4",
"E. c #F9F7F9",
"W. c #FCFCFC",
/* pixels */
"W.W.W.W.W.W.W.W.W.W.W.W.W.W.W.W.W.W.W.W.W.W.W.W.W.W.W.W.W.W.W.W.W.W.W.W.W.W.W.W.W.W.W.W.W.W.W.E.W.W.W.W.W.W.W.W.W.W.W.W.",
"W.W.W.W.W.W.W.W.W.W.W.W.W.W.W.W.W.W.W.W.W.W.W.W.W.W.W.W.W.W.W.W.E.W.W.W.W.E.W.W.W.W.W.W.W.W.W.W.W.W.W.W.W.W.E.W.W.W.W.W.",
"W.W.W.W.W.W.W.W.W.W.W.W.W.W.W.W.W.W.W.W.W.W.W.W.W.W.W.W.W.W.W.W.W.W.W.W.W.W.W.W.W.W.W.W.W.W.W.W.W.W.W.W.W.R.W.W.W.W.E.W.",
"W.W.W.W.W.W.W.W.W.W.W.W.W.W.W.W.W.W.W.W.W.W.W.W.W.W.W.W.W.W.W.W.W.W.W.W.W.W.W.W.W.W.W.W.W.W.W.W.W.W.W.E.W.W.W.W.E.W.W.W.",
"W.W.W.W.W.W.W.W.W.W.W.W.W.W.W.W.W.W.W.W.W.W.W.W.W.W.W.W.W.W.W.W.W.W.W.W.W.W.W.W.W.W.W.W.W.W.W.W.W.W.W.W.W.W.W.W.E.W.W.W.",
"W.W.W.W.W.W.W.W.W.W.W.W.W.W.W.W.W.W.W.W.W.W.W.W.W.W.W.W.W.W.W.R.W.E.E.W.W.W.W.W.W.W.W.W.E.W.W.W.W.W.W.W.W.W.W.W.W.W.W.W.",
"W.W.W.W.W.W.W.W.W.W.W.W.W.W.W.W.W.W.W.W.W.W.W.W.W.W.W.W.W.W.W.0._ / ( ( R a.W.W.W.W.W.W.W.W.W.W.W.W.W.W.W.W.W.W.W.R.W.W.",
"W.W.W.W.W.W.W.W.W.W.W.W.W.W.W.W.W.W.W.W.W.W.W.W.W.W.W.W.W.Y.r.W G L L N N ( a.W.W.W.W.W.W.W.W.W.W.W.W.W.R.R.W.W.W.W.W.W.",
"W.W.W.W.W.W.W.W.W.W.W.W.W.W.W.W.W.W.W.W.W.W.W.W.W.W.W.E.I.d.R =.8.q.5.-.=.P T M.Y.W.W.W.W.W.W.W.W.W.W.W.W.W.W.W.W.W.W.W.",
"W.W.W.W.W.W.W.W.W.W.W.W.W.W.W.W.W.E.W.W.W.W.W.W.W.W.W.Y.f.Y 3.V.P.Z.j.u.p.7.L N L.W.W.W.W.W.W.W.W.W.W.W.W.W.W.W.Y.W.W.W.",
"W.W.W.W.W.W.W.W.W.W.W.W.W.W.W.W.W.W.W.W.W.W.W.W.W.W.W.r._ w.C.G.H.H.C.8.b.B.-.N L.W.W.W.W.W.W.W.W.W.W.W.W.W.W.W.W.W.W.W.",
"W.W.W.W.W.W.W.W.W.W.W.W.W.W.W.W.W.W.W.W.W.W.W.W.W.W.W.4.R S.Y.V.S.R.S.=.w.x.9.' ` A.W.W.W.W.W.W.W.W.W.W.W.W.W.R.W.W.R.W.",
"W.W.W.W.W.W.W.W.W.W.W.W.W.W.W.W.W.W.W.W.W.W.W.W.W.W.s.' -.H.F.V.G.P.p.' i.j.7.' y c.W.W.W.W.W.W.W.W.W.W.W.W.W.W.W.W.W.W.",
"W.W.W.W.W.W.W.W.W.W.W.W.W.W.W.W.W.W.W.W.W.W.W.W.W.E./ Z 9.V.u.C.H.j.' Q i.h.;.R 9 l.W.W.W.W.W.W.W.W.W.W.W.W.W.W.W.R.W.W.",
"W.W.W.W.W.W.W.W.W.W.W.W.W.W.W.W.W.W.W.W.W.W.W.W.W.E.I g =.q.3.v.b.3.B C $.9.8.P , f.W.W.W.W.W.W.W.W.W.W.W.W.W.W.W.R.W.W.",
"W.W.W.W.W.W.W.W.W.W.W.W.W.W.W.W.W.W.W.W.W.W.W.W.W.E.T 5 Q ;.' 9.-.K +.u N $.%.h > c.W.W.W.W.W.W.W.W.W.W.W.W.W.W.W.W.W.W.",
"W.W.W.W.W.W.W.W.W.W.W.W.W.W.W.W.W.W.W.W.W.W.W.W.W.W.A.[ y y Z S 7 4 t * * m M y y.I.W.W.W.W.W.W.W.E.W.W.W.W.W.W.W.W.W.W.",
"W.W.W.W.W.W.W.W.W.W.W.W.W.W.W.W.W.W.W.W.W.W.W.W.W.W.W.4.$ o 4 * - $ X X & i a 9 L.W.W.W.W.W.W.W.W.W.W.W.W.W.W.W.W.W.W.E.",
"W.W.W.W.W.W.W.W.W.W.W.W.W.W.W.W.W.W.W.W.W.W.W.W.W.W.W.4.< k L ( _ Y k e r s i 7 y.U.W.W.W.W.W.W.W.W.W.W.W.W.W.W.W.E.W.W.",
"W.W.W.W.W.W.W.W.W.W.W.W.W.W.W.W.W.W.W.W.W.W.W.W.W.W.W.u.| ,.n.K.J.z.>. .a e 4 % $ c.W.W.W.W.W.W.W.W.W.W.W.W.W.W.W.W.W.W.",
"W.W.W.W.W.W.W.W.W.W.W.W.W.W.W.W.W.W.W.W.W.W.E.W.W.W.W.E.h.{ ,.n.n.>...< O <.a.7 1 f.W.W.W.W.W.W.W.W.W.W.W.W.W.W.W.E.W.W.",
"W.W.W.W.W.W.W.W.W.W.W.W.W.W.W.W.W.W.W.W.E.W.W.W.W.W.W.W.l.: { X. .x : + X 0 A 0 y.U.W.E.W.W.W.W.W.W.E.W.W.W.W.W.W.W.E.W.",
"W.W.W.W.W.W.W.W.W.W.W.W.W.W.W.W.W.W.W.W.W.W.W.W.W.W.W.M.) = : } x > 9 4 % X X 8 L.W.W.W.W.W.W.W.W.W.W.W.W.W.W.W.W.W.W.W.",
"W.W.W.W.W.W.W.W.W.W.W.W.W.W.W.W.W.W.W.W.W.W.W.W.W.W.A.^ o 1 - X.H 4 N 4 % = , 1 y.I.W.W.W.W.W.W.W.W.W.W.W.W.E.W.W.W.W.W.",
"W.W.W.W.W.W.W.W.W.W.W.W.W.W.W.W.W.W.W.W.W.W.W.W.W.W.D o O = f , f C 4 $ o l J = % t.T.W.W.W.W.W.W.W.W.W.W.E.W.W.W.E.W.W.",
"W.W.W.W.W.W.W.W.W.W.W.W.W.W.W.W.W.W.W.W.W.W.W.W.W.E.D 4 y + O.d c o.o o g h h l = = 6.W.W.W.W.W.E.W.W.W.W.W.E.W.W.W.W.W.",
"W.W.W.W.W.W.W.W.W.W.W.W.W.W.W.W.W.W.W.W.W.W.W.W.W.T.D % = + b 3 2 t o . % * g ! N % 1.W.W.W.W.W.W.E.W.W.E.W.W.W.W.W.W.W.",
"W.W.W.W.W.W.W.W.W.W.W.W.W.W.W.W.W.W.W.W.W.W.W.W.W.W.D & 2 @ n f f j o . + o = V N % 1.W.W.W.W.W.W.W.E.W.W.W.W.E.W.W.W.W.",
"W.W.W.W.W.W.W.W.W.W.W.W.W.W.W.W.W.W.W.W.W.W.W.W.Y.c.m y C # o.j F v o X 5 y 2 % = o 1.W.W.W.W.W.W.W.W.W.W.W.W.W.W.W.W.W.",
"W.W.W.W.W.W.W.W.W.W.W.W.W.W.W.W.W.W.W.W.W.W.W.W.L.8 X l Z o % y 9 $ X . h @.o.o X & 6.W.W.W.W.W.W.W.W.W.W.W.W.W.W.W.E.W.",
"W.W.W.W.W.W.W.W.W.W.W.W.W.W.W.W.W.W.W.W.W.W.W.W.L.6 ; ; $ $ % h y $ o X J ! l % o e.T.W.W.W.W.W.W.W.W.W.W.W.W.W.W.W.W.W.",
"W.W.W.W.W.W.W.W.W.W.W.W.W.W.W.W.W.W.W.W.W.W.W.W.L.6 + o X $ 1 N h = % y 5 C E h % d.W.W.W.W.W.W.W.W.W.W.W.W.W.W.W.W.E.W.",
"W.W.W.W.W.W.W.W.W.W.W.W.W.W.W.W.W.W.W.W.W.W.W.W.L.6 % + X & h Y J 9 % E h y h h <.D.W.W.W.W.W.W.W.W.W.E.W.W.W.W.W.W.W.W.",
"W.W.W.W.W.W.W.W.W.W.W.W.W.W.W.W.W.W.W.W.W.W.W.W.L.6 ; * X % g G C 5 % C N = * ] I.W.W.E.W.W.W.R.W.W.W.W.W.W.W.W.E.W.E.W.",
"W.W.W.W.W.W.W.W.W.W.W.W.W.W.W.W.W.W.W.W.W.W.W.W.L.M % o X + % X   o & + O o D Y.W.W.W.W.W.W.W.W.W.W.W.W.W.W.W.W.W.W.W.W.",
"W.W.W.W.W.W.W.W.W.W.W.W.W.W.W.W.W.W.W.W.W.W.W.W.W.L.D o 1 N y - X % g N z w ~ E.W.W.W.W.W.W.W.W.W.W.W.W.W.W.W.W.W.W.W.W.",
"W.W.W.W.W.W.W.W.W.W.W.W.W.W.W.W.W.W.W.W.W.W.W.W.W.W.A.) - = % o   o = , > + D W.W.W.W.W.W.W.W.W.E.W.W.W.W.W.W.W.W.W.W.W.",
"W.W.W.W.W.W.W.W.W.W.W.W.W.W.W.W.W.W.W.W.W.W.W.W.W.W.W.1.9 &.U > S ) % K &.H p 6.U.W.W.W.W.W.W.W.W.W.W.W.W.W.W.W.W.W.W.W.",
"W.W.W.W.W.W.W.W.W.W.W.W.W.W.W.W.W.W.W.W.W.W.W.W.W.W.A.^ N k.:.t 2.f.& #.g.*.q 6 L.W.W.W.W.W.W.W.W.E.W.W.W.W.W.W.W.W.W.W.",
"W.W.W.W.W.W.W.W.W.W.W.W.W.W.W.W.W.W.W.W.W.W.W.W.W.T.D o 4 N 9 ; e.l.% 4 N h = 6 L.W.W.E.W.W.W.W.W.W.W.W.E.E.W.W.W.W.W.W.",
"W.W.W.W.W.W.W.W.W.W.W.W.W.W.W.W.W.W.W.W.W.W.W.W.W.Y.D o % - $ e.W.f.o % % O X 6 L.W.W.W.W.W.W.W.W.W.E.W.W.E.W.W.W.W.E.W.",
"W.W.W.W.W.W.W.W.W.W.W.W.W.W.W.W.W.W.W.W.W.W.W.W.I.) - 4 y o o f.W.f.O 1 g 4 o 6 L.W.W.W.W.E.W.W.W.W.W.W.W.W.W.W.W.W.W.W.",
"W.W.W.W.W.W.W.W.W.W.W.W.W.W.W.W.W.W.W.W.W.W.W.D.[ 6 7 h 0 o o f.W.f.O % 7 , o 6 L.W.W.W.W.W.W.W.W.W.W.E.W.W.W.W.W.W.W.W.",
"W.W.W.W.W.W.W.W.W.W.W.W.W.W.W.W.W.W.W.W.W.W.W.N.A 6 y y - % S N.W.f.o & 9 4 o 6 L.W.W.W.W.W.W.W.W.W.W.W.W.W.E.W.W.W.W.W.",
"W.W.W.W.W.W.W.W.W.W.W.W.W.W.W.W.W.W.W.W.W.W.W.W.L.A 6 8 6 M L.W.W.m.8 N E V 1 M L.W.W.W.W.W.W.W.W.W.W.W.W.W.E.W.W.E.W.W.",
"W.W.W.W.W.W.W.W.W.W.W.W.W.W.W.W.W.W.W.W.W.W.W.W.W.L.L.L.L.L.E.W.W.Y.N.0 ; * D L.W.E.W.W.W.W.W.W.W.W.W.W.W.W.W.W.W.W.W.W.",
"W.W.W.W.W.W.W.W.W.W.W.W.W.W.W.W.W.W.W.W.W.W.W.W.W.W.W.E.W.W.W.W.W.W.Y.m.f.f.N.W.W.W.W.W.W.Y.W.W.W.W.W.W.W.W.W.W.E.W.W.W.",
"W.W.W.W.W.W.W.W.W.W.W.W.W.W.W.W.W.W.W.W.W.W.W.W.W.W.W.W.W.W.W.W.W.W.W.W.W.W.W.W.W.W.W.W.W.W.W.W.W.W.W.W.W.W.W.W.W.W.W.E.",
"W.W.W.W.W.W.W.W.W.W.W.W.W.W.W.W.W.W.W.W.W.W.W.W.W.W.W.W.W.W.W.W.W.W.W.W.W.W.W.W.W.W.W.W.W.W.W.W.W.W.W.W.W.W.W.W.W.W.E.E.",
"W.W.W.W.W.W.W.W.W.W.W.W.W.W.W.W.W.W.W.W.W.W.W.W.W.W.W.W.W.W.W.W.W.W.W.W.W.W.W.W.W.W.W.W.W.W.W.W.W.W.W.W.W.W.W.W.W.E.W.W.",
"W.W.W.W.W.W.W.W.W.W.W.W.W.W.W.W.W.W.W.W.W.W.W.W.W.W.W.W.W.W.W.W.W.W.W.W.W.W.W.W.W.W.W.W.W.W.W.W.W.W.W.W.R.W.W.W.W.W.W.W.",
"W.W.W.W.W.W.W.W.W.W.W.W.W.W.W.W.W.W.W.W.W.W.W.W.W.W.W.W.W.W.W.W.W.W.W.W.W.W.W.W.W.W.W.W.W.W.W.W.W.W.W.W.W.W.W.W.W.E.W.E.",
"W.W.W.W.W.W.W.W.W.W.W.W.W.W.W.W.W.W.W.W.W.W.W.W.W.W.W.W.W.W.W.W.W.W.W.W.W.W.W.W.W.W.W.W.W.W.W.W.W.W.W.W.W.W.W.W.W.W.E.W.",
"W.W.W.W.W.W.W.W.W.W.W.W.W.W.W.W.W.W.W.W.W.W.W.W.W.W.W.W.W.W.W.W.W.W.W.W.W.W.W.W.W.W.W.W.W.W.W.W.W.W.W.W.W.W.W.W.W.W.W.W.",
"W.W.W.W.W.W.W.W.W.W.W.W.W.W.W.W.W.R.W.W.W.W.W.W.W.W.W.W.W.W.W.W.W.W.W.W.W.W.W.W.W.W.W.W.W.W.W.W.W.W.W.W.W.W.W.W.W.W.W.W.",
"W.W.W.W.W.W.W.W.W.R.W.W.W.W.W.W.W.W.W.W.W.W.W.W.W.W.W.W.W.W.W.R.W.W.W.W.E.W.W.W.W.W.W.W.W.W.W.W.W.W.W.W.W.W.W.W.W.W.W.W.",
"W.W.W.W.W.W.W.W.W.W.W.W.W.R.W.W.W.W.W.W.W.W.W.W.W.W.W.W.W.W.W.W.W.W.W.W.W.W.W.W.W.W.W.W.W.W.W.W.W.W.W.W.W.W.W.W.W.W.W.W.",
"W.W.W.W.W.W.W.W.W.W.W.W.W.W.W.W.W.W.W.W.W.W.W.W.W.W.W.W.W.W.W.W.W.W.W.W.W.W.W.W.W.W.W.W.W.W.W.W.W.W.W.W.W.W.W.W.W.W.W.W.",
"W.W.W.W.W.W.W.W.W.W.W.W.W.W.W.W.W.W.W.W.W.W.W.W.W.W.W.W.W.W.W.W.W.W.W.W.W.W.W.W.W.W.W.W.W.W.W.W.W.W.W.W.W.W.W.W.W.W.W.W.",
"W.W.W.W.W.W.W.W.W.W.W.W.W.W.W.W.W.W.W.W.W.R.W.W.W.W.W.W.W.W.W.W.W.W.W.W.W.W.W.W.W.W.W.W.W.W.W.W.W.W.W.W.W.W.W.W.W.W.W.W."
};
