/* XPM */
static char *result[] = {
/* columns rows colors chars-per-pixel */
"60 60 99 2 ",
"   c #34342C",
".  c gray20",
"X  c #343331",
"o  c #323433",
"O  c #333335",
"+  c #452A2F",
"@  c #442C2C",
"#  c #797B65",
"$  c #7B7A65",
"%  c #7B7A66",
"&  c #7C7A65",
"*  c #7B7A68",
"=  c #923027",
"-  c #8D8B7C",
";  c #8D8B7E",
":  c #8E8A7E",
">  c #8E8A7F",
",  c #8B8C7E",
"<  c #AEAB98",
"1  c #AEAB9A",
"2  c #ADAB9E",
"3  c #ADAB9F",
"4  c #BCB9A8",
"5  c #BCB9AA",
"6  c #BCB8AC",
"7  c #D6D4BF",
"8  c #D6D3C0",
"9  c #D6D3C2",
"0  c #D5D4C2",
"q  c #D3D3C7",
"w  c #D5D3C4",
"e  c #FAFBF9",
"r  c gray98",
"t  c #FBFAFA",
"y  c #FAFBFA",
"u  c #FBFBFA",
"i  c #FAFAFB",
"p  c #FBFAFB",
"a  c #FAFBFB",
"s  c #FBFBFB",
"d  c #FCFAFA",
"f  c #FCFBFA",
"g  c #FDFBFA",
"h  c #FCFAFB",
"j  c #FDFAFB",
"k  c #FCFBFB",
"l  c #FDFBFB",
"z  c #FAFCFA",
"x  c #FBFCFA",
"c  c #FBFDFA",
"v  c #FAFCFB",
"b  c #FBFCFB",
"n  c #FBFDFB",
"m  c #FCFCFA",
"M  c #FCFCFB",
"N  c #FDFCFB",
"B  c #FCFDFB",
"V  c #FDFDFB",
"C  c #F9FAFC",
"Z  c #FBFAFC",
"A  c #FAFBFC",
"S  c #FBFBFC",
"D  c #FBFBFD",
"F  c #FCFAFC",
"G  c #FDFAFC",
"H  c #FCFBFC",
"J  c #FDFBFC",
"K  c #FCFAFD",
"L  c #FCFBFD",
"P  c #FDFBFD",
"I  c #FEFBFC",
"U  c #FAFCFC",
"Y  c #FBFCFC",
"T  c #FBFDFC",
"R  c #FBFCFD",
"E  c #FAFDFD",
"W  c #FBFEFC",
"Q  c #FAFEFD",
"!  c #FBFCFE",
"~  c gray99",
"^  c #FDFCFC",
"/  c #FCFDFC",
"(  c #FDFDFC",
")  c #FCFCFD",
"_  c #FDFCFD",
"`  c #FCFDFD",
"'  c #FDFDFD",
"]  c #FEFCFC",
"[  c #FEFDFC",
"{  c #FEFCFD",
"}  c #FEFDFD",
"|  c #FCFEFC",
" . c #FDFEFC",
".. c #FDFEFD",
"X. c #FDFFFD",
"o. c #FCFCFE",
"O. c #FDFCFE",
"+. c #FDFDFE",
"@. c #FDFEFE",
/* pixels */
"H H J J k k L L Y Y Y ' ' ^ ^ ' ' ) ) H H x x +./ / s s / / B B i i M M S H H _ _ ~ ~ H H ~ ~ s s ^ ^ v M M s s J J Y Y ",
"H H J J k k L L Y Y Y ' ' ^ ^ ' ' ) ) H H x x +./ / s s / / B B i i M M S H H _ _ ~ ~ H H ~ ~ s s ^ ^ v M M s s J J Y Y ",
"` ` S S ^ ^ | | ~ ~ ~ ~ ~ ) ) / / b b S S ~ ~ ~ F F ) ) F F H H N N ^ ^ ~ J J Y Y S S k k _ _ H H H H i k k B B l l a a ",
"` ` S S ^ ^ | | ~ ~ ~ ~ ~ ) ) / / b b S S ~ ~ ~ F F ) ) F F H H N N ^ ^ ~ J J Y Y S S k k _ _ H H H H i k k B B l l a a ",
"~ ~ f f b b M M ` ~ ~ ~ ~ ^ ^ ~ ~ G G M M k k M M M R R ^ ^ b b J J ~ ~ s / / S S M M l l ~ ~ M M L L H z z ~ ~ s s R R ",
"~ ~ f f b b M M ` ~ ~ ~ ~ ^ ^ ~ ~ G G M M k k M M M R R ^ ^ b b J J ~ ~ s / / S S M M l l ~ ~ M M L L H z z ~ ~ s s R R ",
"' ' ~ ~ ` ` ^ ^ M ~ ~ ^ ^ R R ( ( ~ ~ s s Y Y Y _ _ H H ^ ^ ' ' s s M M ~ M M ~ ~ ' ' M M u u _ _ M M M h h k k T T s s ",
"' ' ~ ~ ` ` ^ ^ M ~ ~ ^ ^ R R ( ( ~ ~ s s Y Y Y _ _ H H ^ ^ ' ' s s M M ~ M M ~ ~ ' ' M M u u _ _ M M M h h k k T T s s ",
"M M T T / / ~ ~ ~ ~ ~ Y Y ~ ~ ^ ^ l l M M ~ ~ ( H H y y U U v v M M s s a S S H H D D ` ` k k b b ) ) ~ ~ ~ T T M M S S ",
"~ ~ H H ~ ~ H H H b b Y Y b b ` ` a a S S M M ( a a b b ) ) Y Y _ _ M M ) ) ) _ _ ~ ~ M M ` ` Y Y ~ ~ ^ H H b b S S M M ",
"~ ~ H H ~ ~ H H H b b Y Y b b ` ` a a S S M M ( a a b b ) ) Y Y _ _ M M ) ) ) _ _ ~ ~ M M ` ` Y Y ~ ~ ^ H H b b S S M M ",
") ) p p Y Y +.+.( B B S S k k N N / / s s ~ ~ H Y Y k k k k M M S S ` ` M F F ^ ^ b b ( ( Y Y M M J J u k k x x u u u u ",
") ) p p Y Y +.+.( B B S S k k N N / / s s ~ ~ H Y Y k k k k M M S S ` ` M F F ^ ^ b b ( ( Y Y M M J J u k k x x u u u u ",
"M M S S H H s s ) s s H H ~ ~ Y Y ~ ~ / / ) ) / Z Z S S ) ) S S Y Y ) ) J L L S S ` ` D D / / b b y y ~ ~ ~ s s s s V V ",
"M M S S H H s s ) s s H H ~ ~ Y Y ~ ~ / / ) ) / Z Z S S ) ) S S Y Y ) ) J L L S S ` ` D D / / b b y y ~ ~ ~ s s s s V V ",
"H H X.X.S S ) ) ^ ) ) / / k k ` ` n n ) ) _ _ R ) ) ) ) a a L L S S ~ ~ / D D Y Y ^ ^ R R | | ^ ^ Y Y ^ ) ) ~ ~ ~ ~ H H ",
"H H X.X.S S ) ) ^ ) ) / / k k ` ` n n ) ) _ _ R ) ) ) ) a a L L S S ~ ~ / D D Y Y ^ ^ R R | | ^ ^ Y Y ^ ) ) ~ ~ ~ ~ H H ",
"' ' M M H H ~ ~ / M M ) ) ) ) ~ ~ K K _ _ / / H ~ ~ ~ ~ ) ) N N ~ ~ ~ ~ ` Y Y Y Y ` ` M M k k R R Y Y b ` ` H H S S p p ",
"' ' M M H H ~ ~ / M M ) ) ) ) ~ ~ K K _ _ / / H ~ ~ ~ ~ = = N N ~ ~ ~ ~ ` Y Y Y Y ` ` M M k k R R Y Y b ` ` H H S S p p ",
"R R n n ) ) R R M ~ ~ ( ( J J O.O.s s ~ ~ Y Y ) ^ ^ Y Y = = ( ( S S H H S +.+.s s R R k k ~ ~ J J m m S Y Y H H S S Y Y ",
"R R n n ) ) R R M ~ ~ ( ( J J O.O.s s ~ ~ Y Y ) ^ ^ : : , , ; ; S S H H S +.+.s s R R k k ~ ~ J J m m S Y Y H H S S Y Y ",
"S S { { ~ ~ H H ~ R R H H l l b b R R p p ~ ~ t M M : : , , ; ; b b s s k H H f f ) ) s s M M ) ) A A Z ) ) b b ~ ~ u u ",
"S S { { ~ ~ H H ~ R R H H l l b b R R p p ~ ~ t M M 1 1 1 1 - - # # s s k H H f f ) ) s s M M ) ) A A Z ) ) b b ~ ~ u u ",
"M M ~ ~ S S s s S H H { { J J L L ^ ^ ) ) H H W [ [ 1 1 1 1 - - # # ( ( k ' ' J J ) ) H H M M ^ ^ Y Y b H H k k H H j j ",
"R R s s ~ ~ M M H ( ( ) ) ~ ~ ] ] ~ ~ L L Y Y ~ H H 1 1 4 4 % % # # S S S M M k k J J ~ ~ ~ ~ s s k k k s s s s Z Z ~ ~ ",
"R R s s ~ ~ M M H ( ( ) ) ~ ~ ] ] ~ ~ L L Y Y ~ H H 1 1 4 4 % % # # S S S M M k k J J ~ ~ ~ ~ s s k k k s s s s Z Z ~ ~ ",
"~ ~ H H M M I I M R R ^ ^ N N ` ` Y Y ~ ~ M M ^ M M 6 6 5 5 % % # # b b ~ x x B B a a ~ ~ M M A A C C Y b b N N M M k k ",
"~ ~ H H M M I I M R R ^ ^ N N ` ` Y Y ~ ~ M M ^ M M 6 6 5 5 % % # # b b ~ x x B B a a ~ ~ M M A A C C Y b b N N M M k k ",
"/ / _ _ B B { { ~ ( ( _ _ S S H H M M ~ ~ ^ ^ ) ^ ^ 5 5 9 9 * * 1 1 ~ ~ H H X X M ~ ~ _ _ ~ ~ J J ~ ~ s ^ ^ H H ~ ~ S S ",
"/ / _ _ B B { { ~ ( ( _ _ S S H H M M ~ ~ ^ ^ ) ^ ^ 5 5 9 9 * * 1 1 ~ ~ H H X X M ~ ~ _ _ ~ ~ J J ~ ~ s ^ ^ H H ~ ~ S S ",
"T T Y Y / / H H ) M M ^ ^ Y Y s s H H k k H H x ~ ~ 8 8 8 8 ; ; < < Y Y . . + + . . x M M T T ) ) ^ ^ H J J u u Y Y i i ",
"T T Y Y / / H H ) M M ^ ^ Y Y s s H H k k H H x ~ ~ 8 8 8 8 ; ; < < Y Y . . + + . . x M M T T ) ) ^ ^ H J J u u Y Y i i ",
"L L ~ ~ } } ) ) k / / S S M M H H h h ~ ~ / / l k k 1 1 % % < < . . . . l S O O . . M s s ] ] k k ~ ~ s / / ~ ~ k k H H ",
"L L ~ ~ } } ) ) k / / S S M M H H h h ~ ~ / / l k k 1 1 % % < < . . . . l S O O . . M s s ] ] k k ~ ~ s / / ~ ~ k k H H ",
"( ( ^ ^ m m ) ) ~ } } +.+.M M Y Y ~ ~ ~ ~ } } E o o 2 2 @ @ . . . . q q 1 1 * * S H H s s ~ ~ ' ' b b ~ S S H H ~ ~ L L ",
"( ( ^ ^ m m ) ) ~ } } +.+.M M Y Y ~ ~ ~ ~ } } E o o 2 2 @ @ . . . . q q 1 1 * * S H H s s ~ ~ ' ' b b ~ S S H H ~ ~ L L ",
"J J ~ ~ M M ~ ~ ~ M M H H F F M M N N U U ) ) M w w > > . . . . b b 7 7 > > S ~ ~ p p k k ~ ~ s s A A ~ h h b b l l ) ) ",
"~ ~ ~ ~ M M ~ ~ ' / / o.o.M M k k ~ ~ Y Y ' ' _ w w > > . . . . H H 7 7 > > ~ ) ) ~ ~ x x H H N N b b H M M ` ` J J k k ",
"~ ~ ~ ~ M M ~ ~ ' / / o.o.M M k k ~ ~ Y Y ' 8 8 3 3 % % . . P P 0 0     & & ~ ) ) ~ ~ x x H H N N b b H M M ` ` J J k k ",
"p p ` ` M M N N k _ _ ) ) b b ~ ~ l l ^ ^ p 8 8 3 3 % % . . Y Y 0 0     & & ^ ) ) +.+.d d J J ) ) b b ~ u u | | Y Y s s ",
"p p ` ` M M N N k _ _ ) ) b b ~ ~ l l ^ ^ p . . ~ ~ H H . . Y Y 0 0 $ $ O O ^ ) ) +.+.d d J J ) ) b b ~ u u | | Y Y s s ",
"O.O.N N M M L L ` ` ` L L H H S S H H ~ ~ B . . / / ~ ~ . . ~ ~ 0 0 $ $ O O Y s s R R H H g g s s H H a S S ~ ~ L L ~ ~ ",
"O.O.N N M M L L ` ` ` L L H H S S H H ~ ~ B B H . . ~ ~ ....~ ~ ~ ~ L L . . Y s s R R H H g g s s H H a S S ~ ~ L L ~ ~ ",
"B B a a ) ) Y Y ^ p p S S ~ ~ Y Y M M / / B B / . . M M / / ~ ~ ~ ~ / / . . H L L Y Y Y Y v v ` ` Y Y p ) ) p p s s b b ",
"B B a a ) ) Y Y ^ p p S S ~ ~ Y Y M M / / B B / a a M M / / . . . . / / H H H L L Y Y Y Y v v ` ` Y Y p ) ) p p s s b b ",
") ) ~ ~ ~ ~ M M M ` ` ~ ~ k k Y Y ) ) H H b b ' ~ ~ b b S S . . . . M M s ~ ~ } } Y Y ~ ~ b b s s Y Y s M M Y Y s s H H ",
") ) ~ ~ ~ ~ M M M ` ` ~ ~ k k Y Y ) ) H H b b ' ~ ~ b b S S ~ ~ l l M M s ~ ~ } } Y Y ~ ~ b b s s Y Y s M M Y Y s s H H ",
"' ' k k ) ) ~ ~ ' Y Y / / H H ^ ^ y y ~ ~ ~ ~ ~ [ [ H H ) ) ) ) O.O._ _ ~ v v s s p p s s ~ ~ S S Y Y ~ ) ) k k S S r r ",
"' ' k k ) ) ~ ~ ' Y Y / / H H ^ ^ y y ~ ~ ~ ~ ~ [ [ H H ) ) ) ) O.O._ _ ~ v v s s p p s s ~ ~ S S Y Y ~ ) ) k k S S r r ",
"/ / _ _ ) ) H H J k k ( ( M M ~ ~ Y Y / / R R M b b f f ~ ~ H H ) ) Y Y Z / / ~ ~ n n k k M M Y Y M M Y l l H H Y Y s s ",
"/ / _ _ ) ) H H J k k ( ( M M ~ ~ Y Y / / R R M b b f f ~ ~ H H ) ) Y Y Z / / ~ ~ n n k k M M Y Y M M Y l l H H Y Y s s ",
"^ ^ Y Y ! ! ~ ~ ' k k _ _ J J T T ^ ^ ~ ~ ~ ~ ^ H H M M ) ) D D Y Y S S ~ / / M M ~ ~ H H ~ ~ ~ ~ _ _ s H H H H b b D D ",
"~ ~ ~ ~ a a Y Y / ` ` ~ ~ ^ ^ O.O.H H s s M M ~ H H / / L L s s / / H H S ~ ~ ) ) ) ) / / @.@.~ ~ M M ) ~ ~ Y Y Y Y t t ",
"~ ~ ~ ~ a a Y Y / ` ` ~ ~ ^ ^ O.O.H H s s M M ~ H H / / L L s s / / H H S ~ ~ ) ) ) ) / / @.@.~ ~ M M ) ~ ~ Y Y Y Y t t ",
"~ ~ ~ ~ H H L L N e e b b ~ ~  . .J J b b S S s T T S S ) ) I I S S ( ( s s s L L ~ ~ f f D D S S b b ^ / / Z Z M M ~ ~ ",
"~ ~ ~ ~ H H L L N e e b b ~ ~  . .J J b b S S s T T S S ) ) I I S S ( ( s s s L L ~ ~ f f D D S S b b ^ / / Z Z M M ~ ~ ",
"~ ~ ~ ~ s s B B / M M / / c c H H ~ ~ Z Z Y Y Q J J ~ ~ ~ ~ u u / / S S Y H H S S K K M M l l H H S S Y ~ ~ k k H H H H ",
"~ ~ ~ ~ s s B B / M M / / c c H H ~ ~ Z Z Y Y Q J J ~ ~ ~ ~ u u / / S S Y H H S S K K M M l l H H S S Y ~ ~ k k H H H H ",
"k k k k T T ~ ~ k M M _ _ b b J J B B f f k k H ~ ~ k k a a / / ) ) ^ ^ / ~ ~ ~ ~ / / ~ ~ ~ ~ L L ' ' S / / Y Y m m Y Y ",
"k k k k T T ~ ~ k M M _ _ b b J J B B f f k k H ~ ~ k k a a / / ) ) ^ ^ / ~ ~ ~ ~ / / ~ ~ ~ ~ L L ' ' S / / Y Y m m Y Y "
};
