/* XPM */
static char *result[] = {
/* columns rows colors chars-per-pixel */
"60 60 146 2 ",
"   c #171718",
".  c #1C1D1C",
"X  c #1E211E",
"o  c #22201F",
"O  c #2B241E",
"+  c #232422",
"@  c #2D2721",
"#  c #262A25",
"$  c #292A27",
"%  c #2B2D2A",
"&  c #342D25",
"*  c #322F2C",
"=  c #2D322C",
"-  c #31352F",
";  c #3B322A",
":  c #343432",
">  c #393635",
",  c #343B34",
"<  c #3B3B36",
"1  c #373738",
"2  c #3B3C3B",
"3  c #433C35",
"4  c #433E3B",
"5  c #384037",
"6  c #3D443C",
"7  c #454035",
"8  c #4B4135",
"9  c #43433C",
"0  c #4C443C",
"q  c #51473A",
"w  c #554A3C",
"e  c #5B4F3F",
"r  c #444644",
"t  c #4B4542",
"y  c #444B43",
"u  c #4D4A43",
"i  c #4B4B4A",
"p  c #534B42",
"a  c #584F45",
"s  c #524D49",
"d  c #4C534A",
"f  c #5D5041",
"g  c #5B534E",
"h  c #50584F",
"j  c #5D5A4E",
"k  c #555454",
"l  c #5F5750",
"z  c #555C53",
"x  c #5D5D5D",
"c  c #62574D",
"v  c #6C5F4C",
"b  c #615C55",
"n  c #625D5A",
"m  c #586057",
"M  c #5C645A",
"N  c #676251",
"B  c #6E6255",
"V  c #63645E",
"C  c #6B635C",
"Z  c #60685E",
"A  c #6F6B5D",
"S  c #736654",
"D  c #776955",
"F  c #7F715D",
"G  c #615F60",
"H  c #6C6661",
"J  c #656C63",
"K  c #6A6D65",
"L  c #736D63",
"P  c #766E68",
"I  c #687067",
"U  c #6D746B",
"Y  c #747061",
"T  c #70776E",
"R  c #7E756E",
"E  c #71786F",
"W  c #6E6F70",
"Q  c #747372",
"!  c #7B7673",
"~  c #737A71",
"^  c #7E7873",
"/  c #7E7B7A",
"(  c #81745D",
")  c #867962",
"_  c #897C63",
"`  c #837C74",
"'  c #817F7E",
"]  c #95866F",
"[  c #89827B",
"{  c #978871",
"}  c #9F9075",
"|  c #838482",
" . c #868B85",
".. c #8C8C8D",
"X. c #948C84",
"o. c #928F8F",
"O. c #8F908F",
"+. c #9D958D",
"@. c #979695",
"#. c #9B9C9C",
"$. c #A59C94",
"%. c #A39F9E",
"&. c #BAAD8C",
"*. c #A9A097",
"=. c #ADA59C",
"-. c #A3A3A2",
";. c #A9A6A4",
":. c #AAA8A7",
">. c #ACABAB",
",. c #B3ACA3",
"<. c #BDB5AD",
"1. c #B3B3B3",
"2. c #B9B8B7",
"3. c #BBBCBA",
"4. c #C2BBB3",
"5. c #C2C0BD",
"6. c #CAC3BA",
"7. c #C5C4C3",
"8. c #C8C7C8",
"9. c #CACACA",
"0. c #D6CEC5",
"q. c #D8D0C7",
"w. c #D0D0CF",
"e. c #DDD6CD",
"r. c #D4D3D4",
"t. c #D7D7D8",
"y. c #DDDDDD",
"u. c #E0D9D1",
"i. c #E3E1DC",
"p. c #ECE6DE",
"a. c #E1DFE0",
"s. c #E3E3E3",
"d. c #EBE8E4",
"f. c #EBEBEB",
"g. c #F2EDE6",
"h. c #F2EFED",
"j. c #F7F2EC",
"k. c #FBF6EF",
"l. c #F0EFF0",
"z. c #EFF1F0",
"x. c #F5F5F5",
"c. c #F8F7F7",
"v. c #FFFCF6",
"b. c #F8F7F9",
"n. c #F7F8F8",
"m. c #FCFCFC",
/* pixels */
"m.m.m.m.m.m.m.m.m.m.m.m.m.m.m.m.m.m.m.m.m.m.v.m.m.m.m.m.m.m.m.m.b.m.m.m.m.m.m.m.m.m.m.m.m.m.m.m.m.m.m.m.m.m.m.v.m.m.m.m.",
"m.m.m.m.m.m.m.m.m.m.m.m.m.m.m.m.m.m.m.m.m.m.m.m.m.m.m.m.m.m.m.m.v.m.m.m.b.m.m.m.m.m.m.m.m.m.m.m.m.m.m.m.m.m.m.b.m.m.m.m.",
"m.m.m.m.m.m.m.m.m.m.m.m.m.m.m.m.m.m.m.m.m.m.m.m.m.m.m.m.m.m.m.m.m.m.m.m.m.m.m.m.m.m.m.m.m.m.m.m.m.m.m.b.m.m.m.m.m.m.m.m.",
"m.m.m.m.m.m.m.m.m.m.m.m.m.m.m.m.m.m.m.m.m.m.m.m.m.m.m.m.m.m.m.m.m.m.m.m.m.m.m.m.m.m.m.m.m.m.m.m.m.m.m.m.m.m.m.m.m.m.n.m.",
"m.m.m.m.m.m.m.m.m.m.m.m.m.m.m.m.m.m.m.m.m.m.m.m.m.m.m.m.m.m.m.m.m.m.m.m.m.m.m.m.m.m.m.m.m.m.m.m.m.m.b.m.m.v.m.m.m.n.m.m.",
"m.m.m.m.m.m.m.m.m.m.m.m.m.m.m.m.m.m.m.m.m.m.m.m.m.m.m.m.m.m.m.m.m.m.m.m.m.m.m.m.m.m.m.m.m.m.m.m.m.m.m.m.m.m.m.m.m.m.m.m.",
"m.m.m.m.m.m.m.m.m.m.m.m.m.m.m.m.m.m.m.m.m.m.m.m.m.m.m.m.m.m.m.m.m.m.m.m.m.m.m.m.m.m.m.m.m.m.v.m.m.m.m.m.m.b.m.m.m.m.m.m.",
"m.m.m.m.m.m.m.m.m.m.m.m.m.m.m.m.m.m.m.m.m.m.m.m.m.m.m.m.m.m.m.m.m.m.m.m.m.m.m.m.m.m.m.m.m.m.b.m.m.m.m.m.v.m.m.m.n.m.m.m.",
"m.m.m.m.m.m.m.m.m.m.m.m.m.m.m.m.m.m.m.m.m.m.m.m.m.m.m.m.m.n.m.m.m.m.m.m.b.m.m.m.m.m.m.m.m.m.m.m.m.m.m.m.m.m.n.m.m.m.n.m.",
"m.m.m.m.m.m.m.m.m.m.m.m.m.m.m.m.m.m.m.m.m.m.m.m.m.m.m.m.m.m.n.m.m.m.m.m.m.m.m.m.m.m.m.m.m.m.m.m.m.m.m.m.m.m.m.m.m.m.m.m.",
"m.m.m.m.m.m.m.m.m.m.m.m.m.m.m.m.m.m.m.m.m.m.m.m.m.m.m.s.9.8.8.w.x.m.m.m.m.m.m.m.m.m.m.m.m.m.m.m.m.m.m.m.m.m.m.m.m.m.m.m.",
"m.m.m.m.m.m.m.m.m.m.m.m.m.m.m.m.m.m.m.m.m.m.m.m.m.n.m.1.s t 9 V r.m.n.m.m.m.m.m.m.m.m.m.m.m.m.m.m.m.m.m.v.m.m.n.n.m.m.m.",
"m.m.m.m.m.m.m.m.m.m.m.m.m.m.m.m.m.m.m.m.m.m.m.m.w.' ! ^ ` ` ^ ^ ^ ! o.f.m.m.m.m.m.m.m.m.m.m.m.m.m.m.m.m.m.v.m.m.m.m.v.m.",
"m.m.m.m.m.m.m.m.m.m.m.m.m.m.m.m.m.m.m.m.m.m.m.t.@.s p ` 6.6.6.,.H u n >.s.m.m.m.m.m.m.m.m.m.m.m.m.m.m.m.m.m.m.m.m.m.m.m.",
"m.m.m.m.m.m.m.m.m.m.m.m.m.m.m.m.m.m.m.m.m.m.f.` g ' $.6.j.k.g.0.,.+.^ s %.b.m.m.m.m.m.m.m.m.m.m.m.m.m.m.m.m.m.m.m.c.m.m.",
"m.m.m.m.m.m.m.m.m.m.m.m.m.m.m.m.m.m.m.m.m.t.` H ` $.6.i.v.v.g.e.q.<.$.P H o.l.m.m.m.m.m.m.m.m.m.m.m.m.m.m.m.m.m.m.m.m.m.",
"m.m.m.m.m.m.m.m.m.m.m.m.m.m.m.m.m.m.m.m.m.7.4 H $.,.4.u.j.j.p.e.0.4.=.X.k b a.m.m.m.m.m.m.m.m.m.m.m.m.m.m.m.m.m.m.m.m.m.",
"m.m.m.m.m.m.m.m.m.m.m.m.m.m.m.m.m.m.m.m.m.2.t H +.=.,.4.e.e.e.0.4.,.=.{ g n t.m.m.m.m.m.m.m.m.m.m.m.m.m.m.m.m.m.m.m.b.m.",
"m.m.m.m.m.m.m.m.m.m.m.m.m.m.m.m.m.m.m.m.-.n c ` +.,.,.,.,.4.4.<.,.,.=.X.L c H 7.m.m.m.m.m.m.m.m.m.m.m.m.m.m.m.m.m.m.b.m.",
"m.m.m.m.m.m.m.m.m.m.m.m.m.m.m.m.m.m.m.n.` 3 C ` X.$.,.,.,.,.,.,.,.=.$.X.` g 1 :.m.m.m.m.m.m.m.m.m.m.m.m.m.m.m.m.m.m.m.m.",
"m.m.m.m.m.m.m.m.m.m.m.m.m.m.m.m.m.m.m.n./ < n ` [ ` +.$.$.$.=.*.$.X.` ` R g < :.m.m.m.m.m.m.m.m.m.m.m.m.m.m.m.m.b.m.m.m.",
"m.m.m.m.m.m.m.m.m.m.m.m.m.m.m.m.m.m.m.n.Q * n P C w e v B S B B g w a L P k * -.m.m.m.m.m.m.m.m.m.m.m.b.m.m.b.m.m.m.b.m.",
"m.m.m.m.m.m.m.m.m.m.m.m.m.m.m.m.m.m.m.x.W o 4 t w e D ( _ ] _ _ ( v w q 0 > + *.m.m.m.m.m.m.m.m.m.n.m.m.m.m.m.v.m.m.m.m.",
"m.m.m.m.m.m.m.m.m.m.m.m.m.m.m.m.m.m.m.n.Q . o & q ( $.&.&.&.&.&.&.} S 3 @ . + -.m.m.m.m.m.m.m.m.m.m.m.m.m.m.m.m.m.m.m.m.",
"m.m.m.m.m.m.m.m.m.m.m.m.m.m.m.m.m.m.m.n.^ O ; f ( ] F D ) _ _ ( D ) { D q & & -.m.m.m.m.m.m.m.m.m.m.m.m.m.m.m.m.m.m.m.m.",
"m.m.m.m.m.m.m.m.m.m.m.m.m.m.m.m.m.m.m.n.^ & q e c v j N L A Y A l j N f e 8 ; ;.m.m.m.m.m.m.m.m.m.m.m.m.m.n.m.m.m.m.m.m.",
"m.m.m.m.m.m.m.m.m.m.m.m.m.m.m.m.m.m.m.c.! & q q 4 6 h J T T E T J d 5 7 q 8 & ;.m.m.m.m.m.m.m.m.m.n.n.m.m.m.m.m.m.m.m.m.",
"m.m.m.m.m.m.m.m.m.m.m.m.m.m.m.m.m.m.m.c.Q X & u M K U U T T E T U I J m 9 O # -.m.m.m.m.m.m.m.m.m.b.m.m.m.m.m.m.m.m.m.m.",
"m.m.m.m.m.m.m.m.m.m.m.m.m.m.m.m.m.m.s. .y % , m I E T T T T T T T E T I d : % z %.x.m.m.m.m.m.m.m.m.m.m.m.m.m.m.m.m.m.b.",
"m.m.m.m.m.m.m.m.m.m.m.m.m.m.b.m.m.m.8.: # 6 d J T E T E T T T T E U T E M y 6 X k f.m.m.m.m.m.m.m.m.m.v.m.m.m.m.m.m.m.m.",
"m.m.m.m.m.m.m.m.m.m.m.m.m.m.m.m.b.m.8.: = d m I T T T T T T T T T E T T J z y $ k d.m.m.m.m.m.m.m.m.m.m.m.m.m.v.m.m.b.m.",
"m.m.m.m.m.m.m.m.m.m.m.m.m.m.m.m.m.m.8.: 5 m J T E E T T T T T U T T T U U J z = k f.m.m.m.m.m.m.m.m.m.m.m.m.b.m.b.m.m.m.",
"m.m.m.m.m.m.m.m.m.m.m.m.m.m.m.m.m.y.@.: 6 Z I U E E U E E U E E E E E U U J M - i 1.f.m.m.m.m.m.m.m.m.m.m.m.m.m.m.m.m.m.",
"m.m.m.m.m.m.m.m.m.m.m.m.m.m.m.m.n. .% - d M M I U E E U U E E U U U E E J M m y % - 1.m.n.m.m.m.m.m.m.m.m.m.m.m.m.m.m.m.",
"m.m.m.m.m.m.m.m.m.m.m.m.m.m.m.m.n./ X 6 M J M I E U J J U E E U J J E U Z M J h - + >.n.m.m.m.m.m.m.m.m.m.m.m.m.m.m.m.m.",
"m.m.m.m.m.m.m.m.m.m.m.m.m.m.m.m.m.| # d Z I z Z U U m Z U E E U z Z E I M m U Z 6 = 1.n.m.m.m.m.m.m.m.m.m.m.m.m.m.m.b.m.",
"m.m.m.m.m.m.m.m.m.m.m.m.m.m.m.m.z.| , z I J d h Z I h h U E E I h z I M d h U J d 6 >.b.m.m.m.m.m.m.m.m.m.m.m.m.m.m.m.m.",
"m.m.m.m.m.m.m.m.m.m.m.m.m.m.m.a.Q y d J E J y 6 d M y d U E E I y d M y 6 h I E M y i O.x.m.m.m.m.m.n.m.m.m.m.m.m.m.m.m.",
"m.m.m.m.m.m.m.m.m.m.m.m.m.v.m.r.1 - m U ~ J y = , h , y U E E J , 6 d = , d I E I z $ n h.m.m.m.m.m.m.m.m.m.m.m.m.m.m.m.",
"m.m.m.m.m.m.m.m.m.m.m.m.m.m.m.r.2 5 M U E M , # = 6 # 6 U E E Z = - 6 # # 6 J E I z % G l.m.m.m.m.n.m.m.m.n.m.m.m.m.m.m.",
"m.m.m.m.m.m.m.m.m.m.m.m.m.m.m.r.2 2 Z U M y , X . + X < M I I z % X # . % 5 d J U m % G z.m.m.m.m.m.m.m.m.m.m.m.m.m.m.m.",
"m.m.m.m.m.m.m.m.m.m.m.m.m.m.m.r.1 2 M Z d 5 % X X . . = d J M r # . . . X % 5 z M m = x z.m.m.m.m.m.m.n.m.m.m.m.m.m.m.m.",
"m.m.m.m.m.m.m.m.m.m.m.m.m.m.m.r.k y h r , % X X X . . # , d i = + . . X + $ = 2 d z 6 ! l.m.m.m.m.m.m.m.m.m.m.m.m.m.m.m.",
"m.m.m.m.m.m.m.m.m.m.m.m.m.m.m.n.t. .6 + X X X X . . > : + , * + < * . . 9 s # . % d -.s.m.m.m.m.m.m.m.n.m.m.n.m.m.n.m.m.",
"m.m.m.m.m.m.m.m.m.m.m.m.m.m.m.m.m.| 6 ' O.W #     + g s @ + + * n t .   % k | o.W 6 1.m.m.m.m.m.m.m.m.m.m.m.m.m.m.n.m.m.",
"m.m.m.m.m.m.m.m.m.m.m.m.m.m.m.m.b...W f.m.3.% : 1 $ T P : 2 1 4 ` n + 2 + i s.m.8.z 1.m.m.m.m.m.m.m.m.m.m.m.m.m.m.m.m.m.",
"m.m.m.m.m.m.m.m.m.m.m.m.m.m.m.m.m.f.a.b.m.2.: #.:.4 [ P 1 1...: X.P s 5.W i s.m.x.a.z.m.m.m.n.m.m.m.m.m.m.m.m.n.m.m.m.m.",
"m.m.m.m.m.m.m.m.m.m.m.m.m.m.m.m.m.m.m.m.m.y.-.a.5.a ' L : 9.#.% ' P G a.8.:.l.m.m.m.n.m.m.m.m.m.n.m.m.m.m.m.m.m.m.m.n.m.",
"m.m.m.m.m.m.m.m.m.m.m.m.m.m.m.m.m.m.m.m.m.m.m.m.4.i n n x t.1.k C g x a.m.m.m.m.m.m.m.m.m.m.m.m.m.m.m.m.m.m.m.m.m.m.n.n.",
"m.m.m.m.m.m.m.m.m.m.m.m.m.m.m.m.m.m.m.m.m.m.m.m.1.% + Q s.m.n.9.s + i y.m.m.m.m.m.m.m.m.m.m.m.m.m.m.m.m.m.m.m.m.m.m.m.m.",
"m.m.m.m.m.m.m.m.m.m.m.m.m.m.m.m.m.m.m.m.m.m.m.m.y.-.#.8.m.m.m.l.1.#.1.l.m.m.m.m.m.m.m.m.m.m.m.m.m.m.m.m.v.m.m.m.m.m.m.m.",
"m.m.m.m.m.m.m.m.m.m.m.m.m.m.m.m.m.m.m.m.m.m.m.m.m.m.m.m.m.m.m.m.m.m.b.n.m.m.m.m.m.m.m.m.m.m.m.m.m.m.m.m.m.m.m.m.m.n.m.m.",
"m.m.m.m.m.m.m.m.m.m.m.m.m.m.m.m.m.m.n.v.m.m.m.m.m.m.m.m.m.m.m.m.m.m.m.m.m.m.m.m.m.m.m.m.m.m.m.m.m.m.m.m.m.m.m.m.m.m.m.m.",
"m.m.m.m.m.m.m.m.m.m.m.m.m.m.m.m.m.m.m.m.m.m.m.m.m.m.m.m.m.m.m.b.m.m.m.m.m.m.m.m.m.m.m.m.m.m.m.m.m.m.m.m.m.m.m.m.m.m.v.n.",
"m.m.m.m.m.m.m.m.v.m.m.m.m.m.m.m.m.m.m.m.m.m.m.m.m.m.m.m.m.m.m.m.m.m.m.m.m.n.m.m.m.m.m.m.m.m.m.m.m.m.m.m.m.m.m.b.m.m.m.m.",
"m.m.m.m.m.m.m.m.m.m.m.m.m.m.m.v.m.m.m.m.m.m.m.m.m.m.m.b.m.m.m.m.m.m.m.m.m.m.m.m.m.m.m.m.m.m.m.m.m.m.m.m.m.m.b.m.m.m.m.m.",
"m.m.m.m.m.m.m.m.m.m.m.m.m.m.m.m.m.m.m.m.v.m.m.m.m.m.m.m.m.m.m.v.m.m.m.m.m.m.m.m.m.m.m.m.m.m.m.m.m.m.m.m.m.m.m.m.m.m.m.m.",
"m.m.m.m.m.m.m.m.m.m.m.m.m.m.m.m.m.m.m.m.m.m.m.m.m.m.m.m.m.m.m.m.m.m.m.m.m.m.m.m.m.m.m.m.m.m.m.m.m.m.m.m.m.m.m.m.m.m.m.m.",
"m.m.m.m.m.m.m.m.m.m.m.m.m.m.m.m.m.m.m.m.m.m.m.m.m.m.m.m.m.m.m.m.m.m.m.m.m.m.m.m.m.m.m.m.m.m.m.m.m.m.m.m.m.m.m.m.m.m.m.m.",
"m.m.m.m.m.m.m.m.m.v.m.m.m.m.m.m.m.m.m.m.m.m.m.m.m.m.m.m.m.m.m.m.m.m.m.m.m.m.m.m.m.m.m.m.m.m.m.m.m.m.m.m.m.m.m.m.m.m.m.m."
};
