/* XPM */
static char *result[] = {
/* columns rows colors chars-per-pixel */
"60 60 134 2 ",
"   c #171917",
".  c #1B1D1C",
"X  c #1E201E",
"o  c #23221E",
"O  c #222522",
"+  c #2A2724",
"@  c #262B25",
"#  c #2A2A26",
"$  c #2C2C2A",
"%  c #332E2A",
"&  c #2D332D",
"*  c #3A3026",
"=  c #33322E",
"-  c #3D342B",
";  c #333431",
":  c #3A3633",
">  c #333932",
",  c #3B3A36",
"<  c #3B3D3A",
"1  c #433B32",
"2  c #433D3B",
"3  c #3C433B",
"4  c #44423D",
"5  c #49443D",
"6  c #44483F",
"7  c #52473A",
"8  c #554A3C",
"9  c #5A4E3F",
"0  c #424142",
"q  c #4C4641",
"w  c #444B43",
"e  c #4B4D45",
"r  c #4D4D4B",
"t  c #534C46",
"y  c #544E49",
"u  c #4D534C",
"i  c #515144",
"p  c #53544E",
"a  c #5A524D",
"s  c #525352",
"d  c #5B5550",
"f  c #545C53",
"g  c #5A5C54",
"h  c #5D5D5C",
"j  c #625646",
"k  c #635A53",
"l  c #695F56",
"z  c #655F5D",
"x  c #586057",
"c  c #5C645B",
"v  c #6E614F",
"b  c #64635E",
"n  c #6B635B",
"m  c #61685F",
"M  c #746652",
"N  c #776A57",
"B  c #72685D",
"V  c #7A6D58",
"C  c #636363",
"Z  c #6D6663",
"A  c #656C63",
"S  c #6B6D65",
"D  c #6C6B6A",
"F  c #736B64",
"G  c #746F6A",
"H  c #697067",
"J  c #6D756C",
"K  c #727266",
"L  c #70776E",
"P  c #7A716B",
"I  c #71786F",
"U  c #737272",
"Y  c #7A7675",
"T  c #737A71",
"R  c #7E7A79",
"E  c #83755E",
"W  c #847760",
"Q  c #867964",
"!  c #847C74",
"~  c #847F7A",
"^  c #94856E",
"/  c #8A837B",
"(  c #968771",
")  c #9B8D72",
"_  c #848483",
"`  c #8F8780",
"'  c #8E8E8E",
"]  c #928A83",
"[  c #908D8B",
"{  c #95908C",
"}  c #9B938B",
"|  c #949392",
" . c #989493",
".. c #9B9A99",
"X. c #AC9E81",
"o. c #A49C94",
"O. c #BBAE8D",
"+. c #A0A09F",
"@. c #ADA59C",
"#. c #A5A4A4",
"$. c #A9A7A5",
"%. c #ABACAB",
"&. c #B3ABA2",
"*. c #B1AFAD",
"=. c #B2B0AE",
"-. c #BDB5AD",
";. c #AEAFB0",
":. c #B5B4B3",
">. c #B8B7B7",
",. c #BCBBBB",
"<. c #C5BDB4",
"1. c #BFC0BE",
"2. c #C3C3C3",
"3. c #CDCCCB",
"4. c #D2CBC2",
"5. c #D1CFCE",
"6. c #D1D0CF",
"7. c #DCD5CD",
"8. c #D5D4D4",
"9. c #DBDBDC",
"0. c #E4DDD4",
"q. c #E7E2DB",
"w. c #E4E4E4",
"e. c #EDE7E0",
"r. c #E7E8E7",
"t. c #E8E9E7",
"y. c #E8E5E8",
"u. c #EBEBEB",
"i. c #F1ECE5",
"p. c #F6F3ED",
"a. c #FAF5EE",
"s. c #F4F4F4",
"d. c #F9F9F7",
"f. c #FCFCFC",
/* pixels */
"f.f.f.f.f.f.f.f.f.f.f.f.f.f.f.f.f.f.f.f.f.d.f.f.f.f.f.f.f.f.f.f.d.f.f.f.f.f.f.f.f.f.f.f.f.f.f.f.f.f.f.f.f.f.d.f.f.f.f.f.",
"f.f.f.f.f.f.f.f.f.f.f.f.f.f.f.f.f.f.f.f.f.f.f.f.f.f.f.f.f.f.f.f.f.f.f.f.f.f.f.f.f.f.f.f.f.f.f.f.f.f.f.f.f.f.f.f.f.f.f.f.",
"f.f.f.f.f.f.f.f.f.f.f.f.f.f.f.f.f.f.f.f.f.f.f.f.f.f.f.f.f.f.f.f.f.f.f.f.f.f.f.f.f.f.f.f.f.f.f.f.f.d.f.f.f.f.f.f.f.f.d.f.",
"f.f.f.f.f.f.f.f.f.f.f.f.f.f.f.f.f.f.f.f.f.f.f.f.f.f.f.f.f.f.f.f.f.f.f.f.f.f.f.f.f.f.f.f.f.f.f.f.f.f.f.f.f.f.f.f.f.f.f.d.",
"f.f.f.f.f.f.f.f.f.f.f.f.f.f.f.f.f.f.f.f.f.f.f.f.f.f.f.f.f.f.f.f.f.f.f.f.f.f.f.f.f.d.f.f.f.f.f.f.f.f.f.f.d.f.f.f.f.f.f.f.",
"f.f.f.f.f.f.f.f.f.f.f.f.f.f.f.f.f.f.f.f.f.f.f.f.f.f.f.f.f.f.f.f.f.f.f.f.f.f.f.f.f.f.f.f.f.f.f.f.f.f.f.f.f.d.f.f.f.f.f.f.",
"f.f.f.f.f.f.f.f.f.f.f.f.f.f.f.f.f.f.f.f.f.f.f.f.f.f.f.f.f.f.f.f.f.f.f.f.f.f.f.f.f.f.f.f.f.f.d.f.f.f.f.f.f.f.f.f.f.f.d.f.",
"f.f.f.f.f.f.f.f.f.f.f.f.f.f.f.f.f.f.f.f.f.f.f.f.f.f.f.f.f.f.f.f.f.f.f.f.f.f.f.f.f.f.f.f.f.f.f.f.f.f.d.f.f.d.f.f.f.f.f.f.",
"f.f.f.f.f.f.f.f.f.f.f.f.f.f.f.f.f.f.f.f.f.f.f.f.f.f.d.f.f.f.f.f.f.f.f.f.f.f.f.f.f.f.f.f.f.f.f.f.f.f.f.f.f.f.f.f.f.d.f.f.",
"f.f.f.f.f.f.f.f.f.f.f.f.f.f.f.f.f.f.f.f.f.f.f.f.f.f.f.f.f.f.f.f.f.f.f.f.f.f.f.f.f.f.f.f.f.f.f.f.f.f.f.f.f.f.f.f.f.f.f.f.",
"f.f.f.f.f.f.f.f.f.f.f.f.f.f.f.f.f.f.f.f.f.f.f.f.f.f.f.f.f.f.f.f.f.f.f.f.f.f.f.f.f.f.f.f.f.f.f.f.f.f.f.f.f.f.d.f.f.f.f.f.",
"f.f.f.f.f.f.f.f.f.f.f.f.f.f.f.f.f.f.f.f.f.f.f.f.f.f.f.f.f.f.d.f.f.f.f.f.f.f.f.f.f.f.f.f.f.f.f.f.f.f.f.f.f.f.f.f.d.f.d.f.",
"f.f.f.f.f.f.f.f.f.f.f.f.f.f.f.f.f.f.f.f.f.f.f.f.f.s.$.| | | 8.f.f.f.f.f.f.f.f.f.f.f.f.f.f.f.f.f.f.f.f.f.f.f.d.f.f.f.f.f.",
"f.f.f.f.f.f.f.f.f.f.f.f.f.f.f.f.f.f.f.f.f.f.d.5.,.*.b a u y [ ,.1.y.f.f.f.f.f.f.f.f.f.f.f.f.f.f.f.f.f.f.f.f.f.f.d.f.f.f.",
"f.f.f.f.f.f.f.f.f.f.f.f.f.f.f.f.f.f.f.f.f.s.8.n 1 d o.-.-.&.P 2 q #.u.f.f.f.f.f.f.f.f.f.f.f.f.f.f.d.f.f.f.f.f.f.f.f.f.f.",
"f.f.f.f.f.f.f.f.f.f.f.f.f.f.f.f.f.f.f.f.f.=.s G ] $.q.a.i.7.-.} ~ k R u.f.f.f.f.f.f.f.f.f.f.f.f.f.f.f.f.f.f.f.f.f.f.f.f.",
"f.f.f.f.f.f.f.f.f.f.f.f.f.f.f.f.f.f.f.s.| Z G } <.7.a.f.a.0.7.<.@.! Z U 3.f.f.f.f.f.f.f.f.f.f.f.f.f.f.f.f.f.f.f.f.f.f.f.",
"f.f.f.f.f.f.f.f.f.f.f.f.f.f.f.f.f.f.f.s.z y ] @.-.4.e.i.e.0.7.<.&.o.F 1 ,.f.f.f.f.f.f.f.f.f.f.f.f.f.f.f.f.f.f.f.f.f.d.d.",
"f.f.f.f.f.f.f.f.f.f.f.f.f.f.f.f.f.f.w.,.z k ` @.&.&.<.4.4.4.<.&.&.o.G t  .8.f.f.f.f.f.f.f.d.f.f.f.f.f.f.f.f.f.f.f.d.f.f.",
"f.f.f.f.f.f.f.f.f.f.f.f.f.f.f.f.f.f.:.4 a P ] o.&.&.&.&.&.&.&.&.@.} ! n 2 Y s.f.f.f.f.f.f.f.f.f.f.f.f.f.f.f.f.f.f.f.f.f.",
"f.f.f.f.f.f.f.f.f.f.f.f.f.f.f.f.f.f.:.2 a P ` ` o.&.&.&.@.&.&.o.[ ` ! B 2 U s.f.f.f.f.f.f.f.f.f.f.f.f.f.f.f.f.f.f.f.f.f.",
"f.f.f.f.f.f.f.f.f.f.f.f.f.f.f.f.f.f.;.= y F W ~ ` } } } { } } } ` Q F n = Z s.f.f.f.f.f.f.f.f.f.f.f.f.f.f.f.f.d.f.f.d.f.",
"f.f.f.f.f.f.f.f.f.f.f.f.f.f.f.f.f.f.%.O 5 l z l k k n B B B l k l n n d $ z p.f.f.f.f.f.f.f.f.f.f.f.f.d.f.f.f.f.f.f.f.f.",
"f.f.f.f.f.f.f.f.f.f.f.f.f.f.f.f.f.f.2.C 0 q a 7 9 v N V E E M j 7 t t < s | d.f.f.f.f.f.f.f.f.f.f.f.f.f.f.f.f.f.f.f.f.d.",
"f.f.f.f.f.f.f.f.f.f.f.f.f.f.f.f.f.f.s.8.p o - v ) O.O.O.O.O.O.X.E 8 + # +.t.f.f.f.f.f.f.f.f.f.f.f.f.d.f.f.f.f.f.f.d.f.f.",
"f.f.f.f.f.f.f.f.f.f.f.f.f.f.f.f.f.f.>.8 - 7 N ^ W v E E E E M V ( E j 1 - / s.f.f.f.f.f.f.f.f.f.d.f.f.f.f.d.f.d.d.f.f.f.",
"f.f.f.f.f.f.f.f.f.f.f.f.f.f.f.f.f.f.*.% 7 8 8 9 a g S K K K b p p 8 8 9 * F s.f.f.f.f.f.f.f.f.f.f.f.d.f.f.f.f.f.f.f.d.f.",
"f.f.f.f.f.f.f.f.f.f.f.f.f.f.f.f.f.f.-.% * 5 6 u g A K I L I J c u i 5 1 + S d.f.f.f.f.f.f.f.f.f.f.d.f.f.f.f.f.f.f.f.f.f.",
"f.f.f.f.f.f.f.f.f.f.f.f.f.f.f.f.f.6._ # @ 6 m L L L I J L L L I I H f ; O s ,.y.f.f.f.f.f.f.f.f.f.f.f.f.f.f.f.f.f.f.f.f.",
"f.f.f.f.f.f.f.f.f.f.f.f.f.f.f.f.s.C O > w c I I L J I L L L L L J I A e < $ & 1.f.f.f.f.f.f.f.f.f.f.f.f.f.f.f.f.f.f.f.f.",
"f.f.f.f.f.f.f.f.f.f.f.f.f.f.f.f.u.C @ w x c J L L L L L L L L L J I H x u ; $ 1.f.f.f.f.f.f.f.f.f.f.f.f.f.f.d.f.f.f.f.d.",
"f.f.f.f.f.f.f.f.f.f.f.f.f.f.f.f.s.C @ e c H c J L L L L L L I L I A m A f > % ,.f.d.f.f.f.f.f.f.f.f.f.f.f.f.d.f.f.f.d.f.",
"f.f.f.f.f.f.f.f.f.f.f.f.f.f.f.f.s.C $ s H H x H L L L I L L L L L m m J x < $ 2.f.f.f.f.f.f.f.f.f.f.f.f.f.f.f.f.f.f.f.f.",
"f.f.f.f.f.f.f.f.f.f.f.f.f.f.f.u.>.u ; x H A f H I L I J L J J H J c x J A w ; ' 8.f.f.f.f.f.f.f.f.f.f.f.f.f.f.f.f.f.f.f.",
"f.f.f.f.f.f.f.f.f.f.f.f.f.f.f.>.$ $ w c H c u H L J J I L L m c J f f H A u < X U d.f.d.f.f.f.f.f.f.f.f.f.f.f.f.f.f.f.f.",
"f.f.f.f.f.f.f.f.f.f.f.f.f.f.f.>.& & f H A u u H H c J L L J x f H f u x H m w O U s.f.f.f.f.f.f.f.f.d.f.f.f.f.f.f.f.f.f.",
"f.f.f.f.f.f.f.f.f.f.f.f.f.f.f.,.$ > f J c u 6 A m u H L L L u 3 c u 3 x H A w O U s.f.f.f.f.f.f.f.f.f.f.f.f.f.f.f.f.f.f.",
"f.f.f.f.f.f.f.f.f.f.f.f.f.f.f.>.$ 3 c L c 3 & w u u H I L L u > > > 3 f H H u @ U s.f.f.f.f.f.f.f.f.f.f.f.f.f.f.f.f.d.f.",
"f.f.f.f.f.f.f.f.f.f.f.f.f.f.f.>.$ 6 c x e > O = 3 u A I J A w & @ $ > 3 u x f # D d.f.f.f.f.f.f.f.f.f.f.f.f.f.f.f.f.f.f.",
"f.f.f.f.f.f.f.f.f.f.f.f.f.f.f.2.0 w w @ & @ O 4 3 3 A I H u & @ w ; O & @ 3 u 3 _ d.f.d.f.f.f.f.f.d.f.f.f.d.f.f.f.f.f.f.",
"f.f.f.f.f.f.f.f.f.f.f.f.f.f.f.d.9.h $ 4 $ X @ d 0 & m T A 3 @ $ d , . O < : ; ;.u.f.f.f.f.f.f.f.f.f.f.f.f.f.f.f.f.f.d.f.",
"f.f.f.f.f.f.f.f.f.f.f.f.f.f.f.f.s.h % d # h $.f @ X ; h A ; . o = @ .   q q O ,.f.f.f.f.f.f.f.f.f.d.f.f.f.d.f.f.f.f.f.f.",
"f.f.f.f.f.f.f.f.f.f.f.f.f.f.f.f.s.;.U r Y 1.r.u o $ . $ < X + $ .   < _ h d | 9.f.f.f.f.f.f.d.f.f.f.f.f.f.f.f.f.f.f.f.f.",
"f.f.f.f.f.f.f.f.f.f.f.f.f.f.f.f.f.f.%.> 2.f.r.r ; a $ 0 s $ 5 t O 0 | u.C C d.f.f.f.f.f.f.f.f.f.f.f.f.f.f.f.d.d.f.f.f.f.",
"f.f.f.f.f.f.f.f.f.f.f.f.f.f.f.f.f.f.:.r 2.s.6.r a ! 2 ..8.r z G ;  .u.s.U U s.f.f.f.f.f.f.d.f.f.f.f.f.d.f.f.s.f.f.d.f.f.",
"f.f.f.f.f.f.f.f.f.f.f.f.f.f.f.f.f.f.s.w.d.:.a a / { : | 8.0 Z o.z y ~ u.y.r.f.f.f.f.f.f.f.f.f.f.f.f.f.f.f.f.f.f.f.f.f.f.",
"f.f.f.f.f.f.f.f.f.f.f.f.f.f.f.f.f.f.f.f.f.w.*.r , s #.9.s.2.U 2 = _ 5.d.f.f.f.f.f.f.f.f.f.f.f.f.f.f.f.f.f.f.f.f.f.f.f.f.",
"f.f.f.f.f.f.f.f.f.f.f.f.f.f.f.f.f.d.d.f.f.f.d.$._ ..u.f.f.f.1._ ' 8.f.f.f.f.f.f.f.f.f.f.d.f.f.f.f.f.f.f.f.f.f.f.f.f.f.s.",
"f.f.f.f.f.f.f.f.f.f.f.f.f.f.f.f.f.f.f.f.f.f.f.f.f.f.f.f.f.f.f.f.f.f.f.f.f.f.f.f.f.f.f.f.f.f.f.f.f.f.f.f.f.f.f.f.f.f.f.f.",
"f.f.f.f.f.f.f.f.f.f.f.f.f.f.f.f.f.f.f.f.f.f.f.f.f.f.f.f.f.f.f.f.f.f.f.f.f.f.f.f.f.f.f.f.f.f.f.f.f.f.f.f.f.f.f.f.f.f.f.d.",
"f.f.f.f.f.f.f.f.f.f.f.f.f.f.f.f.f.f.f.f.f.f.f.f.f.f.f.f.f.f.f.f.f.f.f.f.f.f.f.f.f.f.f.f.f.f.f.f.f.f.f.f.f.f.f.f.f.d.f.f.",
"f.f.f.f.f.f.f.f.f.f.f.f.f.f.f.f.f.f.f.f.f.f.f.f.f.f.f.f.f.f.f.f.f.f.f.f.f.f.f.f.f.f.f.f.f.f.f.f.f.f.f.f.f.f.f.f.f.f.f.f.",
"f.f.f.f.f.f.f.f.f.f.f.f.f.f.f.f.f.f.f.d.f.f.f.f.f.f.f.f.f.f.f.f.f.f.f.f.f.f.f.f.f.f.f.f.f.f.f.f.f.f.f.f.f.f.f.f.f.f.f.d.",
"f.f.f.f.f.f.f.f.f.f.f.f.f.f.f.f.f.f.f.f.f.f.f.f.f.f.f.f.f.f.f.f.f.f.f.f.f.f.f.f.f.f.f.f.f.f.f.f.f.f.f.f.f.f.f.f.f.f.d.f.",
"f.f.f.f.f.f.f.f.f.d.f.f.f.f.f.f.f.f.f.f.f.f.f.f.f.f.f.f.f.f.f.f.f.f.f.f.f.f.f.f.f.f.f.f.f.f.f.f.f.f.f.f.f.f.d.f.f.f.f.f.",
"f.f.f.f.f.f.f.f.f.d.d.f.f.f.f.f.f.f.f.f.f.f.f.f.f.f.f.f.f.f.f.f.f.f.f.f.f.f.f.f.f.f.f.f.f.f.f.f.f.f.f.f.f.f.f.f.f.f.f.f.",
"f.f.f.f.f.f.f.f.f.f.f.f.f.d.f.f.f.f.f.f.d.f.f.f.f.f.f.f.f.f.d.d.f.f.f.f.f.f.f.f.f.f.f.f.f.f.f.f.f.f.f.f.f.f.f.f.f.f.f.f.",
"f.f.f.f.f.f.f.f.f.f.f.f.f.f.f.f.f.f.f.f.f.f.f.f.f.f.f.f.f.f.f.f.f.f.f.f.f.f.f.f.f.f.f.f.f.f.f.f.f.f.f.f.f.f.f.f.f.f.f.f.",
"f.f.f.f.f.f.f.f.f.f.f.f.f.f.f.f.f.f.f.f.f.f.f.f.f.f.f.f.f.f.f.f.f.f.f.f.f.f.f.f.f.f.f.f.f.f.f.f.f.f.f.f.f.f.f.f.f.f.f.f.",
"f.f.f.f.f.f.f.f.f.f.f.f.f.f.f.f.f.f.f.f.f.f.f.f.f.f.f.f.f.f.f.f.f.f.f.f.f.f.f.f.f.f.f.f.f.f.f.f.f.f.f.f.f.f.f.f.f.f.f.f."
};
