/* XPM */
static char *result[] = {
/* columns rows colors chars-per-pixel */
"60 60 158 2 ",
"   c #171717",
".  c #191614",
"X  c #171817",
"o  c #1C1D1C",
"O  c #1E231F",
"+  c #22211F",
"@  c #232522",
"#  c #252A25",
"$  c #2C2823",
"%  c #2C2C2A",
"&  c #322C25",
"*  c #312E2A",
"=  c #2D322D",
"-  c #35322C",
";  c #3B332B",
":  c #343434",
">  c #393633",
",  c #353B34",
"<  c #3A3C36",
"1  c #3E3E3D",
"2  c #43392F",
"3  c #443C33",
"4  c #483D31",
"5  c #413C3A",
"6  c #3D443C",
"7  c #4B4136",
"8  c #45433D",
"9  c #4B443C",
"0  c #40483F",
"q  c #4D493E",
"w  c #504437",
"e  c #51473A",
"r  c #534A3D",
"t  c #5D4F3F",
"y  c #424540",
"u  c #4C4643",
"i  c #454B44",
"p  c #4E4A45",
"a  c #4D4D4D",
"s  c #514B44",
"d  c #594F41",
"f  c #544E4A",
"g  c #4D5047",
"h  c #4D534C",
"j  c #5C5142",
"k  c #54534D",
"l  c #59524E",
"z  c #50584F",
"x  c #525252",
"c  c #5C5651",
"v  c #545B52",
"b  c #5E5E5E",
"n  c #655A4C",
"m  c #6B5E4D",
"M  c #615B55",
"N  c #645F59",
"B  c #576056",
"V  c #596157",
"C  c #5B635A",
"Z  c #6D614F",
"A  c #6E6150",
"S  c #65625B",
"D  c #6A635D",
"F  c #63695F",
"G  c #736451",
"H  c #786C58",
"J  c #7F715B",
"K  c #636362",
"L  c #6D6662",
"P  c #656C63",
"I  c #6A6C65",
"U  c #6D6B6A",
"Y  c #726B65",
"T  c #756E69",
"R  c #697067",
"E  c #6D746B",
"W  c #74736D",
"Q  c #7C756E",
"!  c #71786F",
"~  c #706F70",
"^  c #757474",
"/  c #7B7672",
"(  c #727A71",
")  c #7D7873",
"_  c #7E7E7D",
"`  c #82755F",
"'  c #847861",
"]  c #8B7D65",
"[  c #897E68",
"{  c #827B74",
"}  c #877F78",
"|  c #8D816B",
" . c #93866D",
".. c #878179",
"X. c #8B837C",
"o. c #968970",
"O. c #9C8E74",
"+. c #9F9075",
"@. c #A19279",
"#. c #A7997D",
"$. c #AA9C7F",
"%. c #868482",
"&. c #8E8782",
"*. c #8F8984",
"=. c #8D8D8D",
"-. c #938C85",
";. c #97908A",
":. c #9C948C",
">. c #919491",
",. c #9E9D9E",
"<. c #A99A80",
"1. c #A0978F",
"2. c #A29B93",
"3. c #A19D9D",
"4. c #B3A586",
"5. c #B6A98A",
"6. c #BBAD8D",
"7. c #ACA49B",
"8. c #B0A89F",
"9. c #A5A5A5",
"0. c #A8A6A4",
"q. c #AAA8A6",
"w. c #ACABAB",
"e. c #B3ACA4",
"r. c #B1AEAC",
"t. c #B7B3AD",
"y. c #BCB4AC",
"u. c #B6B5B4",
"i. c #BCB7B2",
"p. c #BBBABA",
"a. c #C4B594",
"s. c #CABC9A",
"d. c #C4BCB4",
"f. c #C3BFBE",
"g. c #CCC4BC",
"h. c #CFC8BF",
"j. c #BFBFC0",
"k. c #C8C5C5",
"l. c #CDCDCD",
"z. c #D2CBC2",
"x. c #D1CFCF",
"c. c #D7D0C9",
"v. c #DBD4CB",
"b. c #D4D4D3",
"n. c #DFD9D1",
"m. c #D7D8D8",
"M. c #DEDEDE",
"N. c #E4DDD5",
"B. c #E0DFDF",
"V. c #E4E4E4",
"C. c #ECECEB",
"Z. c #F3EDE6",
"A. c #F8F3EC",
"S. c #F0EFF0",
"D. c #F4F3F4",
"F. c #FAF7F4",
"G. c #FEF9F2",
"H. c #FCFCFC",
/* pixels */
"H.H.H.H.H.H.H.H.H.H.H.H.H.H.H.H.H.H.H.H.H.H.F.H.H.H.H.H.H.H.H.H.H.F.H.H.H.H.H.H.H.H.H.H.H.H.H.H.H.H.H.H.H.H.H.H.H.H.H.H.",
"H.H.H.H.H.H.H.H.H.H.H.H.H.H.H.H.H.H.H.H.H.H.H.H.H.H.H.H.H.H.H.H.H.H.H.H.H.H.H.H.H.H.H.H.H.H.H.H.H.H.H.H.H.H.H.F.H.H.H.H.",
"H.H.H.H.H.H.H.H.H.H.H.H.H.H.H.H.H.H.H.H.H.H.H.H.H.H.H.H.H.H.H.H.H.H.H.H.H.H.H.H.H.H.H.H.H.H.H.H.H.H.H.F.H.H.H.H.H.H.H.H.",
"H.H.H.H.H.H.H.H.H.H.H.H.H.H.H.H.H.H.H.H.H.H.H.H.H.H.H.H.H.H.H.H.H.H.H.H.H.H.H.H.H.H.H.H.H.H.H.H.H.H.H.H.H.H.H.H.H.H.H.D.",
"H.H.H.H.H.H.H.H.H.H.H.H.H.H.H.H.H.H.H.H.H.H.H.H.H.H.H.H.H.H.H.H.H.H.H.H.H.H.H.H.H.H.H.H.H.H.H.H.H.H.H.H.H.F.H.H.H.H.H.H.",
"H.H.H.H.H.H.H.H.H.H.H.H.H.H.H.H.H.H.H.H.H.H.H.H.H.H.H.H.H.H.H.H.H.H.H.H.H.H.H.H.H.H.H.H.H.H.H.H.H.H.H.H.H.H.H.H.H.H.H.H.",
"H.H.H.H.H.H.H.H.H.H.H.H.H.H.H.H.H.H.H.H.H.H.H.H.H.H.H.H.H.H.H.H.H.H.H.H.H.H.H.H.H.H.H.H.H.H.F.H.H.H.H.H.F.H.H.H.H.H.H.H.",
"H.H.H.H.H.H.H.H.H.H.H.H.H.H.H.H.H.H.H.H.H.H.H.H.H.H.H.H.H.H.H.H.H.H.H.H.H.H.H.H.H.H.H.H.H.H.H.H.H.H.H.H.H.H.H.H.H.H.H.H.",
"H.H.H.H.H.H.H.H.H.H.H.H.H.H.H.H.H.G.H.H.H.H.H.H.H.H.H.H.F.H.H.H.H.H.H.H.H.H.H.H.H.H.H.H.H.H.H.H.H.H.H.H.H.H.H.H.H.H.D.H.",
"H.H.H.H.H.H.H.H.H.H.H.H.H.H.H.H.H.H.H.H.H.H.H.H.H.H.H.H.D.V.V.V.V.S.H.H.H.H.H.H.H.H.H.H.H.H.H.H.H.H.H.H.H.H.H.H.H.H.H.H.",
"H.H.H.H.H.H.H.H.H.H.H.H.H.H.H.H.H.H.H.H.H.H.H.H.H.H.F.H.p.x i p f w.F.F.H.H.H.H.H.H.H.H.H.H.H.H.H.H.H.H.H.H.H.H.H.H.H.H.",
"H.H.H.H.H.H.H.H.H.H.H.H.H.H.H.H.H.H.H.H.H.H.H.H.H.p.U K W } X.X.X.^ U L r.H.H.H.H.H.H.H.H.H.H.H.H.H.H.H.H.H.F.H.H.H.H.H.",
"H.H.H.H.H.H.H.H.H.H.H.H.H.H.H.H.H.H.H.H.H.H.H.C.0.Q c N ;.c.N.c.g.;.D n T 3.V.H.H.H.H.H.H.H.H.H.H.H.H.F.H.H.H.H.F.H.F.H.",
"H.H.H.H.H.H.H.H.H.H.H.H.H.H.H.H.H.H.H.H.H.H.m.0.c D 2.y.v.G.H.A.N.h.d.2.T l ,.m.H.H.H.H.H.H.H.H.H.H.H.H.H.H.H.H.H.H.H.H.",
"H.H.H.H.H.H.H.H.H.H.H.H.H.H.H.H.H.H.H.H.H.D.%.9 { ;.7.g.N.A.G.Z.N.v.g.8.;.{ u / S.H.H.H.H.H.H.H.H.H.H.H.H.H.H.H.H.H.H.H.",
"H.H.H.H.H.H.H.H.H.H.H.H.H.H.H.H.H.H.H.H.H.D.%.5 { T N } e.n.N.N.v.t.X.N T { u ^ C.H.H.H.H.H.H.H.H.H.H.H.H.H.H.H.H.H.H.H.",
"H.H.H.H.H.H.H.H.H.H.H.H.H.H.H.H.H.H.H.H.x.) T L M :.i.L { c.N.h.7.D N y.2.M L T / k.H.H.H.H.H.H.H.H.H.H.H.H.H.H.H.H.H.H.",
"H.H.H.H.H.H.H.H.H.H.H.H.H.H.H.H.H.H.H.H.p.9 N &.{ *.-.l { c.N.h.2.D l &.-.{ X.L 5 r.H.H.H.H.H.H.H.H.H.H.H.H.H.H.H.H.H.H.",
"H.H.H.H.H.H.H.H.H.H.H.H.H.H.H.H.H.H.H.H.p.5 M -.1.{ l { 8.z.c.h.d.2.} M T 1.;.D 1 w.H.H.H.H.H.H.H.H.H.H.H.H.H.H.D.H.H.H.",
"H.H.H.H.H.H.H.H.H.H.H.H.H.H.H.H.H.H.H.H.u.: M } L { 7.d.d.2.2.e.g.h.d.8.X.D { N * 0.H.H.H.H.H.H.H.H.H.H.H.H.H.H.H.H.H.H.",
"H.H.H.H.H.H.H.H.H.H.H.H.H.H.H.H.H.H.H.H.u.: c / 9 l D l s l l l l f f D l 9 Q S % 9.H.H.H.H.H.H.H.H.H.H.H.H.H.H.H.H.H.H.",
"H.H.H.H.H.H.H.H.H.H.H.H.H.H.H.H.H.H.H.H.p.> % u L c s / } { &.X.{ } { s l L p * - w.H.H.H.H.H.H.H.H.H.H.H.H.H.H.H.H.H.H.",
"H.H.H.H.H.H.H.H.H.H.H.H.H.H.H.H.H.H.H.H.f.5 . $ N L N Y Y L Q Q L T T S D D % . ; u.H.H.H.H.H.H.H.H.H.H.H.H.H.H.H.H.H.H.",
"H.H.H.H.H.H.H.H.H.H.H.H.H.H.H.H.H.H.D.b.=.; $ * > l D f f n M M c s u S c > * $ ; %.l.D.H.H.H.H.H.H.H.H.D.H.H.H.H.H.H.F.",
"H.H.H.H.H.H.H.H.H.H.H.H.H.H.H.H.H.H.C.K O $ 9 d * + * D { { / { { Y l $ + - s e & o x B.H.H.H.H.H.H.H.H.H.H.D.H.H.D.H.H.",
"H.H.H.H.H.H.H.H.H.H.H.H.H.H.H.H.H.H.C.K . + r J [ m ; * % % * 2 7 2 & 2 n | ` d +   x B.H.H.H.H.H.H.H.H.H.H.H.H.H.H.H.H.",
"H.H.H.H.H.H.H.H.H.H.H.H.H.H.H.H.H.H.C.b @ , - 7 ` O.o.w s  .] m 4 e G O.O.` 9 - < @ x B.H.H.H.H.H.H.D.H.F.H.H.H.H.H.H.H.",
"H.H.H.H.H.H.H.H.H.H.H.H.H.H.H.H.H.H.C.b @ i i 0 e G ` j ` a.a.O.j e j H Z e q i i # x B.H.H.H.H.D.H.H.H.H.H.H.H.H.H.H.D.",
"H.H.H.H.H.H.H.H.H.H.H.H.H.H.H.H.H.H.C.K # g R P 3 ; 2 t ] a.s.<.G 4 & & & 6 F R h % v V.H.H.H.H.H.H.H.H.H.H.H.H.H.H.H.H.",
"H.H.H.H.H.H.H.H.H.H.H.H.H.H.H.H.H.D.b.I 6 C R R C p w G O.a.s.4.` j 4 i z V R R C 0 b l.S.H.H.H.H.H.H.H.H.H.H.H.H.H.H.H.",
"H.H.H.H.H.H.H.H.H.H.H.H.H.H.H.H.H.q.1 6 z R P C V k n #.5.<.6.6.+.H j v B B C F E z 0 < ,.H.H.H.H.H.H.H.H.H.H.H.H.H.H.H.",
"H.H.H.H.H.H.H.H.H.H.H.H.H.H.H.H.H.,.@ , v E P z q t ` 4.4.] @.#.] j 7 C C z B C E b 1 o =.H.H.H.H.H.H.H.H.H.H.H.H.H.H.H.",
"H.H.H.H.H.H.H.H.H.H.H.H.H.H.H.H.H.,.% 1 C E F h 3 t ] 6.$.G A m r r k R C 0 h C E C 0 @ =.H.H.H.H.H.H.H.H.H.H.H.H.H.H.H.",
"H.H.H.H.H.H.H.H.H.H.H.H.H.H.H.H.H.,.% 0 F P z 6 - 7 Z  .' e ; ; 3 V ( ! z = , z P P i @ =.H.H.H.H.H.H.H.H.H.H.H.H.H.H.H.",
"H.H.H.H.H.H.H.H.H.H.H.H.H.H.H.H.H.,.% y V v 0 = + + - 2 2 ; - 8 R E E ! h O # 6 v B i @ >.H.H.H.H.H.H.H.H.H.H.H.H.H.H.H.",
"H.H.H.H.H.H.H.H.H.H.H.H.H.H.H.H.H.,.# i z < # O + < B F I I I R ! V z R h # O # 6 h h # =.H.H.H.H.H.H.H.H.H.H.H.H.H.H.H.",
"H.H.H.H.H.H.H.H.H.H.H.H.H.H.H.H.H.,.O = 6 # O X O 6 h C R ( ! ( E z 0 P h o   o # % @ o =.H.H.H.D.H.H.H.H.H.H.H.H.H.H.H.",
"H.H.H.H.H.H.H.H.H.H.H.H.H.H.H.H.H.l.%.0 O # K ^ = + , 0 v ! ! ( ! i , B i % ~ U # X : _ k.H.H.H.H.H.H.H.H.H.H.H.H.H.D.H.",
"H.H.H.H.H.H.H.H.H.H.H.H.H.H.H.H.H.H.D.>.0 # w.m.0   O # 6 C E E C < # h < , l.p.% 0 *.C.H.H.H.H.H.H.H.H.H.H.H.H.H.H.H.H.",
"H.H.H.H.H.H.H.H.H.H.H.H.H.H.H.H.H.H.H.H.p.a w.x.6 o @ + @ : v C < @ @ 6 % : k.j.a w.H.H.H.H.H.H.H.H.H.H.H.D.H.H.H.H.H.H.",
"H.H.H.H.H.H.H.H.H.H.H.H.H.H.H.H.H.H.H.H.D.V.D.l.1 > c % o @ , , # o o @ o , j.D.V.D.H.H.H.H.H.H.H.H.H.H.H.H.H.H.H.H.H.H.",
"H.H.H.H.H.H.H.H.H.H.H.H.H.H.H.H.H.H.H.H.H.H.H.c.p N *., a u.j.j.p.b % T b 1 j.H.H.H.H.H.H.F.H.H.H.D.H.H.H.H.H.H.H.H.H.H.",
"H.H.H.H.H.H.H.H.H.H.H.H.H.H.H.H.H.H.H.H.H.H.H.V.w./ K ..p.H.H.H.H.j.%.I / 3.M.H.H.H.H.H.H.H.H.H.H.H.H.H.H.H.H.H.H.H.H.H.",
"H.H.H.H.H.H.H.H.H.H.H.H.H.H.H.H.H.H.H.H.H.H.H.H.H.w.~ m.H.H.H.H.H.H.V.^ ,.H.H.H.H.H.H.H.H.H.H.H.H.H.H.H.H.H.D.H.H.H.H.H.",
"H.H.H.H.H.H.H.H.H.H.H.H.H.H.H.H.H.H.H.H.H.H.H.H.H.H.D.H.H.H.H.H.H.H.H.H.D.H.H.H.H.H.H.H.H.H.H.H.H.H.H.H.H.H.H.H.D.H.H.H.",
"H.H.H.H.H.H.H.H.H.H.H.H.H.H.H.H.H.H.H.H.H.H.H.H.H.H.H.H.H.H.H.H.H.H.H.H.H.H.H.H.H.H.H.H.H.F.H.H.H.H.H.H.H.H.H.H.H.H.H.H.",
"H.H.H.H.H.H.H.H.H.H.H.H.H.H.H.H.H.H.H.H.H.H.H.H.H.H.H.H.H.H.H.H.H.H.H.H.H.H.H.H.H.H.H.H.H.H.H.H.H.H.H.H.H.H.H.H.H.H.H.H.",
"H.H.H.H.H.H.H.H.H.H.H.H.H.H.H.H.H.H.H.H.H.H.H.H.H.H.H.H.H.H.H.H.H.H.H.H.H.H.H.H.H.H.H.H.H.H.H.H.H.H.D.H.H.H.H.H.H.H.D.H.",
"H.H.H.H.H.H.H.H.H.H.H.H.H.H.H.H.H.H.H.H.H.H.H.H.H.H.H.H.H.H.H.H.H.H.H.H.H.H.H.H.H.H.H.H.H.H.H.H.H.H.H.H.H.H.H.H.H.H.D.H.",
"H.H.H.H.H.H.H.H.H.H.H.H.H.H.H.H.H.H.H.H.H.H.H.H.H.H.H.H.H.H.H.H.H.H.H.H.H.H.H.H.H.H.H.H.H.H.H.H.H.H.H.H.H.H.H.H.H.H.H.H.",
"H.H.H.H.H.H.H.H.H.H.H.H.H.H.H.H.H.H.H.H.H.H.H.H.H.H.H.H.H.H.H.H.H.H.H.H.H.H.H.H.H.H.H.H.H.H.H.H.H.H.H.H.G.H.H.H.H.H.H.H.",
"H.H.H.H.H.H.H.H.H.H.H.H.H.H.H.H.H.H.H.H.H.H.H.H.H.H.H.H.H.H.H.H.H.H.H.H.H.H.H.H.H.H.H.H.H.H.H.H.H.H.H.H.H.H.H.H.H.H.H.H.",
"H.H.H.H.H.H.H.H.H.H.H.H.H.H.H.H.H.H.H.F.H.H.H.H.H.H.H.H.H.H.H.H.H.H.H.H.H.H.H.H.H.H.H.H.H.H.H.H.H.H.H.H.H.H.H.H.H.H.H.H.",
"H.H.H.H.H.H.H.H.H.H.H.H.H.H.H.H.H.H.H.H.H.H.H.H.H.H.H.H.H.H.G.H.H.H.H.H.H.H.H.H.H.H.H.H.H.H.H.H.H.H.H.H.H.H.H.H.H.H.F.H.",
"H.H.H.H.H.H.H.H.H.G.H.H.H.H.H.H.H.H.H.H.H.H.H.H.H.H.H.H.H.H.H.H.H.H.H.H.H.H.H.H.H.H.H.H.H.H.H.H.H.H.H.H.H.H.H.H.H.H.H.H.",
"H.H.H.H.H.H.H.H.H.H.H.H.H.H.H.H.H.H.H.H.H.H.H.H.H.H.H.H.H.H.H.H.H.H.H.H.H.H.H.H.H.H.H.H.H.H.H.H.H.H.H.H.H.H.H.H.H.H.H.H.",
"H.H.H.H.H.H.H.H.H.H.H.H.H.G.H.H.H.H.H.H.H.H.H.H.H.H.H.H.H.H.F.H.H.H.H.H.H.H.H.H.H.H.H.H.H.H.H.H.H.H.H.H.H.H.H.H.H.H.H.H.",
"H.H.H.H.H.H.H.H.H.H.H.H.H.H.H.H.H.H.H.H.H.H.H.H.H.H.H.H.H.H.H.H.H.H.H.H.H.H.H.H.H.H.H.H.H.H.H.H.H.H.H.H.H.H.H.H.H.H.H.H.",
"H.H.H.H.H.H.H.H.H.H.H.H.H.H.H.H.H.H.H.H.H.H.H.H.H.H.H.H.H.H.H.H.H.H.H.H.H.H.H.H.H.H.H.H.H.H.H.H.H.H.H.H.H.H.H.H.F.H.H.H.",
"H.H.H.H.H.H.H.H.H.H.H.H.H.H.H.H.H.H.H.H.H.H.H.H.H.H.H.H.H.H.H.H.H.H.H.H.H.H.H.H.H.H.H.H.H.H.H.H.H.H.H.H.H.H.H.H.H.H.H.H."
};
