/* XPM */
static char *result[] = {
/* columns rows colors chars-per-pixel */
"60 60 177 2 ",
"   c gray9",
".  c #1D1D1C",
"X  c #221D1C",
"o  c #281F1B",
"O  c #1E211E",
"+  c #27211E",
"@  c #2D231F",
"#  c #30241F",
"$  c #232422",
"%  c #2D2623",
"&  c #262A25",
"*  c #2B2B26",
"=  c #2B2C2A",
"-  c #342722",
";  c #342C25",
":  c #3A2D26",
">  c #332E2B",
",  c #3A2F2A",
"<  c #2D322C",
"1  c #34322E",
"2  c #3A332B",
"3  c #343431",
"4  c #343A32",
"5  c #3B3C36",
"6  c #383738",
"7  c #3B3E3A",
"8  c #45362A",
"9  c #43342C",
"0  c #4B392C",
"q  c #403632",
"w  c #443B33",
"e  c #4B3C34",
"r  c #423E3B",
"t  c #503F36",
"y  c #384037",
"u  c #3D433C",
"i  c #4C4135",
"p  c #44443D",
"a  c #4A433C",
"s  c #524137",
"d  c #53433C",
"f  c #54493B",
"g  c #62472F",
"h  c #6A4F39",
"j  c #6F5232",
"k  c #755635",
"l  c #464541",
"z  c #4C4543",
"x  c #454C44",
"c  c #4D4C4A",
"v  c #524C46",
"b  c #534E4A",
"n  c #4C534A",
"m  c #575043",
"M  c #5E5143",
"N  c #54524C",
"B  c #59524E",
"V  c #504F50",
"C  c #535352",
"Z  c #5C5651",
"A  c #555C53",
"S  c #5D5954",
"D  c #5B5A59",
"F  c #645246",
"G  c #665949",
"H  c #6A5C4C",
"J  c #625B55",
"K  c #645E59",
"L  c #5C645A",
"P  c #6F6351",
"I  c #65635D",
"U  c #69625D",
"Y  c #60685E",
"T  c #766853",
"R  c #7B6D5A",
"E  c #646464",
"W  c #6D6661",
"Q  c #656B63",
"!  c #6E6863",
"~  c #696969",
"^  c #746C66",
"/  c #756F6B",
"(  c #697067",
")  c #6D746B",
"_  c #75726B",
"`  c #7B746D",
"'  c #70786F",
"]  c #757473",
"[  c #7C7671",
"{  c #737A71",
"}  c #7E7E7D",
"|  c #85633A",
" . c #8A7645",
".. c #96764D",
"X. c #82755F",
"o. c #877C66",
"O. c #837B74",
"+. c #857F7A",
"@. c #9B8D52",
"#. c #A68549",
"$. c #B18B4C",
"%. c #A99358",
"&. c #B6AA5F",
"*. c #8D8069",
"=. c #93856D",
"-. c #86807A",
";. c #8A837C",
":. c #958870",
">. c #9B8D73",
",. c #A4957A",
"<. c #A99A7F",
"1. c #C09950",
"2. c #C8A757",
"3. c #DEC564",
"4. c #E6D26E",
"5. c #8E8681",
"6. c #8D8985",
"7. c #8D8D8C",
"8. c #938C84",
"9. c #918E8D",
"0. c #9A928A",
"q. c #8F9091",
"w. c #929292",
"e. c #9A9693",
"r. c #969996",
"t. c #9C9996",
"y. c #9D9C9B",
"u. c #A39B93",
"i. c #B4A788",
"p. c #B9AC8C",
"a. c #BDB08F",
"s. c #A4A29F",
"d. c #ACA49C",
"f. c #A2A3A2",
"g. c #AAA7A6",
"h. c #ACACAB",
"j. c #B4ACA4",
"k. c #B7B0A8",
"l. c #BAB4AC",
"z. c #B5B3B3",
"x. c #BBB8B4",
"c. c #BABBBA",
"v. c #C7B996",
"b. c #C3BCB3",
"n. c #C2BEBC",
"m. c #BEC0BF",
"M. c #E8D888",
"N. c #EFE881",
"B. c #F4EF8E",
"V. c #F9F69C",
"C. c #C4C2BE",
"Z. c #CBC4BB",
"A. c #CCC4BB",
"S. c #F2E7B0",
"D. c #C0BFC0",
"F. c #C1C1C2",
"G. c #CDCDCD",
"H. c #D3CBC2",
"J. c #DBD4CB",
"K. c #DFD8CF",
"L. c #D5D3D3",
"P. c #D9D8D7",
"I. c #DDDDDD",
"U. c #E2DBD2",
"Y. c #FAFBC2",
"T. c #E9E5DD",
"R. c #E5E5E5",
"E. c #E8E9E7",
"W. c #EDEDED",
"Q. c #F4EEE7",
"!. c #F4EFE9",
"~. c #EFF0EF",
"^. c #F6F0EA",
"/. c #F4F4F5",
"(. c #FCFBF7",
"). c #F8F8F9",
"_. c #FCFCFC",
/* pixels */
"_._._._._._._._._._._._._._._._._._._._._._.(._._._._._._._._._.)._._._._._._._._._._._._._._.)._._._._._._._.)._._._._.",
"_._._._._._._._._._._._._._._._._._._._._._._._._._._._._._._._._._._._._._._._._._._._._._._._._._._._._._._._._._._._.",
"_._._._._._._._._._._._._._._._._._._._._._._._._._._._._._._._._._._._._._._._._._._._._._._._._._._.)._._._._._._._._.",
"_._._._._._._._._._._._._._._._._._._._._._._._._._._._._._._._._._._._._.)._._._._._._._._._._._._._._.(._._._._._.).).",
"_._._._._._._._._._._._._._._._._._._._._._._._._._._._._._._._._._._._._._._._._._._._._._._._._._._._._._._._.)._._._.",
"_._._._._._._._._._._._._._._._._._._._._._._._._._._._._._._._._.)._._._._._._._._._._._._._._._._._._.(._._._._._._._.",
"_._._._._._._._._._._._._._._._._._._._._._._._._._._._._._._._._._._._._._._._._._._._._.)._._._._._._._._._._._._._._.",
"_._._._._._._._._._._._._._._._._._._._._._._._._._._._._._._._._._._._._._._._._._._._._._._._._._._._.)._.(._._._._._.",
"_._._._._._._._._._._._._._._._._._._._._._._._._._._.)._._._._._._._._._._._._._._._._._._._._._._._._._._._._._._._._.",
"_._._._._._._._._._._._._._._._._._._._._._._._._._._._._._._._._._._._._._._._._._._._._._._._._._._._._._._._.)._._._.",
"_._._._._._._._._._._._._._._._._._.(._._._._._._./.W.W.~./._._._._._._._._._._._._._._._._._._._._._._._._._._._._._._.",
"_._._._._._._._._._._._._._._._._._._._._._._._._.z.I I D w.)._._._._._._._._._._._._._._._._._._._._._._._.(._._.)._.(.",
"_._._._._._._._._._._._._._._._._._._._._._.I.s.y.+.U U U [ y.y.G._._._._._._._._._._._._._._._._._._._._.)._.(._.)._.(.",
"_._._._._._._._._._._._._._._._._._._._._.W.g.z r O.b.b.x.0.z w 6.R._._._._._._._._._._._._._._._._._._._._._._._._._._.",
"_._._._._._._._._._._._._._._._._._._._._.7.B O.0.A.^.Q.U.Z.u.;.K / E._._._._._._._._._._._._._._._.(._._._._._._._.(._.",
"_._._._._._._._._._._._._._._._._._._.E.9.^ ` d.A.T.(.(.E.J.H.j.+.W } L._._._._._._._._._._._._._._._._._._._._._._._._.",
"_._._._._._._._._._._._._._._._._._._.P.z U 8.8.l.U.!.!.T.J.b.0.8.O.q z._._._.)._._._._._._._._._._._._._._._._._._.)._.",
"_._._._._._._._._._._._._._._._._._._.G.b U O.J [ j.U.U.K.b.+.K ^ / a h._._._._._._._._._._._._._._._._._._._._._._._._.",
"_._._._._._._._._._._._._._._._._._.z.W / J +.Z.U ;.U.K.k.O.B l.u.J / U e._._._._._._._._._._._._._._._._._._._._.)._._.",
"_._._._._._._._._._._._._._._._._._.y.r +.O.5.0.Z 5.U.U.k.` b 6.8.O.;.v ] )._._._._._._._._._._._._._._._._.)._._._._._.",
"_._._._._._._._._._._._._._._._._._.y.r O.u.;.b ^ d.J.J.b.d.O.B ` u.;.z ] _._._._._._._._._._._._._._._._._._._._._._._.",
"_._._._._._._._._._._._._._._._._._.w.> O.[ O.u.b.b.j.k.A.J.A.d.;.^ ;.r ~ )._._._._._._._._._._._._._._._._._._._._._._.",
"_._._._._._._._._._._._._._._._._._.q.= O.J B O.` ^ ! ! [ [ / +.K B -.r E /._._._._._._._._._._._.)._._._._._._._._.)._.",
"_._._._._._._._._._._._._._._._._._.c.~ I Z b B B J J U K S F B b B E E u._._._._._._._._._._._._._._.)._._._._._._.)._.",
"_._._._._._._._._._._._._._._._._._.).C.6 Z ^ a ;.0.;.u.;.5.0.B J ! > y./._._._._._._._._._._._._._.)._._.)._._._.)._._.",
"_._._._._._._._._._._._._._._._._._.z.c $ r U _ Z b J J J B b ^ K r > z e.)._._._._._._._._._._._._._._._._._._._._._._.",
"_._._._._._._._._._._._._._._._._._.t.@ 2 > 5 B J K ! U ! K v J J K -.W ! s.E._._._._._._._._._._.)._._._._._._.)._._._.",
"_._._._._._._._._._._._._._._._._._.t.: F a * & J ` / ` O.^ B 2 K j.H.l.^ l G._._._._._._._._._._.)._._._._._._._._._._.",
"_._._._._._._._._._._._._._._._._._.w.* P *.R w * = = 2 0 w : + ` H.j.Z.8.6 G._._._._._._._._._._._._._._._._._._._._._.",
"_._._._._._._._._._._._._._._._./.w.x = 2 P :.:.i m o.R f e M 2 z D b D c d L._._._._._._._._._._._._._._._._._._._._._.",
"_._._._._._._._._._._._._._._.).W.V & 5 1 a T =.M o.v.<.G i M 8 # o % + + s L._._._._._._._._._._._._._._._._.)._._._._.",
"_._._._._._._._._._._._._._._._.W.C = n A p : w m =.a.<.H 2 - @ : t F d : q n.)._.(._._._._._._._._._._.)._._._._._.)._.",
"_._._._._._._._._._._._._._._._.E.V 3 L ( L a i G >.v.a.X.8 @ : t F R H s 9 z g._._._._._._._._._._._._._._._._._._._._.",
"_._._._._._._._._._._._._._._.I.7.u 7 L ) Q N i *.<.p.v.=.f % - g ..%...h - X 8._._._.)._._._._._._._._._._._._._._._.).",
"_._._._._._._._._._._._._._._.c.$ < n L ( Y n a <.i.,.p.=.M ; + k 1.3.2.| - . 7._._._._._._._._._._._._._.)._._._._._._.",
"_._._._._._._._._._._._._._._.c.& 5 L ) L n u i <.<.X.>.R f 8 8  .3.N.4.#.9 X 7._.)._._._._._._._._._._._._._._._._._._.",
"_._._._._._._._._._._._._._._.c.= 5 L ) L x 4 2 :.=.H F i : : 8 @.B.Y.V.&.0 X 7._._._._._._._._._._.)._._._._._._._._._.",
"_._._._._._._._._._._._._._._.x.& y L ) A y * - H H w : 5 p a :  .M.S.N.%.9 . q._._._._._._._._._._._._._._._._._._._._.",
"_._._._._._._._._._._._._._._.x.< x Q Q n < $ 1 i w 2 2 S ' Q 5 g ..2.$.j - . 7._._._._._._._._._._._._._._._._._._._._.",
"_._._._._._._._._._._._._._._.m.y n L n y + < n L Y Y Y ) Q A L d 8 g 0 w c 3 r._._._.)._.)._._._._.)._._._._._._._._._.",
"_._._._._._._._._._._._._._._.F.u n n < & O < A Q ) { { { L u l r e F w , 7 4 y._._._._._._._._._._.)._._._._._._._._._.",
"_._._._._._._._._._._._._._._.m.u n x & O O & u n L ) ' { A 1 = e F H i : * < y._._._._._._.)._._._._._.)._._._._._._._.",
"_._._._._._._._._._._._._._._.F.u n N 7 & . O & < x L ) Q x & c z 2 = & < p 4 r._._._._._._._._._._._.)._._._._._._._._.",
"_._._._._._._._._._._._._._._.c.< = < x f.D   . O & y C u & . = & r f.C O = O q._._._._._._._._._._._._._._._._._._._._.",
"_._._._._._._._._._._._._._._.P.] < 7 7.W.h.D 3 p 3 $ < $ = l 1 z q.W.h.n $ D m._._._._._._._._._._._._._._.)._._._._._.",
"_._._._._._._._._._._._._._._._.W.~ 7._._._.c.b _ N $ 3 $ r O.v y._._._.z.V G._._.)._._._._._._._._.)._._._._._.)._._._.",
"_._._._._._._._._._._._._._._._.).I.R._._._.z.1 J l 7 c.E 3 K 1 7._._._.W.P./._._._._._._._._._.)._._._._._._._.)._._._.",
"_._._._._._._._._._._._._._._._._._._._._._.I.q.c K h.~.D.] l } G._._._._._._._._._._.)._._._._._._._._._._._._._._._.).",
"_._._._._._._._._._._._._._._._._._._._._._._./.] y._._._.D.~ L._._._._._._._._._._._._._._._._._._._._._._._._._._.).).",
"_._._._._._._._._._._._._._._._._._._._._._._._.W./._._._.).W._._._._._._._._._._._._._._._._._._._._._._._._._._._._._.",
"_._._._._._._._._._._._._._._._._._._._._._._._._._._._._._._._._._._._._._._._._._._._._._._._._._._._.(._._._._._._.).",
"_._._._._._._._._._._._._._._._._._._._._._._._._._._._._._._._._._._._._._._._._._._._._._._._._._._._._._._._._._._._.",
"_._._._._._._._._._._._._._._._._._._._._._._._._._._._._._._._._._._._._._._._._._._._._._._._._._._._._._._._._._.).(.",
"_._._._._._._._._._._._._._._._._._._._._._._._._._._._._._.(._._._._._._._._._._._._._._._._._._._._._._._._._._._._._.",
"_._._._._._._._._.(._._._._._._._._._._._._._._._._._._._._._._._._._._._._._._._._._._._._._._._._._._._._._._._._._._.",
"_._._._._._._._._.(._._._._._._._._._._._.)._._._._._._._._._._._._._._._._._._._._._._._._._._._._._._._._._._._._._._.",
"_._._._._._._._._._.(._._._._._._._._._.)._._._._._._._._._._._._._._._._._._._._._._._._._._._._._.)._._._._._._._._._.",
"_._._._._._._._._._._._._._.(._._._._._._._._._._._._._._._.(._._._._._._._._._._._._._._._._._._._._._._._._._._._._._.",
"_._._._._._._._._._._._._._._._._._._._._._._._._._._._._._._._._._._._._._._._._._._._._._._._._._._._._._._._._._._._.",
"_._._._._._._._._._._._._.(._._._._._._._.(._._._._._._._._._._._._._._._._._._._._._._._._._._._._._._._._._._._._._._."
};
